<?xml version="1.0" encoding="UTF-8"?>
<!DOCTYPE svg PUBLIC "-//W3C//DTD SVG 1.1//EN" "http://www.w3.org/Graphics/SVG/1.1/DTD/svg11.dtd">
<!-- Creator: CorelDRAW 2021.5 -->
<svg xmlns="http://www.w3.org/2000/svg" xml:space="preserve" width="3071px" height="2260px" version="1.1" style="shape-rendering:geometricPrecision; text-rendering:geometricPrecision; image-rendering:optimizeQuality; fill-rule:evenodd; clip-rule:evenodd"
viewBox="0 0 3081.17 2267.16"
 xmlns:xlink="http://www.w3.org/1999/xlink"
 xmlns:xodm="http://www.corel.com/coreldraw/odm/2003">
 <defs>
  <style type="text/css">
   <![CDATA[
    .fil0 {fill:#66C6F0;fill-rule:nonzero}
    .fil1 {fill:#EA148F;fill-rule:nonzero}
   ]]>
  </style>
 </defs>
 <g id="Layer_x0020_1">
  <metadata id="CorelCorpID_0Corel-Layer"/>
  <polygon class="fil0" points="0,2267.16 3081.17,2267.16 3081.17,0 0,0 "/>
  <path class="fil1" d="M2605.76 2102.56c-2.89,5.06 -6.92,9.16 -11.12,13.11 -3.48,3.26 -7.13,6.34 -10.69,9.52 -0.5,0.44 -0.85,0.64 -1.46,0.12 -6.39,-5.43 -13.07,-10.52 -18.58,-16.91 -2.92,-3.38 -5.44,-6.98 -6.38,-11.48 -1.36,-6.53 1.77,-12.98 7.69,-15.62 6.03,-2.71 12.79,-0.9 16.73,4.56 0.65,0.89 0.83,0.82 1.44,-0.03 3.45,-4.82 8.16,-6.89 13.98,-5.73 5.7,1.13 9.21,4.78 10.62,10.39 0.25,0.98 0.26,2.02 0.37,3.04 0.01,3.27 -1.01,6.24 -2.6,9.03z"/>
  <path class="fil1" d="M2675.31 2103.03c-2.89,5.06 -6.93,9.17 -11.12,13.11 -3.48,3.27 -7.14,6.35 -10.7,9.53 -0.49,0.44 -0.85,0.63 -1.46,0.11 -6.38,-5.43 -13.07,-10.52 -18.57,-16.9 -2.92,-3.39 -5.44,-6.98 -6.38,-11.48 -1.37,-6.54 1.77,-12.98 7.68,-15.63 6.03,-2.7 12.79,-0.89 16.74,4.56 0.65,0.89 0.83,0.82 1.44,-0.03 3.44,-4.82 8.16,-6.88 13.98,-5.73 5.7,1.13 9.2,4.78 10.62,10.39 0.25,0.99 0.25,2.03 0.37,3.04 0,3.28 -1.01,6.24 -2.6,9.03z"/>
  <path class="fil1" d="M2744.85 2103.51c-2.89,5.05 -6.92,9.16 -11.12,13.1 -3.48,3.27 -7.13,6.35 -10.69,9.53 -0.49,0.44 -0.85,0.64 -1.46,0.12 -6.39,-5.43 -13.07,-10.52 -18.58,-16.91 -2.92,-3.38 -5.43,-6.98 -6.38,-11.48 -1.36,-6.53 1.77,-12.98 7.69,-15.63 6.03,-2.7 12.79,-0.89 16.74,4.57 0.64,0.89 0.83,0.81 1.43,-0.03 3.45,-4.82 8.16,-6.89 13.99,-5.73 5.7,1.13 9.2,4.77 10.62,10.39 0.24,0.98 0.25,2.02 0.36,3.04 0.01,3.27 -1.01,6.24 -2.6,9.03z"/>
  <path class="fil1" d="M2814.39 2103.98c-2.88,5.06 -6.92,9.17 -11.11,13.11 -3.48,3.26 -7.14,6.35 -10.7,9.53 -0.49,0.43 -0.85,0.63 -1.46,0.11 -6.38,-5.43 -13.06,-10.52 -18.57,-16.91 -2.92,-3.38 -5.44,-6.98 -6.38,-11.47 -1.37,-6.54 1.77,-12.98 7.68,-15.63 6.03,-2.7 12.8,-0.89 16.74,4.56 0.64,0.89 0.83,0.82 1.44,-0.03 3.45,-4.82 8.16,-6.88 13.98,-5.73 5.7,1.13 9.21,4.78 10.62,10.39 0.25,0.99 0.25,2.03 0.37,3.04 0,3.27 -1.01,6.24 -2.61,9.03z"/>
 </g>
</svg>
