<?xml version="1.0" encoding="UTF-8"?>
<!DOCTYPE svg PUBLIC "-//W3C//DTD SVG 1.1//EN" "http://www.w3.org/Graphics/SVG/1.1/DTD/svg11.dtd">
<!-- Creator: CorelDRAW 2021.5 -->
<svg xmlns="http://www.w3.org/2000/svg" xml:space="preserve" width="4338px" height="3423px" version="1.1" style="shape-rendering:geometricPrecision; text-rendering:geometricPrecision; image-rendering:optimizeQuality; fill-rule:evenodd; clip-rule:evenodd"
viewBox="0 0 3665.09 2891.97"
 xmlns:xlink="http://www.w3.org/1999/xlink"
 xmlns:xodm="http://www.corel.com/coreldraw/odm/2003">
 <defs>
  <style type="text/css">
   <![CDATA[
    .fil1 {fill:#010954;fill-rule:nonzero}
    .fil3 {fill:#69FFD6;fill-rule:nonzero}
    .fil2 {fill:#E32084;fill-rule:nonzero}
    .fil4 {fill:#FBD0E9;fill-rule:nonzero}
    .fil0 {fill:#FFEA00;fill-rule:nonzero}
   ]]>
  </style>
 </defs>
 <g id="Layer_x0020_1">
  <metadata id="CorelCorpID_0Corel-Layer"/>
  <g id="_2244283287568">
   <path class="fil0" d="M3389.33 515.59c-31.93,-260.32 -329.35,-491.27 -558,-466.24 -40.22,4.4 -80.47,8.53 -127.34,13.47 -23.56,3.61 -54.2,5.99 -83.45,13.41 -29.17,7.4 -58.14,17.63 -85.11,30.37 -254.67,120.47 -376.23,362.61 -318.1,616.81 23.25,101.56 66.79,180.05 122.36,240.62 -23.94,34.34 -58.02,68.26 -106.34,90.8 -84.65,39.47 60.2,6.37 181.34,-24.17 101.5,73.36 224.73,106.88 337.67,120.02 54.55,6.37 116.44,-2.48 168.7,-20.35 82.1,-28.03 159.14,-69.15 237.64,-106.04 17.8,-8.4 35.53,-19.73 48.74,-33.42 131.2,-136.6 204.98,-286.73 181.89,-475.28z"/>
   <g>
    <path class="fil1" d="M2981.78 177.74c5.64,-0.76 10.77,0.35 15.27,3.51 4.5,3.16 6.99,7.05 7.65,11.94 0.38,2.82 0.18,10.23 -0.79,21.98 -0.54,8.22 -0.93,18.69 -1,31.52 0.98,17.22 3.8,44.75 8.47,82.44 4.7,40.24 7.28,63.73 7.45,70.5 0.18,6.91 -1.44,17.24 -4.87,30.83 -3.94,15.47 -9.37,29.94 -16.4,43.72 -7.03,13.78 -13.18,21.85 -18.42,24.37 -2.71,1.12 -7.07,3.53 -12.87,7.48 -10.11,6.65 -25.3,11.43 -45.45,14.17 -5.92,0.8 -15.1,0.99 -27.38,0.54 -12.28,-0.44 -20.55,-1.29 -24.49,-2.56 -4.07,-1.11 -10.16,-3.75 -18.42,-7.91 -8.24,-4.01 -13.49,-7.07 -15.88,-9.16 -8.79,-6.96 -16.23,-16.21 -22.34,-27.9 -5.4,-10.89 -9.5,-19.99 -12.26,-27l-7.82 -18.71 -5.64 -33.78c-2.34,-13.87 -5.34,-29.3 -9.27,-46.12 -3.95,-16.81 -6.64,-31.08 -8.18,-42.49l-1.35 -9.93 -2.23 -25.34 6.72 -8.3c4.26,-5.26 11.65,-12 21.83,-20.32 10.19,-8.32 16.54,-12.65 18.91,-12.97 5.19,-0.71 10.01,1.5 14.18,6.67 1.22,1.2 3.1,5.01 5.34,11.5 2.27,6.78 4.96,21.05 7.88,42.53 1.08,8 2.74,21.36 4.98,40.06 2.09,18.73 3.79,32.38 4.97,41.12 3.08,22.66 5.99,38.56 8.61,47.86 5.27,17.7 12.19,28.68 20.45,32.84 6.55,3.79 15.59,4.82 27.14,3.25 11.86,-1.6 21.57,-5.64 29.16,-11.95 3.91,-3.4 6.45,-6.91 7.9,-10.72 1.46,-3.67 2.5,-10.45 3.31,-20.07l1.07 -16.59 -5.56 -36.51c-0.9,-6.67 -2.49,-18.37 -4.91,-35.09 -2.42,-16.72 -4.09,-27.96 -4.9,-33.89l-4.46 -32.88 2.58 -12.12c3.49,-15.41 8.61,-27.72 15.17,-37.21 9.01,-12.54 17.62,-21.4 26.15,-26.33 2.08,-1.34 5.26,-2.38 9.7,-2.98zm46.62 146.96c6.88,-10.44 21.35,-17.23 43.57,-20.24 8.74,-1.19 16.55,-1.49 23.4,-1.06 8.22,0.54 13.6,1.32 16.28,2.16 2.55,1.02 5.67,2.86 9.2,5.54 8.35,7.02 13.28,15.55 14.64,25.63 0.71,5.19 -0.05,9.66 -2.44,13.15 -2.17,2.86 -4.53,4.39 -7.35,4.77 -2.81,0.38 -6.57,-0.61 -11.54,-2.81 -7.53,-3.2 -17.83,-5.72 -30.88,-7.42 -7.84,-1.05 -12.81,-0.98 -14.89,0.36 -1.49,1.25 -2.18,2.86 -1.93,4.63 0.32,2.37 2.17,6.05 5.69,10.85 7.43,10.31 16.82,19.44 28.12,27.11 17.2,11.1 28.72,20.4 34.69,27.73 11.77,13.34 18.08,23.2 18.99,29.86 1.66,12.3 -3.88,22.56 -16.61,31.07 -12.98,8.86 -26.44,14.15 -40.37,16.04 -3.85,0.53 -10.77,0.71 -20.72,0.7 -18.94,-0.6 -33.69,-4.78 -44.25,-12.55 -7.87,-5.73 -12.28,-12.67 -13.43,-21.11 -1.66,-12.3 1.36,-18.89 8.92,-19.92 4.15,-0.56 10.41,1.15 18.78,4.99 9.55,4.74 21.08,6.35 34.75,4.8 9.09,-0.78 14.35,-2.1 15.5,-3.62 1.39,-1.99 1.59,-3.83 0.31,-5.47 -0.96,-1.53 -8.44,-7.76 -22.74,-18.64 -22.69,-18.2 -36.93,-31.96 -42.84,-41.11 -5.86,-8.71 -9.31,-17.44 -10.5,-26.18 -1.32,-9.78 1.28,-19.49 7.65,-29.26z"/>
    <path class="fil1" d="M2478.92 496.19c1.11,-0.58 2.6,-0.95 4.36,-1.19 4.11,-0.56 6.99,1.18 8.56,5.16 0.66,1.7 1.85,7.95 3.73,18.71l2.46 16.23 9.23 -1.25c15.34,-2.08 28.41,1.02 39.17,9.2 3.77,2.65 7.51,6.93 11.11,12.68 2.49,3.84 4.26,8.13 5.32,12.77 1.07,4.72 2.82,15.08 5.43,31.2 3.47,22.43 6.29,36.31 8.64,41.62 0.85,1.94 1.43,3.65 1.65,5.25 0.4,2.93 -0.35,5 -2.18,6.02 -0.39,0.22 -1.22,0.42 -2.65,0.61 -3.6,0.49 -6.8,0.24 -9.74,-0.73 -2.49,-0.68 -5.98,-2.52 -10.42,-5.59 -4.42,-2.99 -7.49,-5.47 -9.12,-7.47 -3.58,-4.3 -6.12,-8.57 -7.63,-12.8 -1.52,-4.24 -3.21,-12.89 -5.13,-25.87 -2.59,-15.88 -4.47,-25.96 -5.73,-30.23 -1.34,-4.26 -3.65,-7.36 -6.9,-9.31l-3.11 1.62c-4.56,2.24 -8.12,5.63 -10.65,10.24l-1.37 3.17 2.1 19.88c2.82,25.15 3.99,40.11 3.72,45.02 -0.48,4.07 -1.97,6.24 -4.57,6.59 -1.93,0.27 -4.71,-0.72 -8.28,-3.06 -2.95,-2.25 -6.83,-6.93 -11.83,-14.19 -5,-7.27 -9.09,-14.14 -12.13,-20.82 -1.41,-2.8 -5.03,-25.11 -10.96,-66.93l-2.73 -20.12 1.54 -4.4c1.27,-3.84 2.6,-6.59 3.98,-8.4 1.52,-2 3.98,-4.64 7.21,-7.89 3.24,-3.26 5.55,-5.11 6.92,-5.72zm152.37 45.86c-1.84,-0.35 -4.1,-0.04 -6.79,0.92 -6.27,2.9 -12.35,7.23 -18.13,13.05 -5.79,5.82 -9.5,11.2 -11.03,16.27 -0.69,2.49 -0.93,4.49 -0.71,6.08 0.15,1.17 1.01,3.7 2.55,7.51 1.79,4.37 5.3,8.25 10.46,11.65 5.17,3.48 10.9,5.44 17.21,5.95 2.68,0.23 6.33,0.08 11.11,-0.57 3.1,-0.42 5.85,-0.96 8.14,-1.7 5.32,-2.35 7.43,-7.59 6.3,-15.89 -0.38,-2.77 -0.75,-4.93 -1.14,-6.51 -2.34,-9.67 -5.19,-18.08 -8.52,-25.06 -3.43,-6.97 -6.52,-10.9 -9.45,-11.7zm-42.56 -7.13c8.95,-6.42 18.58,-10.37 28.89,-11.77 2.94,-0.4 5.05,-0.6 6.5,-0.63 14.35,0.7 25.18,4.36 32.49,10.97 6.92,6.32 12.06,12.71 15.6,19.32 1.9,3.33 3.17,7.6 3.86,12.72 0.61,4.52 0.75,8.69 0.51,12.57 -0.32,3.29 -0.32,6.45 0.08,9.38 0.85,6.29 -4.23,15.44 -15.3,27.62 -6.78,7.32 -16.83,11.93 -30.08,13.73 -6.29,0.85 -11.32,0.94 -15.25,0.27 -22.07,-4.01 -36.4,-17.1 -43.01,-39.34 -1.1,-3.7 -1.89,-7.01 -2.28,-9.94 -0.75,-5.54 0.4,-12.78 3.36,-21.81 3.75,-10.76 8.69,-18.43 14.63,-23.09zm181.77 13.87c-2.62,-4.86 -4.38,-10.26 -5.17,-16.13 -1.27,-9.31 0,-17.59 3.71,-24.84 3.72,-7.25 9.48,-11.37 17.11,-12.4 2.01,-0.28 4.51,1.1 7.56,4.1 -1.62,6.28 -2.87,10.98 -3.81,14.09l1.53 11.24c0.21,1.6 1.26,7.43 3.14,17.51 1.8,10.09 3.05,17.44 3.66,21.97 0.48,3.52 0.67,6.14 0.46,7.79l-0.98 8.51c-0.59,5.71 -2.78,10.96 -6.59,15.67 -7.16,8.23 -15.41,12.93 -24.88,14.22 -6.29,0.85 -12.91,-0.05 -19.67,-2.71l-3.43 -1.33 -3.03 2.2c-4.57,3.44 -10.77,5.65 -18.74,6.73l-2.01 0.27c-19.22,1.84 -31.44,-5.13 -36.57,-20.92 -2.8,-8.67 -5.38,-21.39 -7.66,-38.16 -1.36,-10.06 -1.87,-17 -1.55,-20.89 0.21,-5.41 1.37,-10.09 3.48,-14.05 2.37,-4.5 4.69,-6.95 6.87,-7.25 2.18,-0.3 5.02,1.11 8.43,4.24 3.43,3.21 5.93,6.54 7.7,10.14 1.32,2.81 2.2,5.51 2.55,8.11 0.54,3.94 0.19,10.22 -1.03,18.85 -1.19,7.59 -1.63,12.52 -1.3,14.95l0.36 2.68c0.97,5.25 2.53,9.22 4.68,11.84 2.15,2.61 5.71,4.94 10.87,7.06 2.98,1.22 4.94,1.81 5.95,1.67 1.34,-0.18 2.48,-1.19 3.53,-2.95 2.98,-4.42 3.9,-10.87 2.75,-19.34 -0.55,-4.11 -1.85,-9.91 -3.87,-17.24 -1.67,-6.61 -2.6,-10.32 -2.7,-11.08 -0.54,-3.94 1.45,-11.3 6.08,-21.92 3.8,-9.14 6.82,-13.9 9.25,-14.23 1.35,-0.19 2.86,1.49 4.62,5.09 1.94,4.18 3.57,11.13 4.87,20.78 1.02,7.46 1.82,14.02 2.4,19.57 0.66,6.75 1.57,14.06 2.64,21.94 0.63,4.69 1.08,7.37 1.41,7.92 0.64,1.54 1.96,3.06 4.12,4.56 2.09,1.52 3.72,2.23 4.9,2.07 2.35,-0.32 5,-2.13 7.9,-5.34 2.89,-3.21 4.68,-6.44 5.43,-9.7 0.91,-3.97 1.14,-7.33 0.77,-10.1 -0.54,-3.94 -2.42,-8.98 -5.74,-15.19z"/>
    <path class="fil1" d="M2897.42 549.37c2.99,-1.18 5.96,-2.01 8.73,-2.38 3.35,-0.46 6.43,0.24 9.33,2.06 1.3,0.77 2.11,2.37 2.43,4.71 0.33,2.44 -0.37,4.84 -2,7.28 -1.5,2.17 -2.57,4.96 -3.05,8.36 -0.56,3.4 -2.1,16 -4.6,37.86 -1.83,14.85 -4.33,28.51 -7.7,40.84 -1.15,3.49 -2.48,8.79 -4.17,15.86 -3.26,14.36 -7.58,24.69 -12.96,31.05 -2.02,2.67 -4.65,4.73 -7.87,6.19 -2.83,1.16 -5.96,2.01 -9.31,2.46 -9.65,1.31 -18.7,-1.22 -26.99,-7.53 -7.81,-5.94 -12.99,-13.27 -15.62,-21.96 -1.07,-3.53 -1.65,-5.84 -1.81,-7.01 -0.21,-1.6 0.27,-3.12 1.5,-4.73 1.16,-1.53 2.49,-2.39 4.09,-2.61 1,-0.14 3.55,0.37 7.73,1.6 3.4,1.16 7.01,3.83 10.73,7.94 3.97,4.07 6.73,6.77 8.34,8.01 1.63,1.31 2.99,1.9 4.17,1.74 0.42,-0.06 1.15,-0.33 2.27,-0.91 2.24,-1.07 3.48,-3.89 3.65,-8.35 0.1,-2.41 0.11,-4.2 -0.05,-5.38 -0.51,-3.77 -2.67,-8.35 -6.41,-13.9 -2.03,-2.97 -6.46,-10.49 -13.31,-22.54 -6.83,-11.97 -11.26,-19.4 -13.25,-22.12 -5.26,-7.91 -8.26,-14.34 -8.93,-19.28 -0.48,-3.52 -0.44,-6.35 0.21,-8.49 0.58,-2.04 2.19,-4.65 4.75,-7.81 0.51,-0.67 1.53,-1.92 2.99,-3.74 1.46,-1.82 2.57,-3.08 3.39,-3.96 0.84,-0.8 1.99,-1.73 3.57,-2.71 1.57,-0.98 3.11,-1.62 4.7,-1.83 4.95,-0.67 8.54,0.63 10.78,3.92 1.47,2.02 3.85,10.75 7.07,26.28 3.22,15.54 6.07,25.23 8.53,28.91 2.55,4.27 5.37,6.19 8.3,5.79 3.19,-0.43 5.82,-3.09 7.97,-8 2.67,-7.45 2.9,-18.93 0.8,-34.44l-1.05 -7.72c-0.95,-6.96 -1.31,-10.92 -1.02,-11.9 -0.02,-1.45 0.47,-2.88 1.45,-4.47 0.99,-1.5 1.9,-2.31 2.74,-2.42 0.76,-0.1 1.72,-0.57 2.81,-1.32 1.79,-1.27 4.21,-2.36 7.07,-3.35zm88.82 8.7c-1.84,-0.35 -4.1,-0.04 -6.79,0.93 -6.27,2.9 -12.34,7.22 -18.13,13.05 -5.79,5.82 -9.5,11.19 -11.03,16.27 -0.69,2.48 -0.93,4.48 -0.71,6.07 0.16,1.18 1.01,3.71 2.55,7.51 1.79,4.37 5.31,8.25 10.47,11.65 5.17,3.49 10.9,5.44 17.2,5.95 2.68,0.24 6.33,0.08 11.11,-0.57 3.11,-0.42 5.85,-0.96 8.14,-1.7 5.32,-2.34 7.43,-7.58 6.3,-15.88 -0.37,-2.77 -0.75,-4.94 -1.14,-6.51 -2.33,-9.68 -5.18,-18.09 -8.52,-25.07 -3.42,-6.96 -6.52,-10.9 -9.45,-11.7zm-42.56 -7.12c8.96,-6.42 18.58,-10.38 28.9,-11.78 2.93,-0.4 5.04,-0.6 6.49,-0.62 14.36,0.7 25.19,4.35 32.49,10.97 6.92,6.32 12.06,12.71 15.6,19.32 1.91,3.33 3.17,7.59 3.86,12.71 0.62,4.53 0.76,8.7 0.52,12.57 -0.33,3.29 -0.33,6.45 0.07,9.39 0.86,6.29 -4.22,15.43 -15.3,27.61 -6.78,7.32 -16.83,11.94 -30.08,13.73 -6.29,0.86 -11.32,0.94 -15.25,0.28 -22.07,-4.01 -36.4,-17.1 -43,-39.35 -1.1,-3.7 -1.89,-7 -2.29,-9.94 -0.75,-5.54 0.4,-12.78 3.36,-21.81 3.75,-10.76 8.69,-18.43 14.63,-23.08zm190.38 -38.55c0.33,2.43 0.37,4.65 0.05,6.65 -0.33,2.01 -0.39,4.07 -0.12,6.08 0.08,0.59 0.23,4.16 0.53,10.78 0.33,8.15 1,16.86 2.01,26.2 1.91,18.45 2.1,29.95 0.51,34.61 -0.19,0.45 -0.36,1.07 -0.66,2.05 -0.29,0.98 -0.52,1.78 -0.85,2.51 -0.33,0.73 -0.51,1.27 -0.62,1.71 -0.74,2.15 -2.78,5.33 -6.15,9.46 -3.37,4.13 -6.22,7.08 -8.54,8.84 -3.11,2.22 -7.59,4.45 -13.54,6.62 -5.92,2.26 -10.95,3.62 -14.89,4.16l-1.76 0.24c-7.55,0.42 -15.03,-1.21 -22.35,-4.83 -12.25,-5.94 -22.18,-18.68 -29.86,-38.14 -4.62,-12.01 -7.55,-22.29 -8.7,-30.76 -0.61,-4.53 -0.52,-7.62 0.27,-9.35 1.17,-3.32 4.77,-7.65 10.89,-12.92 4.79,-4.32 8.92,-6.68 12.27,-7.13 1.76,-0.24 3.78,0.17 5.9,1.33 3.46,2.18 5.88,8.09 7.19,17.73 0.3,2.18 0.97,8.41 1.94,18.7 0.19,2.62 0.57,6.07 1.16,10.43 1.52,11.24 4.68,18.76 9.37,22.48 4.28,3.26 8.98,4.5 14.1,3.81 2.34,-0.32 4.53,-1.22 6.55,-2.69 5.67,-4.18 7.66,-12.14 6.06,-23.96 -0.59,-4.37 -1.84,-9.75 -3.65,-16.16 -1.47,-4.59 -2.53,-9.23 -3.18,-14.01 -1.36,-10.06 1.28,-19.56 7.92,-28.49 3.69,-5.54 7.85,-9.52 12.56,-11.95 1.35,-0.78 3.66,-1.35 7.02,-1.81 3.1,-0.42 5.18,-0.19 6.25,0.78 1.07,0.96 1.81,3.25 2.32,7.03z"/>
    <path class="fil1" d="M2626.92 663.01c1.47,-0.94 3.81,-1.68 7.25,-2.15 2.71,-0.37 4.76,-0.12 6.14,0.65 1.29,0.89 2.4,2.86 3.36,6.02 2.38,6.58 7.2,36.62 14.46,90.11l2.6 19.18c3.96,29.19 6.62,46.46 8,51.9 1.37,5.44 4.38,11.19 8.94,17.37 3.68,5.24 5.68,9 5.97,11.19 0.5,3.65 -0.15,6.71 -2.03,9.3 -1.86,2.7 -4.63,4.24 -8.07,4.71 -2.39,0.32 -6.78,-0.68 -13.05,-3.12 -6.37,-2.32 -11.16,-4.75 -14.6,-7.36 -6.35,-4.56 -11.76,-11.58 -16.32,-20.94 -3.81,-8.51 -6.54,-15.36 -8.01,-20.68 -1.46,-5.32 -3.24,-15.27 -5.23,-29.97 -2.34,-17.21 -4.27,-32.24 -5.72,-45.31l-6.11 -50.46 3.26 -6.5c5.64,-11.7 11.99,-19.67 19.16,-23.94zm68.07 75.82c2.27,-1.26 5.03,-2.06 8.29,-2.29 5.52,-0.01 8.57,2.12 9.14,6.3 0.37,2.71 0.98,4.85 1.93,6.42 2.79,5.68 5.09,15.56 7.02,29.84 0.77,5.63 1.92,17.26 3.47,34.89 1.54,17.64 2.2,27.21 1.87,28.74 0.08,0.52 -0.02,3.72 -0.15,9.79 0.15,9 -1.54,14.54 -4.94,16.81 -1.34,1.14 -3.02,1.26 -5.17,0.28 -6.62,-2.61 -14.94,-13.06 -25.18,-31.42 -4.03,-6.99 -6.55,-12.28 -7.8,-16.04 -1.24,-3.65 -2.77,-10.98 -4.48,-22.01 -0.26,-1.98 -0.75,-4.78 -1.35,-8.41 -0.6,-3.64 -1.07,-6.34 -1.3,-8 -0.27,-1.98 -0.47,-4.29 -0.72,-6.91 -0.25,-2.62 -0.33,-3.99 -0.36,-4.2l-0.63 -7.03 4.16 -7.68c5.44,-9.97 10.84,-16.34 16.2,-19.08zm-10.54 -83.2c0.9,-0.44 2.65,-0.78 5.05,-1.11 3.65,-0.49 6.43,-0.34 8.33,0.36 2.95,1.4 5.08,6.1 6.38,14.1l0.55 4.07c0.46,3.44 0.32,7.07 -0.33,10.88 -0.9,5.11 -1.26,7.92 -1.19,8.44 0.1,0.73 -0.45,2.18 -1.64,4.36 -1.19,2.18 -3.46,3.45 -6.9,3.91 -3.44,0.47 -6.58,0.04 -9.22,-1.4 -6.67,-3.03 -12.98,-8.01 -18.91,-14.96 -3.48,-3.77 -5.34,-6.49 -5.58,-8.26 -0.13,-0.94 0.13,-2.15 0.69,-3.5 1.16,-2.39 4.34,-5.58 9.56,-9.36 5.22,-3.79 9.66,-6.31 13.21,-7.53zm49.34 26.97c2.09,-1.03 4.14,-1.62 6.12,-1.89 5.1,-0.7 8.65,0.41 10.64,3.33 0.97,1.67 3.2,14.96 6.91,39.94l5.4 37.5c1.49,0.01 3.38,-0.14 5.57,-0.44 5.63,-0.76 9.99,-5.39 13.1,-13.78 3.62,-10.15 9.93,-18.44 18.75,-24.62 3.69,-2.53 6.8,-3.9 9.19,-4.23 6.16,-0.83 10.62,5.47 13.39,18.79l0.45 3.33c1.52,11.27 -0.1,22 -4.99,32.11 -1.72,3.74 -1.86,5.88 -0.2,6.4 1.22,0.37 3.53,2.49 6.82,6.4 3.29,3.91 5.93,7.69 7.88,11.14 2.34,3.93 4.37,11.09 6.32,21.55 2.12,11.71 3.75,19.77 5.07,24.06 3.3,11.01 5.06,17.68 5.35,19.87 0.17,1.25 0.12,2.43 -0.27,3.43 -0.7,1.9 -2.78,3.04 -6.22,3.5 -1.04,0.14 -3.27,0.13 -6.79,0.07 -8.61,-0.85 -16.65,-5.38 -24.14,-13.6 -7.49,-8.23 -12.95,-18.74 -16.52,-31.74 -1.87,-6.76 -5.82,-12.38 -11.62,-16.8 -5.56,-4.23 -10.08,-6.17 -13.52,-5.7 -2.19,0.3 -3.4,2.27 -3.76,5.93 -0.44,3.77 -0.25,12.24 0.61,25.61 0.91,16.12 0.92,24.83 0.16,26.21 -0.25,0.56 -1.13,1.85 -2.84,4.1l-3.9 -1.28c-2.1,-0.67 -3.87,-1.92 -5.48,-3.61 -1.59,-1.59 -4.76,-5.41 -9.27,-11.27 -6.35,-8.38 -11.64,-16.9 -15.79,-25.57 -2.85,-6.1 -6.39,-24.41 -10.51,-54.75 -0.34,-2.5 -0.76,-6.37 -1.37,-11.71 -0.61,-5.22 -1.05,-9.31 -1.47,-12.33 -2.52,-20.15 -3.33,-31.61 -2.45,-34.49 1.42,-4.44 4.24,-9.5 8.68,-15.09 4.34,-5.58 7.91,-9.04 10.7,-10.37zm144.11 34.39c5.13,-2.93 9.77,-4.72 13.83,-5.28 3.03,-0.4 5.44,-0.63 7.46,-0.58 14.39,-1.21 28.26,1.69 41.67,8.89 6.78,3.86 11.38,8.01 14,12.44 1.34,2.05 2.17,4.27 2.51,6.77 0.47,3.44 -0.14,6.82 -1.68,10.32 -1.27,3.14 -6.95,11.35 -16.96,24.49 -10.09,13.26 -16.41,20.7 -18.95,22.32 -3.72,2.31 -6.94,3.6 -9.65,3.96 -4.38,0.6 -8.43,-0.23 -12.23,-2.48 -3.53,-1.75 -5.42,-3.93 -5.75,-6.33 -0.24,-1.77 0.06,-3.51 0.75,-5.41 1.53,-5.2 6.86,-12.08 15.86,-20.84 9.61,-9.8 14.34,-15.65 14.07,-17.63 -0.32,-2.39 -3.05,-4.47 -8.27,-6.2 -5.21,-1.63 -11.04,-2.33 -17.47,-1.98l-4.07 0.55c-4.69,0.63 -7.81,1.91 -9.37,3.71 -1.67,1.82 -2.8,5.16 -3.42,10.02 -0.4,4.09 -0.11,10.1 0.95,17.92 0.76,5.64 1.78,10.06 2.98,13.4 4.06,10.39 11.14,17.18 21.14,20.39 3.68,1.31 9.12,1.52 16.55,0.73l5.53 -0.75c4.38,-0.6 8.4,-1.46 11.95,-2.68 8.42,-2.95 15.47,-6.56 21.36,-10.87 0.87,-0.65 2.4,-1.07 4.39,-1.33 3.12,-0.43 4.98,1.55 5.59,6.03 0.24,1.77 0.32,3.14 0.24,4.11 -0.39,6.53 -2.63,12.68 -6.83,18.55 -3.12,4.36 -5.82,7.16 -7.91,8.19 -3.45,1.96 -7.72,4.13 -12.61,6.49 -9.78,5.36 -19.31,8.67 -28.59,9.93 -4.7,0.64 -11.04,0.86 -19.03,0.67 -4.79,-0.09 -8.36,-0.56 -10.72,-1.52 -8.55,-2.77 -17.2,-8.6 -25.91,-17.29 -8.72,-8.7 -14.21,-17.83 -16.48,-27.5 -0.55,-1.73 -0.95,-3.91 -1.32,-6.62 -0.32,-2.4 -0.43,-6.31 -0.39,-11.52 0.11,-14.03 3.02,-26.21 8.96,-36.47 2.11,-4 6,-8.99 11.49,-14.72 5.48,-5.74 9.12,-8.67 11.1,-8.94 0.32,-0.04 1.99,-1.02 5.23,-2.94z"/>
    <path class="fil1" d="M3018.32 739.95c1.92,-1.07 4.25,-1.74 7,-1.94 4.65,0 7.23,1.8 7.71,5.32 0.31,2.29 0.82,4.1 1.63,5.42 2.35,4.79 4.29,13.12 5.92,25.17 0.64,4.75 1.62,14.56 2.92,29.44 1.3,14.87 1.86,22.94 1.58,24.23 0.06,0.45 -0.02,3.14 -0.13,8.26 0.13,7.6 -1.29,12.27 -4.17,14.19 -1.12,0.95 -2.54,1.06 -4.35,0.23 -5.59,-2.2 -12.61,-11.01 -21.25,-26.5 -3.39,-5.9 -5.52,-10.36 -6.58,-13.53 -1.04,-3.08 -2.33,-9.27 -3.77,-18.57 -0.23,-1.67 -0.64,-4.03 -1.14,-7.1 -0.51,-3.06 -0.91,-5.34 -1.1,-6.75 -0.22,-1.67 -0.4,-3.62 -0.61,-5.82 -0.21,-2.22 -0.28,-3.37 -0.3,-3.55l-0.54 -5.93 3.51 -6.47c4.59,-8.42 9.15,-13.79 13.67,-16.1zm-8.89 -70.19c0.76,-0.37 2.24,-0.66 4.26,-0.93 3.08,-0.42 5.43,-0.29 7.03,0.3 2.49,1.18 4.28,5.15 5.38,11.9l0.46 3.43c0.4,2.9 0.27,5.96 -0.28,9.17 -0.76,4.32 -1.06,6.69 -1,7.13 0.08,0.61 -0.38,1.84 -1.38,3.68 -1.01,1.84 -2.92,2.9 -5.83,3.3 -2.9,0.39 -5.54,0.03 -7.77,-1.19 -5.63,-2.55 -10.95,-6.75 -15.95,-12.61 -2.94,-3.19 -4.51,-5.48 -4.71,-6.98 -0.11,-0.79 0.11,-1.81 0.58,-2.94 0.98,-2.02 3.66,-4.71 8.07,-7.91 4.4,-3.19 8.15,-5.31 11.14,-6.35zm48.86 31.89c2.47,-0.96 5.16,-0.97 8.26,0.14 1.78,0.56 3.04,1.91 3.84,3.86 0.82,2.04 1.94,7 3.44,14.77l2.55 14.16c6.49,-1.69 12.67,-2.97 18.48,-3.76 2.72,-0.37 5.74,-0.6 9.05,-0.6 1.53,0.06 4.68,0.17 9.54,0.32 4.86,0.14 9.18,0.28 13.04,0.38 3.78,0.11 6.05,0.34 6.72,0.7 0.5,0.38 1.14,0.47 1.93,0.36 0.79,-0.1 1.83,0.29 2.95,1.22 1.48,1.05 2.25,2.11 2.4,3.16 0.29,2.2 -2.13,5.49 -7.28,9.77 -7.01,5.79 -14.75,10.78 -23.24,14.89 -3.93,2.05 -7.35,3.23 -10.25,3.63 -3.96,0.53 -9.26,-1.52 -15.97,-6.08l-5.96 -4.3 -0.86 5.5c-0.61,4.74 -0.44,10.63 0.51,17.66 1.09,8.01 2.83,15.56 5.29,22.48 2.38,6.94 4.79,10.91 7.25,11.83 0.85,0.33 1.75,0.39 2.63,0.27 3.43,-0.46 7.74,-3.02 12.84,-7.74 5,-4.71 9.69,-10.46 14.03,-17.4 5.03,-7.85 8.16,-11.86 9.47,-12.04 0.18,-0.02 1.23,-0.88 3.06,-2.56 1.93,-1.61 4.05,-2.52 6.34,-2.83 3.95,-0.54 6.7,0.61 8.33,3.35 0.61,1.17 0.94,2.29 1.08,3.34 0.67,4.93 -0.13,13.55 -2.49,25.87 -0.92,7.11 -4.47,14.58 -10.59,22.31 -3.22,4.02 -5.82,6.61 -7.82,7.69 -2.94,1.47 -5.76,3.11 -8.46,5 -6.36,4 -12.3,6.41 -17.67,7.14 -9.76,1.32 -18.95,-0.39 -27.55,-5.04 -8.61,-4.66 -15.42,-10.63 -20.44,-17.92 -2.93,-4.44 -4.97,-9.63 -6.23,-15.55 -0.42,-1.82 -1.06,-4.51 -1.8,-7.99 -0.83,-3.47 -1.52,-6.6 -2.09,-9.48 -0.66,-2.87 -1.1,-5.5 -1.45,-8.05 -0.27,-2.02 -0.49,-4.95 -0.56,-8.79 -0.1,-2.04 -0.62,-6.54 -1.54,-13.31l-0.8 -5.9c-0.14,-1.05 -0.32,-2.37 -0.64,-4.03 -0.31,-1.66 -0.56,-2.79 -0.64,-3.41 -1.12,-8.27 -0.95,-14.92 0.43,-19.94 1.33,-4.03 4.3,-8.56 8.82,-13.56 4.43,-4.99 8.47,-8.23 12.05,-9.52z"/>
    <path class="fil1" d="M2548.37 378.58c1.62,-0.63 3.38,-0.64 5.42,0.09 1.17,0.37 2,1.26 2.52,2.54 0.54,1.34 1.28,4.59 2.26,9.7l1.68 9.31c4.26,-1.11 8.33,-1.96 12.14,-2.47 1.79,-0.25 3.77,-0.4 5.95,-0.4 1.01,0.04 3.08,0.11 6.27,0.21 3.19,0.1 6.03,0.18 8.57,0.25 2.48,0.07 3.97,0.22 4.41,0.46 0.33,0.25 0.75,0.31 1.27,0.24 0.52,-0.07 1.21,0.19 1.93,0.8 0.98,0.69 1.49,1.38 1.58,2.08 0.2,1.44 -1.39,3.6 -4.78,6.41 -4.6,3.81 -9.69,7.09 -15.27,9.78 -2.58,1.36 -4.83,2.13 -6.74,2.39 -2.6,0.36 -6.08,-1 -10.49,-3.99l-3.91 -2.82 -0.57 3.6c-0.4,3.12 -0.29,6.99 0.34,11.61 0.71,5.26 1.86,10.23 3.47,14.78 1.56,4.55 3.15,7.16 4.77,7.77 0.55,0.21 1.15,0.25 1.73,0.17 2.25,-0.3 5.08,-1.98 8.43,-5.08 3.29,-3.1 6.37,-6.87 9.22,-11.44 3.3,-5.15 5.36,-7.79 6.22,-7.9 0.12,-0.02 0.81,-0.58 2.01,-1.69 1.27,-1.05 2.66,-1.65 4.17,-1.86 2.6,-0.35 4.41,0.4 5.47,2.2 0.4,0.77 0.62,1.51 0.71,2.2 0.44,3.24 -0.09,8.9 -1.64,16.99 -0.6,4.68 -2.93,9.59 -6.95,14.66 -2.12,2.65 -3.83,4.35 -5.14,5.06 -1.93,0.96 -3.79,2.04 -5.56,3.28 -4.18,2.63 -8.08,4.22 -11.61,4.69 -6.41,0.88 -12.45,-0.25 -18.1,-3.31 -5.66,-3.05 -10.13,-6.98 -13.43,-11.77 -1.93,-2.92 -3.27,-6.33 -4.09,-10.22 -0.29,-1.19 -0.7,-2.96 -1.19,-5.25 -0.54,-2.28 -1,-4.34 -1.37,-6.23 -0.43,-1.88 -0.73,-3.61 -0.96,-5.29 -0.18,-1.32 -0.32,-3.25 -0.37,-5.77 -0.06,-1.35 -0.4,-4.3 -1.01,-8.75l-0.52 -3.87c-0.1,-0.7 -0.21,-1.57 -0.42,-2.66 -0.21,-1.09 -0.37,-1.83 -0.42,-2.23 -0.74,-5.44 -0.63,-9.81 0.28,-13.11 0.88,-2.65 2.83,-5.62 5.8,-8.91 2.91,-3.28 5.56,-5.4 7.92,-6.25zm85.07 11.71c2.84,-1.62 5.41,-2.62 7.67,-2.93 1.67,-0.22 3.01,-0.35 4.13,-0.32 7.97,-0.67 15.66,0.93 23.09,4.93 3.77,2.14 6.31,4.44 7.76,6.89 0.75,1.14 1.21,2.37 1.4,3.76 0.26,1.9 -0.08,3.77 -0.93,5.71 -0.71,1.75 -3.86,6.29 -9.4,13.58 -5.6,7.35 -9.1,11.48 -10.51,12.37 -2.06,1.28 -3.85,2 -5.35,2.2 -2.43,0.33 -4.67,-0.13 -6.78,-1.38 -1.95,-0.97 -3,-2.18 -3.18,-3.51 -0.14,-0.98 0.03,-1.94 0.41,-3 0.85,-2.88 3.81,-6.69 8.8,-11.55 5.32,-5.43 7.94,-8.67 7.79,-9.77 -0.18,-1.33 -1.69,-2.48 -4.58,-3.44 -2.89,-0.9 -6.12,-1.29 -9.69,-1.09l-2.25 0.3c-2.6,0.35 -4.33,1.06 -5.2,2.06 -0.92,1.01 -1.55,2.86 -1.89,5.55 -0.22,2.27 -0.06,5.6 0.52,9.94 0.43,3.12 0.99,5.57 1.66,7.42 2.25,5.76 6.17,9.53 11.71,11.31 2.04,0.72 5.06,0.84 9.18,0.4l3.06 -0.42c2.43,-0.33 4.66,-0.81 6.63,-1.49 4.66,-1.63 8.57,-3.63 11.84,-6.02 0.48,-0.35 1.33,-0.59 2.43,-0.74 1.73,-0.23 2.76,0.87 3.1,3.35 0.13,0.98 0.18,1.74 0.13,2.28 -0.21,3.62 -1.46,7.02 -3.78,10.28 -1.73,2.41 -3.23,3.97 -4.39,4.54 -1.91,1.08 -4.28,2.29 -6.98,3.6 -5.43,2.97 -10.71,4.8 -15.86,5.5 -2.6,0.35 -6.11,0.48 -10.54,0.37 -2.66,-0.05 -4.63,-0.31 -5.94,-0.84 -4.74,-1.54 -9.54,-4.77 -14.37,-9.59 -4.83,-4.82 -7.87,-9.88 -9.13,-15.24 -0.31,-0.96 -0.53,-2.16 -0.73,-3.67 -0.18,-1.33 -0.24,-3.49 -0.22,-6.38 0.06,-7.78 1.68,-14.53 4.97,-20.22 1.17,-2.21 3.32,-4.98 6.36,-8.16 3.05,-3.18 5.06,-4.81 6.16,-4.95 0.17,-0.03 1.1,-0.56 2.9,-1.63zm58.48 -56.73c0.81,-0.52 2.11,-0.94 4.02,-1.19 1.5,-0.21 2.64,-0.07 3.4,0.36 0.72,0.49 1.34,1.59 1.87,3.34 1.32,3.64 3.99,20.29 8.01,49.94l1.44 10.63c2.2,16.19 3.67,25.76 4.44,28.77 0.76,3.02 2.43,6.2 4.95,9.63 2.04,2.9 3.15,4.99 3.31,6.2 0.28,2.02 -0.08,3.72 -1.12,5.16 -1.04,1.49 -2.57,2.35 -4.47,2.61 -1.33,0.17 -3.76,-0.38 -7.24,-1.73 -3.53,-1.29 -6.19,-2.63 -8.09,-4.08 -3.52,-2.53 -6.52,-6.42 -9.05,-11.61 -2.11,-4.71 -3.63,-8.51 -4.44,-11.46 -0.81,-2.95 -1.79,-8.47 -2.9,-16.62 -1.29,-9.53 -2.36,-17.86 -3.17,-25.11l-3.38 -27.97 1.8 -3.6c3.13,-6.48 6.65,-10.91 10.62,-13.27zm37.53 -5.09c0.82,-0.52 2.11,-0.94 4.02,-1.2 1.5,-0.2 2.64,-0.06 3.41,0.37 0.71,0.49 1.33,1.58 1.86,3.34 1.32,3.64 3.99,20.29 8.01,49.94l1.45 10.63c2.19,16.18 3.67,25.76 4.43,28.77 0.76,3.02 2.43,6.2 4.95,9.63 2.04,2.9 3.15,4.99 3.32,6.2 0.27,2.02 -0.09,3.72 -1.13,5.15 -1.03,1.5 -2.56,2.36 -4.47,2.61 -1.33,0.18 -3.76,-0.37 -7.24,-1.72 -3.53,-1.29 -6.18,-2.64 -8.09,-4.09 -3.52,-2.52 -6.52,-6.41 -9.05,-11.6 -2.11,-4.71 -3.62,-8.51 -4.44,-11.46 -0.81,-2.95 -1.79,-8.47 -2.9,-16.62 -1.29,-9.53 -2.36,-17.86 -3.17,-25.11l-3.38 -27.97 1.81 -3.6c3.12,-6.49 6.64,-10.91 10.61,-13.27z"/>
    <path class="fil2" d="M2463.72 718.59c7.68,-22.22 21.77,-34.52 44.33,-33.87 22.25,0.63 34.43,15.07 43.71,32.27 13.18,24.42 13.89,50.87 6.24,76.55 -18.41,61.93 -56.1,112.05 -110.5,150.77 -2.43,1.72 -5.5,2.59 -10.79,5.01 12.47,-69.21 -10.4,-126.94 -47.96,-180.69 -7.27,-10.41 -11.15,-22.36 -12.91,-34.81 -2.81,-20.07 8.27,-40.28 25.29,-46.89 21.03,-8.16 36.13,-3.77 50.93,15.02 3.49,4.42 6.48,9.21 11.66,16.64z"/>
    <path class="fil2" d="M2123.9 289.48c5.53,-4.06 3.65,-8.95 4.46,-13 5.16,-25.76 15.46,-35.98 39.02,-37.98 18.39,-1.57 37.25,13.14 43.07,33.65 4.17,14.69 3,29.66 1.33,44.65 -6.48,58.52 2.23,113.34 39.53,161.19 -4.19,6.05 -9.77,2.39 -14.16,1.72 -59.78,-9.05 -110.91,-34.12 -153.64,-74.28 -16.1,-15.12 -26.36,-33.91 -31.38,-54.63 -5.44,-22.51 -4.51,-45.4 15.38,-62.84 19.1,-16.75 38.61,-9.73 56.39,1.52z"/>
    <path class="fil2" d="M2347.37 574.99c5.76,-48.11 -7.4,-91.26 -34.5,-130.77 -6.76,-9.86 -13.34,-20.05 -14.78,-32 -1.98,-16.49 1.69,-31.81 19.27,-39.75 17.94,-8.1 31.58,-1.14 41.96,13.14 1.81,2.48 3.55,5 5.04,7.08 5.41,0.92 5.75,-3.08 7.42,-5.36 15.36,-20.92 38.44,-22.91 55.93,-4.34 17.46,18.53 21.09,41.83 15.59,64.88 -12.9,54.07 -43.48,97.8 -93.12,128.64 -0.89,-0.58 -1.83,-1.08 -2.81,-1.52z"/>
    <path class="fil2" d="M2278.84 751.47c-52.72,-3.94 -94.15,-25.58 -120.76,-69.57 -7.44,-12.3 -8.14,-26.15 -3.14,-39.91 5.61,-15.42 18.66,-22.58 34.01,-16.81 9.57,3.6 13.37,4.31 14.86,-7.1 1.7,-13.01 11.15,-19.68 24.63,-20.29 13.93,-0.62 21.42,7.59 25.66,18.82 1.96,5.18 3.87,11.13 3.1,16.43 -6.08,42.16 -0.06,81.9 21.41,118.86l0.23 -0.43z"/>
   </g>
   <g>
    <path class="fil1" d="M1769.25 1494.95l0 -41.5 35.52 0 0 -15.76 -35.52 0 0 -32.07 40.91 0 0 -15.72 -59.64 0 0 105.05 18.73 0zm64.88 -42.27c0,-18.86 4.97,-27.86 17.25,-27.86 13.17,0 18.43,9.73 18.43,28.93 0,18.73 -4.33,27.86 -17.54,27.86 -13.04,0 -18.14,-9.89 -18.14,-28.93zm17.37 43.76c26.68,0 37.17,-17.84 37.17,-43.59 0,-25.78 -8.83,-42.86 -36.4,-42.86 -26.81,0 -37.17,17.84 -37.17,43.59 0,25.66 9,42.86 36.4,42.86zm98.51 -85.85c-1.79,-0.47 -4.63,-0.77 -7.48,-0.77 -10.49,0 -18.01,5.4 -21.45,12.75l-0.6 0 -3.91 -11.09 -14.23 0 0 83.47 18.27 0 0 -58.58c4.5,-5.39 12.45,-8.24 19.97,-8.24 2.97,0 6.41,0.3 9.43,0.89l0 -18.43zm86.64 63.55c-3.02,4.33 -8.88,7.94 -15.89,7.94 -7.22,0 -11.09,-4.37 -11.09,-10.07 0,-9.26 10.32,-13.17 26.98,-12.27l0 14.4zm-14.11 -64.02c-17.97,0 -26.08,10.49 -29.22,14.87l13.16 9.85c2.26,-4.46 6.93,-9.56 16.06,-9.56 8.41,0 14.11,3.15 14.11,14.07l0 7.51c-27.45,-1.06 -45.12,7.95 -45.12,26.81 0,11.68 8.54,22.77 24.43,22.77 12.87,0 19.16,-5.69 22.6,-10.03l0.64 0c2.37,5.4 7,9.43 15.12,9.43 2.84,0 5.82,-0.42 8.54,-2.08l0 -12.91 -2.25 0c-4.63,0 -6.59,-3.27 -6.59,-8.96l0 -35.09c0,-19.16 -11.38,-26.68 -31.48,-26.68zm51.69 -28.76l0 94.56c0,12.75 7.18,20.22 19.92,20.22 4.38,0 7.82,-0.72 10.67,-1.95l0 -14.83c-1.06,0.47 -2.42,0.77 -4.51,0.77 -4.92,0 -7.64,-2.42 -7.64,-9.01l0 -89.76 -18.44 0zm41.49 0l0 94.56c0,12.75 7.18,20.22 19.93,20.22 4.37,0 7.81,-0.72 10.66,-1.95l0 -14.83c-1.06,0.47 -2.42,0.77 -4.5,0.77 -4.93,0 -7.65,-2.42 -7.65,-9.01l0 -89.76 -18.44 0zm73.69 143.12c2.12,0.89 6.92,2.25 12.15,2.25 18.6,0 26.84,-11.98 31.77,-26.98l28.47 -88.27 -19.04 0 -9.72 33.13c-3.91,13.34 -5.87,22.48 -7.06,29.53l-0.59 0c-1.36,-7.22 -4.33,-18.14 -8.07,-29.53l-10.96 -33.13 -20.52 0 31.01 84.36c-1.95,10.07 -6.88,15 -15.72,15 -3.31,0 -6.45,-0.76 -8.71,-1.78l-3.01 15.42zm95.31 -71.8c0,-18.86 4.97,-27.86 17.25,-27.86 13.17,0 18.44,9.73 18.44,28.93 0,18.73 -4.33,27.86 -17.55,27.86 -13.04,0 -18.14,-9.89 -18.14,-28.93zm17.38 43.76c26.68,0 37.17,-17.84 37.17,-43.59 0,-25.78 -8.84,-42.86 -36.41,-42.86 -26.8,0 -37.17,17.84 -37.17,43.59 0,25.66 9.01,42.86 36.41,42.86zm50.37 -28.63c0.17,19.5 9.18,28.8 26.85,28.8 11.68,0 18.73,-4.8 22.64,-9.77l0.6 0 2.84 8.11 15.29 0 0 -83.47 -18.43 0 0 56.67c-0.89,6.58 -6.46,13.76 -16.95,13.76 -9.31,0 -14.23,-5.39 -14.23,-16.31l0 -54.12 -18.61 0 0 56.33zm134.02 -57.22c-1.79,-0.47 -4.63,-0.77 -7.48,-0.77 -10.49,0 -18.01,5.4 -21.45,12.75l-0.6 0 -3.9 -11.09 -14.24 0 0 83.47 18.27 0 0 -58.58c4.5,-5.39 12.45,-8.24 19.97,-8.24 2.97,0 6.41,0.3 9.43,0.89l0 -18.43zm47.94 84.36l18.43 0 0 -83.47 -18.43 0 0 83.47zm-2.38 -106.11c0,6.16 4.93,10.96 11.09,10.96 6.75,0 11.55,-4.8 11.55,-10.96 0,-6.72 -4.8,-11.69 -11.55,-11.69 -6.16,0 -11.09,4.97 -11.09,11.69zm108.23 48.42c-0.17,-18.73 -9.77,-27.74 -26.25,-27.74 -10.33,0 -18.87,5.27 -22.9,10.2l-0.64 0 -3.74 -8.24 -14.23 0 0 83.47 18.44 0 0 -57.86c2.68,-6.71 9.01,-11.68 16.95,-11.68 8.96,0 13.76,5.69 13.76,15.89l0 53.65 18.61 0 0 -57.69zm82.1 -21.58c-5.99,-3.01 -15.42,-4.97 -27.86,-4.97 -28.04,0 -41.08,19.33 -41.08,44.82 0,29.99 14.4,40.91 31.94,40.91 8.84,0 15.72,-2.97 18.57,-5.23l0.59 0 0 32.8 17.84 0 0 -108.33zm-29.65 10.03c4.93,0 8.54,0.59 11.69,1.78l0 47.96c-2.72,3.32 -8.12,5.57 -13.94,5.57 -10.07,0 -18.61,-4.97 -18.61,-26.68 0,-18.56 7.35,-28.63 20.86,-28.63zm47.19 42.1c0.17,19.5 9.17,28.8 26.85,28.8 11.68,0 18.73,-4.8 22.64,-9.77l0.59 0 2.85 8.11 15.29 0 0 -83.47 -18.43 0 0 56.67c-0.9,6.58 -6.46,13.76 -16.95,13.76 -9.31,0 -14.23,-5.39 -14.23,-16.31l0 -54.12 -18.61 0 0 56.33zm88.14 27.14l18.43 0 0 -83.47 -18.43 0 0 83.47zm-2.38 -106.11c0,6.16 4.92,10.96 11.08,10.96 6.76,0 11.56,-4.8 11.56,-10.96 0,-6.72 -4.8,-11.69 -11.56,-11.69 -6.16,0 -11.08,4.97 -11.08,11.69zm88.13 21.75c-1.78,-0.47 -4.63,-0.77 -7.47,-0.77 -10.5,0 -18.02,5.4 -21.46,12.75l-0.59 0 -3.91 -11.09 -14.23 0 0 83.47 18.27 0 0 -58.58c4.5,-5.39 12.44,-8.24 19.96,-8.24 2.98,0 6.42,0.3 9.43,0.89l0 -18.43zm9.59 84.36l18.44 0 0 -83.47 -18.44 0 0 83.47zm-2.38 -106.11c0,6.16 4.93,10.96 11.09,10.96 6.76,0 11.56,-4.8 11.56,-10.96 0,-6.72 -4.8,-11.69 -11.56,-11.69 -6.16,0 -11.09,4.97 -11.09,11.69zm95.49 85.59c-3.31,3.15 -9.9,7.01 -18.73,7.01 -15.17,0 -22.05,-7.47 -22.65,-23.36l51.11 0c0.76,-5.99 0.89,-10.49 0.89,-14.7 0,-20.22 -11.68,-33.39 -32.37,-33.39 -22,0 -37.77,14.66 -37.77,42.99 0,29.53 13.22,43.46 38.66,43.46 14.4,0 22.81,-3.87 28.93,-8.67l-8.07 -13.34zm-22.47 -50.08c10.62,0 15.55,6.16 15.55,17.54l0 3.32 -34.16 0c0.6,-13.64 8.24,-20.86 18.61,-20.86zm84.52 47.83c0,5.1 -3.73,9.26 -12.44,9.26 -9.9,0 -17.97,-5.22 -22.18,-9.85l-11.09 13.04c4.81,4.93 15.6,11.81 32.38,11.81 22.64,0 31.77,-14.06 31.77,-25.32 0,-28.04 -40.48,-22.47 -40.48,-37.3 0,-4.97 3.91,-8.71 11.38,-8.71 7.22,0 13.21,3.74 16.65,7.48l11.86 -11.98c-5.4,-5.99 -14.83,-10.62 -28.04,-10.62 -19.03,0 -30.12,11.81 -30.12,24.85 0,28.04 40.31,22.64 40.31,37.34zm31.05 47.5c11.98,-4.04 24.25,-16.49 24.25,-31.91 0,-9.6 -5.52,-16.05 -13.93,-16.05 -7.01,0 -11.81,5.26 -11.81,11.38l0 1.83c5.82,2.25 9.73,5.22 9.73,11.08 0,6.12 -5.4,11.39 -13.93,15.13l5.69 8.54zm140.84 -104c-5.99,-3.01 -15.42,-4.97 -27.86,-4.97 -28.04,0 -41.08,19.33 -41.08,44.82 0,29.99 14.4,40.91 31.94,40.91 8.84,0 15.72,-2.97 18.57,-5.23l0.59 0 0 32.8 17.84 0 0 -108.33zm-29.65 10.03c4.93,0 8.54,0.59 11.68,1.78l0 47.96c-2.71,3.32 -8.11,5.57 -13.93,5.57 -10.07,0 -18.61,-4.97 -18.61,-26.68 0,-18.56 7.35,-28.63 20.86,-28.63zm47.19 42.1c0.17,19.5 9.17,28.8 26.84,28.8 11.69,0 18.74,-4.8 22.65,-9.77l0.59 0 2.85 8.11 15.29 0 0 -83.47 -18.44 0 0 56.67c-0.89,6.58 -6.45,13.76 -16.95,13.76 -9.3,0 -14.23,-5.39 -14.23,-16.31l0 -54.12 -18.6 0 0 56.33zm141.36 6.62c-3.31,3.15 -9.9,7.01 -18.73,7.01 -15.17,0 -22.05,-7.47 -22.64,-23.36l51.1 0c0.77,-5.99 0.89,-10.49 0.89,-14.7 0,-20.22 -11.68,-33.39 -32.37,-33.39 -22,0 -37.76,14.66 -37.76,42.99 0,29.53 13.21,43.46 38.65,43.46 14.41,0 22.82,-3.87 28.93,-8.67l-8.07 -13.34zm-22.47 -50.08c10.62,0 15.55,6.16 15.55,17.54l0 3.32 -34.16 0c0.6,-13.64 8.25,-20.86 18.61,-20.86zm95.02 -13.76c-1.78,-0.47 -4.63,-0.77 -7.48,-0.77 -10.49,0 -18.01,5.4 -21.45,12.75l-0.59 0 -3.91 -11.09 -14.23 0 0 83.47 18.26 0 0 -58.58c4.51,-5.39 12.45,-8.24 19.97,-8.24 2.97,0 6.41,0.3 9.43,0.89l0 -18.43zm9.59 84.36l18.44 0 0 -83.47 -18.44 0 0 83.47zm-2.38 -106.11c0,6.16 4.93,10.96 11.09,10.96 6.75,0 11.55,-4.8 11.55,-10.96 0,-6.72 -4.8,-11.69 -11.55,-11.69 -6.16,0 -11.09,4.97 -11.09,11.69zm95.49 85.59c-3.32,3.15 -9.9,7.01 -18.74,7.01 -15.16,0 -22.04,-7.47 -22.64,-23.36l51.11 0c0.76,-5.99 0.89,-10.49 0.89,-14.7 0,-20.22 -11.68,-33.39 -32.37,-33.39 -22.01,0 -37.77,14.66 -37.77,42.99 0,29.53 13.21,43.46 38.66,43.46 14.4,0 22.81,-3.87 28.93,-8.67l-8.07 -13.34zm-22.48 -50.08c10.63,0 15.55,6.16 15.55,17.54l0 3.32 -34.15 0c0.59,-13.64 8.24,-20.86 18.6,-20.86zm84.53 47.83c0,5.1 -3.74,9.26 -12.45,9.26 -9.89,0 -17.96,-5.22 -22.17,-9.85l-11.09 13.04c4.8,4.93 15.59,11.81 32.37,11.81 22.65,0 31.78,-14.06 31.78,-25.32 0,-28.04 -40.49,-22.47 -40.49,-37.3 0,-4.97 3.91,-8.71 11.39,-8.71 7.22,0 13.21,3.74 16.65,7.48l11.85 -11.98c-5.39,-5.99 -14.82,-10.62 -28.03,-10.62 -19.04,0 -30.12,11.81 -30.12,24.85 0,28.04 40.31,22.64 40.31,37.34z"/>
    <path class="fil1" d="M2245.55 1626.1c-3.02,4.33 -8.88,7.94 -15.89,7.94 -7.22,0 -11.08,-4.37 -11.08,-10.07 0,-9.26 10.32,-13.16 26.97,-12.27l0 14.4zm-14.1 -64.02c-17.97,0 -26.09,10.49 -29.23,14.87l13.17 9.85c2.25,-4.46 6.92,-9.55 16.06,-9.55 8.41,0 14.1,3.14 14.1,14.06l0 7.52c-27.44,-1.07 -45.11,7.94 -45.11,26.8 0,11.68 8.54,22.77 24.42,22.77 12.87,0 19.16,-5.69 22.6,-10.02l0.64 0c2.38,5.39 7.01,9.43 15.12,9.43 2.85,0 5.82,-0.43 8.54,-2.09l0 -12.91 -2.25 0c-4.63,0 -6.58,-3.27 -6.58,-8.96l0 -35.09c0,-19.16 -11.39,-26.68 -31.48,-26.68zm119.15 27.15c-0.17,-18.74 -9.78,-27.74 -26.26,-27.74 -10.32,0 -18.86,5.26 -22.89,10.19l-0.64 0 -3.74 -8.24 -14.23 0 0 83.47 18.44 0 0 -57.86c2.67,-6.71 9,-11.68 16.95,-11.68 8.96,0 13.76,5.69 13.76,15.89l0 53.65 18.61 0 0 -57.68zm64.43 -24.43c-3.14,-0.77 -6.93,-1.66 -13.64,-1.66 -19.79,0 -37.64,12.75 -37.64,46.18 0,27.27 12.62,39.08 30.59,39.08 11.09,0 18.27,-5.52 20.99,-8.96l0.59 0 3.14 7.47 14.24 0 0 -113.59 -18.27 0 0 31.48zm-15.46 68.6c-9.56,0 -17.08,-7 -17.08,-25.91 0,-22.77 8.54,-29.05 21.28,-29.05 3.91,0 9.13,1.01 11.68,2.54l0 42.99c-3.27,5.7 -8.37,9.43 -15.88,9.43zm85.7 -27.27c0,30.16 13.64,42.27 35.39,42.27 16.48,0 24.13,-6.29 28.33,-11.68l-11.72 -11.22c-2.55,3.74 -7.31,7.48 -14.96,7.48 -11.72,0 -18.13,-8.54 -18.13,-28.46 0,-20.1 7.17,-27.15 18.26,-27.15 8.41,0 12.92,4.97 14.83,7.48l12.45 -12.11c-4.64,-5.99 -13.64,-10.79 -26.98,-10.79 -21.88,0 -37.47,14.23 -37.47,44.18zm87.68 -1.48c0,-18.87 4.97,-27.87 17.25,-27.87 13.17,0 18.44,9.73 18.44,28.93 0,18.73 -4.33,27.87 -17.55,27.87 -13.04,0 -18.14,-9.9 -18.14,-28.93zm17.38 43.75c26.68,0 37.17,-17.84 37.17,-43.58 0,-25.79 -8.84,-42.87 -36.41,-42.87 -26.8,0 -37.17,17.84 -37.17,43.59 0,25.66 9.01,42.86 36.41,42.86zm113.33 -74.77l-0.6 0c-3.01,-6.58 -8.71,-11.98 -21.28,-11.98 -10.03,0 -17.84,4.51 -21.88,10.03l-0.59 0 -3.32 -8.24 -14.82 0 0 83.47 18.43 0 0 -57.86c1.96,-6.11 7.78,-11.68 15.13,-11.68 8.83,0 13.51,5.69 13.51,16.78l0 52.76 18.56 0 0 -58.45c2.25,-6.12 8.41,-11.09 15.76,-11.09 7.48,0 12.87,4.51 12.87,15.3l0 54.24 18.44 0 0 -57.56c0,-18.73 -9.3,-27.7 -25.62,-27.7 -12.32,0 -20.68,5.7 -24.59,11.98zm137.71 28.04c0,-26.38 -12.41,-39.72 -31.01,-39.72 -10.5,0 -17.08,4.8 -20.52,8.97l-0.59 0 -3.91 -7.48 -13.64 0 0 112.53 18.27 0 0 -30.12c4.08,0.89 8.41,1.36 13.04,1.36 21.45,0 38.36,-15.29 38.36,-45.54zm-51.53 28l0 -44.18c2.68,-4.51 7.77,-8.41 14.83,-8.41 9.6,0 17.84,7.17 17.84,26.38 0,20.51 -7.65,28.46 -21.41,28.46 -2.72,0 -7.95,-0.6 -11.26,-2.25zm65.5 -96.35l0 94.56c0,12.75 7.17,20.22 19.92,20.22 4.37,0 7.82,-0.72 10.66,-1.95l0 -14.83c-1.06,0.47 -2.42,0.77 -4.5,0.77 -4.93,0 -7.65,-2.42 -7.65,-9.01l0 -89.76 -18.43 0zm81.68 92.78c-3.02,4.33 -8.88,7.94 -15.89,7.94 -7.22,0 -11.09,-4.37 -11.09,-10.07 0,-9.26 10.32,-13.16 26.98,-12.27l0 14.4zm-14.11 -64.02c-17.97,0 -26.08,10.49 -29.23,14.87l13.17 9.85c2.26,-4.46 6.93,-9.55 16.06,-9.55 8.41,0 14.11,3.14 14.11,14.06l0 7.52c-27.45,-1.07 -45.12,7.94 -45.12,26.8 0,11.68 8.54,22.77 24.43,22.77 12.87,0 19.16,-5.69 22.6,-10.02l0.63 0c2.38,5.39 7.01,9.43 15.13,9.43 2.84,0 5.82,-0.43 8.54,-2.09l0 -12.91 -2.26 0c-4.63,0 -6.58,-3.27 -6.58,-8.96l0 -35.09c0,-19.16 -11.38,-26.68 -31.48,-26.68zm53.18 84.83l18.43 0 0 -83.47 -18.43 0 0 83.47zm-2.38 -106.11c0,6.16 4.93,10.96 11.09,10.96 6.75,0 11.55,-4.8 11.55,-10.96 0,-6.71 -4.8,-11.68 -11.55,-11.68 -6.16,0 -11.09,4.97 -11.09,11.68zm108.23 48.43c-0.17,-18.74 -9.77,-27.74 -26.26,-27.74 -10.32,0 -18.86,5.26 -22.89,10.19l-0.64 0 -3.74 -8.24 -14.23 0 0 83.47 18.44 0 0 -57.86c2.67,-6.71 9,-11.68 16.95,-11.68 8.96,0 13.76,5.69 13.76,15.89l0 53.65 18.61 0 0 -57.68zm43.15 58.45c12.45,0 18.56,-2.72 21.58,-4.67l-4.97 -14.07c-2.85,2.09 -7.01,3.45 -11.81,3.45 -6.16,0 -10.07,-3.32 -10.07,-10.5l0 -44.22 21.75 0 0 -14.23 -21.75 0 0 -21.41 -11.98 0 -6.16 20.35 -11.38 3.78 0 11.51 11.38 0 0 44.22c0,18.57 9.31,25.79 23.41,25.79zm66.68 -23.54c0,5.1 -3.74,9.26 -12.44,9.26 -9.9,0 -17.97,-5.22 -22.18,-9.85l-11.09 13.04c4.8,4.93 15.59,11.81 32.37,11.81 22.65,0 31.78,-14.06 31.78,-25.32 0,-28.04 -40.48,-22.47 -40.48,-37.3 0,-4.97 3.9,-8.7 11.38,-8.7 7.22,0 13.21,3.73 16.65,7.47l11.86 -11.98c-5.4,-5.99 -14.83,-10.62 -28.04,-10.62 -19.03,0 -30.12,11.81 -30.12,24.85 0,28.04 40.31,22.65 40.31,37.34zm28.2 11.22c0,6.92 5.52,12.45 12.57,12.45 7.23,0 12.75,-5.53 12.75,-12.45 0,-7.35 -5.52,-12.87 -12.75,-12.87 -7.05,0 -12.57,5.52 -12.57,12.87z"/>
    <polygon class="fil3" points="3340.43,2115.83 2102.38,2115.83 2102.38,1828.49 3340.43,1828.49 "/>
    <path class="fil1" d="M2326.35 1976.46c0,31.78 12.45,53.06 43.5,53.06 16.91,0 26.98,-5.82 31.61,-10.92l-10.37 -13.34c-3.44,3.74 -9.26,7.95 -19.45,7.95 -17.38,0 -26.09,-13.81 -26.09,-38.07 0,-25.78 8.71,-37.47 24.43,-37.47 11.09,0 16.48,4.64 20.22,8.54l12.15 -13.8c-3.02,-2.98 -11.98,-10.79 -30.88,-10.79 -29.65,0 -45.12,21.28 -45.12,54.84zm101.64 -1.61c0,-28.64 9.14,-37.47 22.64,-37.47 14.53,0 23.67,9.9 23.67,38.66 0,28.46 -8.71,37.59 -22.65,37.59 -14.52,0 -23.66,-9.9 -23.66,-38.78zm65.8 0.12c0,-38.95 -16.35,-53.48 -41.97,-53.48 -25.48,0 -43.03,16.18 -43.03,54.67 0,39 15.89,53.36 41.67,53.36 25.49,0 43.33,-16.19 43.33,-54.55zm34.32 -28.76c3.02,8.08 9.6,21.71 13.21,28.93l27.87 52.89 22.94 0 0 -105.05 -17.72 0 0 44.22c0,7.77 0,25.32 0.77,35.64l-0.77 0c-2.67,-7.35 -10.19,-21.88 -13.76,-28.93l-26.68 -50.93 -23.4 0 0 105.05 17.84 0 0 -48.55c0,-12.75 -0.3,-25.92 -1.02,-33.27l0.72 0zm100.71 81.82l18.86 0 0 -89.34 26.68 0 0 -15.71 -72.39 0 0 15.71 26.85 0 0 89.34zm75.64 -65.33c2.72,-9.31 5.86,-20.52 7.22,-26.85l0.6 0c1.19,6.62 4.33,17.12 7.18,27.27l6.58 22.52 -28.46 0 6.88 -22.94zm-5.82 -39.72l-32.54 105.05 18.91 0 7.94 -26.68 37.77 0 7.94 26.68 19.62 0 -32.66 -105.05 -26.98 0zm62.16 53.48c0,31.78 12.45,53.06 43.5,53.06 16.91,0 26.97,-5.82 31.61,-10.92l-10.37 -13.34c-3.44,3.74 -9.26,7.95 -19.46,7.95 -17.37,0 -26.08,-13.81 -26.08,-38.07 0,-25.78 8.71,-37.47 24.43,-37.47 11.08,0 16.48,4.64 20.22,8.54l12.15 -13.8c-3.02,-2.98 -11.98,-10.79 -30.89,-10.79 -29.65,0 -45.11,21.28 -45.11,54.84zm103.3 51.57l18.86 0 0 -89.34 26.68 0 0 -15.71 -72.39 0 0 15.71 26.85 0 0 89.34zm133.5 -14.53c-14.36,0 -21.41,-8.24 -21.41,-24.72l0 -65.8 -18.74 0 0 69.24c0,22 11.86,37.3 37.77,37.3 23.24,0 41.04,-11.51 41.04,-41.04l0 -65.5 -18.74 0 0 68.05c0,16.19 -7.3,22.47 -19.92,22.47zm88.56 0c-12.74,0 -21.58,-7.05 -26.51,-11.68l-10.79 15.42c4.51,4.5 16.49,12.28 35.05,12.28 25.02,0 37.94,-14.53 37.94,-30.25 0,-33.13 -48.86,-29.52 -48.86,-49.32 0,-6.88 5.23,-12.15 14.66,-12.15 10.19,0 16.35,5.27 19.96,8.84l11.52 -14.06c-4.34,-4.68 -14.66,-11.09 -29.95,-11.09 -20.69,0 -35.39,13.04 -35.39,29.95 0,33.13 49.02,29.69 49.02,49.02 0,7.18 -5.56,13.04 -16.65,13.04z"/>
   </g>
   <path class="fil4" d="M1276.89 892.25c-40.36,-0.51 -74.19,-36.58 -73.26,-78.09 0.88,-38.81 38.63,-75.14 77.34,-74.41 36.57,0.69 75.08,38.64 76.02,74.89 1.04,40.63 -37.68,78.16 -80.1,77.61zm-167.19 554.91c11.79,570.89 -474.12,1092.26 -1109.7,1068.39l0 -2137.94c24.59,-1.03 49.42,-1.36 74.53,-0.8 562.4,12.67 1042.01,479.51 1035.17,1070.35zm376.61 217.23c-0.15,47.96 -24.13,69.42 -70.69,72.99 -43.05,3.3 -74.74,-35.87 -77.02,-74 -2.35,-39.45 34.91,-75.35 76.36,-74.75 34.05,0.49 77.59,23.63 71.35,75.76zm-459.98 691.95c45.76,0.19 73.17,26.69 73.2,70.79 0.04,42.67 -32.7,77.07 -73.53,77.26 -40.84,0.19 -74.75,-34.36 -74.52,-75.91 0.27,-46.16 27.43,-72.33 74.85,-72.14zm-769.84 534.88c-34.45,6.8 -71.91,-34.08 -72.08,-75.52 -0.17,-41.33 35.82,-73.22 78.96,-72.43 40.58,0.75 77.05,35.76 73.04,74.73 -4.63,44.95 -28.67,75.35 -79.92,73.22zm491.33 -206.1c0.04,44.19 -36.35,77.22 -84.38,76.6 -31.72,-0.41 -63.39,-39.78 -63.42,-78.84 -0.03,-44.02 30.73,-74.8 74.45,-74.49 42.16,0.31 73.31,32.89 73.35,76.73zm533.34 -680.49c46.94,0.15 70.47,24.64 70.26,73.13 -0.2,47.6 -27.49,75.48 -73.31,74.9 -40.79,-0.51 -73.43,-33.42 -74.87,-73.36 -1.47,-40.77 38.09,-82.07 77.92,-74.67zm-329.81 -1540.08c-1.5,-44.06 25.85,-71.81 70.49,-75.9 43.65,-3.99 77.52,31.12 77.53,75.1 0.01,42.3 -33.05,77.96 -73.69,76.55 -37.67,-1.3 -81.19,-33.54 -74.33,-75.75zm460.38 838.15c-38.06,-0.08 -73.13,-33.86 -73.41,-70.7 -0.35,-43.14 33.57,-77.04 76.82,-77.31 46.87,-0.29 75.87,34.65 75.01,74.66 -0.88,41.23 -24.48,75.16 -78.42,73.35zm-1150.74 -1154.73c-41.73,7.32 -73.64,-33.32 -76.36,-70.37 -3.12,-42.59 32.84,-77.52 75.96,-77.6 43.1,-0.08 78.95,34.41 76.37,77.21 -2.22,36.59 -34.46,78.11 -75.97,70.76zm417.38 -1.44c47.49,0.23 75.64,27.31 75.28,72.41 -0.35,42.13 -33.87,76.34 -74.81,75.47 -37.91,-0.79 -77.44,-26.23 -73.82,-80.76 2.86,-43.13 26.94,-67.34 73.35,-67.12z"/>
  </g>
 </g>
</svg>
