<?xml version="1.0" encoding="UTF-8"?>
<!DOCTYPE svg PUBLIC "-//W3C//DTD SVG 1.1//EN" "http://www.w3.org/Graphics/SVG/1.1/DTD/svg11.dtd">
<!-- Creator: CorelDRAW 2021.5 -->
<svg xmlns="http://www.w3.org/2000/svg" xml:space="preserve" width="373px" height="31px" version="1.1" style="shape-rendering:geometricPrecision; text-rendering:geometricPrecision; image-rendering:optimizeQuality; fill-rule:evenodd; clip-rule:evenodd"
viewBox="0 0 221.85 18.41"
 xmlns:xlink="http://www.w3.org/1999/xlink"
 xmlns:xodm="http://www.corel.com/coreldraw/odm/2003">
 <defs>
  <style type="text/css">
   <![CDATA[
    .fil0 {fill:#010954;fill-rule:nonzero}
   ]]>
  </style>
 </defs>
 <g id="Layer_x0020_1">
  <metadata id="CorelCorpID_0Corel-Layer"/>
  <path class="fil0" d="M206.35 0.55c1.41,0 1.96,-0.02 2.5,0 3.23,0.12 7.69,-1.44 9.39,0.22 2.28,2.23 2.53,5.47 3.52,8.3 0.54,1.57 -1.33,1.32 -2.59,1.38 -6.55,0.31 -13.1,0.63 -19.66,0.88 -38.81,1.51 -77.63,3 -116.44,4.51 -4.79,0.18 -9.56,0.29 -14.34,-0.25 -5.66,-0.65 -11.12,0.7 -16.67,1.13 -16.31,1.25 -32.63,1.95 -49.05,1.59 -1.86,-0.04 -2.53,-0.37 -2.68,-1.75 -0.83,-7.5 -0.87,-7.36 9.73,-8.15 37.99,-2.83 76.14,-4.01 114.29,-5.14 27.63,-0.82 55.24,-1.83 82,-2.72z"/>
 </g>
</svg>
