<?xml version="1.0" encoding="UTF-8"?>
<!DOCTYPE svg PUBLIC "-//W3C//DTD SVG 1.1//EN" "http://www.w3.org/Graphics/SVG/1.1/DTD/svg11.dtd">
<!-- Creator: CorelDRAW 2021.5 -->
<svg xmlns="http://www.w3.org/2000/svg" xml:space="preserve" width="153px" height="159px" version="1.1" style="shape-rendering:geometricPrecision; text-rendering:geometricPrecision; image-rendering:optimizeQuality; fill-rule:evenodd; clip-rule:evenodd"
viewBox="0 0 34.06 35.32"
 xmlns:xlink="http://www.w3.org/1999/xlink"
 xmlns:xodm="http://www.corel.com/coreldraw/odm/2003">
 <defs>
  <style type="text/css">
   <![CDATA[
    .fil0 {fill:#69FFD6;fill-rule:nonzero}
    .fil1 {fill:#EA148F;fill-rule:nonzero}
    .fil2 {fill:#FFED00;fill-rule:nonzero}
   ]]>
  </style>
 </defs>
 <g id="Layer_x0020_1">
  <metadata id="CorelCorpID_0Corel-Layer"/>
  <path class="fil0" d="M12.6 14.12c-0.92,-0.25 -1.79,-0.64 -2.63,-1.09 -0.27,-0.15 -0.56,-0.29 -0.77,-0.49 -1.52,-1.43 -2.47,-3.1 -2.62,-5.26 -0.26,-3.67 2.82,-6.37 5.22,-7.15 0.08,-0.02 0.15,-0.05 0.22,-0.06 1.52,-0.08 3.06,-0.22 4.48,0.45 1.82,0.85 3.07,2.27 3.77,4.15 0.45,1.21 0.57,2.47 0.33,3.74 -0.14,0.81 -0.53,1.52 -0.95,2.21 -1.08,1.76 -2.63,2.8 -4.66,3.16 -0.31,0.06 -0.59,0.22 -0.89,0.33l-1.5 0.01z"/>
  <path class="fil0" d="M27.77 35.06l-27.72 0.26 -0.05 -5.09c-0.07,-7.65 6.07,-13.92 13.73,-13.99 7.65,-0.07 13.92,6.08 13.99,13.73l0.05 5.09z"/>
  <path class="fil1" d="M32.84 19.92c0,0 0,0.02 0,0.02 -0.19,0.18 -0.31,0.39 -0.42,0.62 -0.06,0.01 -0.08,0.06 -0.08,0.11 -0.03,0.01 -0.04,0.02 -0.04,0.04 -0.08,0.04 -0.12,0.1 -0.14,0.19 -0.03,0.04 -0.07,0.08 -0.1,0.12 -0.27,0.29 -0.54,0.58 -0.87,0.93 0.31,-0.02 0.51,-0.02 0.69,-0.15 0.02,0 0.05,-0.01 0.07,-0.01 0.16,0 0.3,-0.05 0.42,-0.14 0.04,0.02 0.07,0 0.1,-0.03 0.12,-0.01 0.23,-0.05 0.32,-0.13l0.01 0c0.08,-0.01 0.15,-0.04 0.2,-0.11l0 0c0.04,0.01 0.07,-0.01 0.09,-0.05l-0.01 0.01c0.04,0 0.07,-0.01 0.09,-0.05l0 0c0.07,0 0.12,-0.02 0.16,-0.09l0.01 -0.01c0,0 -0.01,0.02 -0.01,0.02 0.55,-0.1 0.72,0.05 0.73,0.62 0,0.11 0,0.22 0.01,0.32 -0.01,0.04 -0.01,0.09 -0.01,0.13 -0.21,1.27 -0.72,2.4 -1.5,3.41 -0.99,1.28 -2.28,2.06 -3.85,2.37 -1.11,0.22 -2.22,0.39 -3.33,0.59 -0.02,0 -0.04,0 -0.06,0.01 -1.03,0.25 -1.26,0.81 -0.69,1.71 0.04,0.07 0.09,0.14 0.14,0.22 0.14,0.2 0.2,0.42 0.02,0.63 -0.19,0.2 -0.41,0.22 -0.66,0.11 -0.55,-0.26 -1.1,-0.54 -1.63,-0.85 -0.95,-0.56 -1.85,-1.2 -2.66,-1.96 -0.05,-0.04 -0.11,-0.07 -0.16,-0.11 0,0 -0.01,0.01 -0.01,0.01 -0.02,-0.09 -0.08,-0.14 -0.16,-0.17l0 0c-0.01,-0.06 -0.04,-0.09 -0.1,-0.11 0,0 0,0.01 0,0.01 -0.02,-0.03 -0.04,-0.05 -0.07,-0.08l0.01 0.01c-0.01,-0.07 -0.06,-0.1 -0.11,-0.11l0 0c-0.26,-0.3 -0.52,-0.61 -0.78,-0.92 0,0 -0.01,-0.01 -0.01,-0.01 0,-0.04 -0.02,-0.06 -0.06,-0.07l0 0.01c0.02,-0.05 0,-0.07 -0.05,-0.08l0 -0.01c-0.23,-0.36 -0.46,-0.73 -0.69,-1.09l0 -0.01c0,-0.07 -0.02,-0.12 -0.09,-0.15l0 -0.01c-0.15,-0.37 -0.29,-0.74 -0.44,-1.1 0.01,-0.05 0.01,-0.09 -0.04,-0.12 -0.02,-0.18 -0.06,-0.36 -0.15,-0.52l0.01 0c-0.02,-0.13 -0.03,-0.26 -0.05,-0.39 -0.15,-0.79 -0.13,-1.58 0.02,-2.37 0.15,-0.8 0.48,-1.52 0.84,-2.23 0,0 0,-0.02 -0.01,-0.02 0.18,-0.14 0.29,-0.31 0.37,-0.51 0.04,-0.01 0.06,-0.03 0.04,-0.07 0.14,-0.08 0.23,-0.21 0.3,-0.35l0 0c0.02,-0.03 0.04,-0.05 0.07,-0.08l-0.01 0.01c0.35,-0.35 0.7,-0.7 1.05,-1.04 0,0 0,-0.01 0,-0.01 0.11,-0.03 0.19,-0.1 0.25,-0.2 0,0 0.01,0 0,0 0.13,-0.03 0.22,-0.1 0.28,-0.21l0.03 -0.01 0.01 -0.02c0.25,-0.14 0.5,-0.28 0.71,-0.49l-0.01 0c0.07,-0.01 0.13,-0.03 0.16,-0.09l0.01 0 1.17 -0.65c0,0 0.01,0 0.01,0 0.09,0.01 0.16,-0.03 0.21,-0.1l0 0c0.37,-0.11 0.72,-0.29 1.06,-0.47l0.01 0c0.06,0.01 0.1,-0.01 0.13,-0.06l0 0c0.49,-0.17 0.98,-0.34 1.43,-0.58l0.01 0c1.27,-0.45 2.5,-0.94 3.35,-2.06 0.51,-0.66 0.83,-1.38 0.65,-2.24 -0.03,-0.16 -0.09,-0.32 -0.15,-0.47 -0.1,-0.22 -0.09,-0.44 0.1,-0.6 0.19,-0.17 0.41,-0.11 0.6,0.03 0.52,0.37 1.03,0.77 1.5,1.22 0.03,0.03 0.08,0.06 0.12,0.09l0.01 0c0.01,0.06 0.05,0.09 0.11,0.11l0.01 -0.02 -0.02 0.01 0.97 1.1 0 -0.01c-0.01,0.04 0.02,0.07 0.06,0.08l-0.01 0c0.2,0.29 0.4,0.59 0.6,0.88l0.01 0.01c0.01,0.15 0.09,0.26 0.18,0.37l0 0c0.44,0.94 0.77,1.9 0.84,2.94 0.1,1.52 -0.21,2.95 -1,4.26 -0.05,0.08 -0.08,0.18 -0.12,0.27z"/>
  <path class="fil2" d="M18.39 26.98c0,0 0,0 0,-0.01 0,0 0,0 0,0l0 0.01z"/>
  <path class="fil2" d="M19.12 17.27c-0.2,0.21 -0.41,0.41 -0.61,0.61l0.01 -0.01c-0.03,0.03 -0.05,0.05 -0.07,0.08l0 0c-0.07,0.14 -0.16,0.27 -0.3,0.35 0.02,0.04 0,0.06 -0.04,0.07 -0.09,0.2 -0.19,0.37 -0.37,0.51 0.01,0 0.01,0.02 0.01,0.02 -0.36,0.71 -0.69,1.43 -0.84,2.23 -0.15,0.79 -0.17,1.58 -0.02,2.37 0.02,0.13 0.03,0.26 0.05,0.39l-0.01 0c0.09,0.16 0.13,0.34 0.15,0.52 0.05,0.03 0.05,0.07 0.04,0.12 0.15,0.36 0.29,0.73 0.44,1.1 0,0 0,0.01 0,0.01 0.07,0.03 0.1,0.08 0.09,0.16l0 0c0.23,0.36 0.46,0.73 0.69,1.09 0,0 0,0.01 0,0.01 0.04,0.01 0.06,0.03 0.05,0.07 0.04,0.01 0.06,0.03 0.06,0.07 0,0 0.01,0.01 0.01,0.01 0.26,0.31 0.52,0.62 0.78,0.92l0 0c0.05,0.01 0.1,0.04 0.11,0.11l-0.01 -0.01c0.03,0.03 0.05,0.05 0.07,0.08 0,0 0,-0.01 0,-0.01 0.06,0.02 0.09,0.05 0.1,0.11l0 0c0.08,0.02 0.14,0.08 0.16,0.17 0,0 0.01,-0.01 0.01,-0.01 0.05,0.04 0.11,0.07 0.16,0.11 0.81,0.76 1.71,1.4 2.66,1.96 0.53,0.31 1.08,0.59 1.63,0.85 0.25,0.11 0.47,0.09 0.66,-0.11 0.18,-0.21 0.13,-0.43 -0.02,-0.63 -0.05,-0.08 -0.1,-0.15 -0.14,-0.22 -0.57,-0.9 -0.34,-1.46 0.69,-1.71 0.02,-0.01 0.04,-0.01 0.06,-0.01 0.74,-0.13 1.48,-0.26 2.22,-0.39 -0.67,-4.99 -3.98,-9.14 -8.48,-10.99z"/>
  <path class="fil1" d="M24.78 24.68c-0.33,0.58 -0.79,1.06 -1.27,1.52 -0.4,0.38 -0.82,0.74 -1.22,1.11 -0.06,0.05 -0.1,0.08 -0.17,0.02 -0.74,-0.62 -1.52,-1.2 -2.16,-1.93 -0.34,-0.39 -0.63,-0.8 -0.75,-1.32 -0.16,-0.75 0.19,-1.5 0.87,-1.81 0.69,-0.32 1.47,-0.11 1.93,0.51 0.08,0.1 0.1,0.09 0.17,0 0.39,-0.56 0.93,-0.81 1.61,-0.68 0.65,0.12 1.06,0.54 1.23,1.19 0.03,0.11 0.03,0.23 0.05,0.35 0,0.37 -0.11,0.72 -0.29,1.04z"/>
 </g>
</svg>
