<?xml version="1.0" encoding="UTF-8"?>
<!DOCTYPE svg PUBLIC "-//W3C//DTD SVG 1.1//EN" "http://www.w3.org/Graphics/SVG/1.1/DTD/svg11.dtd">
<!-- Creator: CorelDRAW 2021.5 -->
<svg xmlns="http://www.w3.org/2000/svg" xml:space="preserve" width="112px" height="156px" version="1.1" style="shape-rendering:geometricPrecision; text-rendering:geometricPrecision; image-rendering:optimizeQuality; fill-rule:evenodd; clip-rule:evenodd"
viewBox="0 0 18.91 26.31"
 xmlns:xlink="http://www.w3.org/1999/xlink"
 xmlns:xodm="http://www.corel.com/coreldraw/odm/2003">
 <defs>
  <style type="text/css">
   <![CDATA[
    .fil1 {fill:#69FFD6;fill-rule:nonzero}
    .fil0 {fill:#EA148F;fill-rule:nonzero}
    .fil2 {fill:#FFED00;fill-rule:nonzero}
   ]]>
  </style>
 </defs>
 <g id="Layer_x0020_1">
  <metadata id="CorelCorpID_0Corel-Layer"/>
  <path class="fil0" d="M17.79 7.22l0 0.02c-0.1,0.14 -0.15,0.3 -0.2,0.46 -0.04,0.02 -0.05,0.05 -0.04,0.09 -0.02,0.01 -0.02,0.02 -0.02,0.03 -0.05,0.04 -0.07,0.09 -0.07,0.14 -0.02,0.04 -0.04,0.07 -0.05,0.1 -0.15,0.23 -0.29,0.46 -0.46,0.74 0.2,-0.06 0.34,-0.08 0.44,-0.19 0.01,-0.01 0.03,-0.01 0.04,-0.02 0.11,-0.02 0.2,-0.07 0.27,-0.15 0.03,0.02 0.05,0 0.06,-0.03 0.08,-0.02 0.15,-0.06 0.2,-0.13l0 0c0.06,-0.02 0.1,-0.04 0.13,-0.1 0,0 -0.01,0 -0.01,0 0.04,0 0.05,-0.02 0.06,-0.04 0,0 -0.01,0 -0.01,0 0.03,0 0.05,-0.01 0.06,-0.04 0,0 0,0 0,0 0.04,-0.01 0.08,-0.03 0.09,-0.08l0.01 -0.01c0,0 -0.01,0.01 -0.01,0.01 0.36,-0.13 0.49,-0.06 0.57,0.33 0.02,0.07 0.04,0.14 0.05,0.21 0,0.03 0.01,0.06 0.01,0.09 0.03,0.88 -0.17,1.7 -0.56,2.49 -0.49,0.98 -1.26,1.67 -2.28,2.09 -0.71,0.29 -1.44,0.55 -2.16,0.82 -0.01,0.01 -0.02,0.01 -0.04,0.02 -0.65,0.3 -0.73,0.71 -0.24,1.24 0.04,0.04 0.08,0.08 0.13,0.12 0.12,0.12 0.19,0.26 0.09,0.43 -0.1,0.16 -0.25,0.2 -0.43,0.15 -0.4,-0.1 -0.81,-0.21 -1.2,-0.35 -0.71,-0.26 -1.4,-0.56 -2.04,-0.97 -0.04,-0.02 -0.09,-0.04 -0.13,-0.05l0 0c-0.03,-0.06 -0.07,-0.08 -0.13,-0.09l0 0c-0.01,-0.04 -0.04,-0.06 -0.08,-0.06 0,0 0,0 0,0 -0.02,-0.01 -0.04,-0.03 -0.06,-0.04l0.01 0c-0.02,-0.04 -0.05,-0.05 -0.09,-0.05 0,0 0,0 0,0 -0.21,-0.17 -0.43,-0.35 -0.64,-0.52 0,0 -0.01,0 -0.01,0 0,-0.03 -0.02,-0.05 -0.05,-0.04l0 0c0.01,-0.03 -0.01,-0.05 -0.04,-0.05l0 0c-0.2,-0.22 -0.41,-0.43 -0.61,-0.65 0,0 0,0 0,0 -0.01,-0.05 -0.03,-0.08 -0.08,-0.09 0,0 0,-0.01 0,-0.01 -0.15,-0.23 -0.29,-0.45 -0.44,-0.68 0,-0.03 -0.01,-0.06 -0.04,-0.07 -0.04,-0.12 -0.09,-0.24 -0.17,-0.33l0 0c-0.02,-0.09 -0.05,-0.17 -0.08,-0.26 -0.2,-0.51 -0.29,-1.04 -0.3,-1.6 0,-0.55 0.13,-1.08 0.28,-1.6 0,0 -0.01,-0.02 -0.01,-0.02 0.1,-0.11 0.15,-0.24 0.19,-0.38 0.02,-0.02 0.03,-0.04 0.01,-0.06 0.09,-0.07 0.13,-0.16 0.16,-0.27 0,0 0,0 0,0 0.01,-0.02 0.02,-0.04 0.03,-0.06l0 0c0.19,-0.28 0.38,-0.55 0.57,-0.83 0,0 0,-0.01 0,-0.01 0.07,-0.03 0.11,-0.09 0.14,-0.16 0,0 0,-0.01 0,-0.01 0.08,-0.03 0.13,-0.09 0.16,-0.17l0.02 -0.01 0 -0.02c0.15,-0.12 0.3,-0.25 0.41,-0.42l0 0c0.04,-0.01 0.08,-0.04 0.1,-0.08l0 0c0.23,-0.2 0.47,-0.39 0.7,-0.59 0,0 0.01,0 0.01,0 0.06,-0.01 0.1,-0.04 0.12,-0.1l0.01 0c0.23,-0.12 0.44,-0.28 0.65,-0.45l0.01 0c0.04,0 0.06,-0.02 0.07,-0.06 0,0 0.01,0 0.01,0 0.3,-0.17 0.61,-0.35 0.88,-0.58l0.01 0c0.79,-0.46 1.55,-0.95 1.98,-1.81 0.25,-0.51 0.38,-1.04 0.14,-1.59 -0.04,-0.11 -0.1,-0.2 -0.16,-0.3 -0.09,-0.14 -0.11,-0.28 -0.01,-0.41 0.11,-0.14 0.26,-0.13 0.41,-0.06 0.4,0.18 0.79,0.38 1.16,0.62 0.03,0.02 0.07,0.03 0.1,0.05l0 0c0.02,0.04 0.05,0.05 0.09,0.05l0.01 -0.01 -0.01 0.01c0.26,0.21 0.52,0.41 0.79,0.61 0,0 -0.01,0 -0.01,0 0.01,0.03 0.03,0.04 0.06,0.05l-0.01 -0.01c0.17,0.17 0.35,0.35 0.52,0.52l0 0c0.03,0.1 0.1,0.17 0.18,0.23l0 0c0.41,0.57 0.76,1.18 0.94,1.86 0.27,1.01 0.24,2.01 -0.12,3 -0.02,0.06 -0.03,0.13 -0.04,0.19z"/>
  <path class="fil1" d="M9.17 9.8c-4.01,0.03 -7.25,3.32 -7.22,7.33 0.04,4.01 3.33,7.25 7.34,7.22 4.01,-0.04 7.25,-3.33 7.21,-7.33 -0.03,-4.01 -3.33,-7.26 -7.33,-7.22zm-0.05 -4.87c0.69,-0.01 1.39,-0.01 2.08,-0.02 0.14,0 0.2,0.03 0.2,0.18 0,0.54 0,1.07 0.02,1.6 0,0.14 -0.05,0.18 -0.19,0.18 -0.31,-0.01 -0.63,0.01 -0.95,0 -0.13,0 -0.18,0.05 -0.17,0.17 0.01,0.22 0.02,0.43 0,0.64 -0.01,0.17 0.07,0.22 0.23,0.24 1.7,0.2 3.25,0.8 4.57,1.89 3.02,2.5 4.19,5.71 3.24,9.5 -0.94,3.79 -3.49,6.11 -7.32,6.84 -5.11,0.97 -9.97,-2.59 -10.73,-7.75 -0.75,-5.05 2.8,-9.78 7.84,-10.46 0.17,-0.02 0.25,-0.07 0.23,-0.26 -0.02,-0.2 -0.01,-0.4 -0.01,-0.61 0.01,-0.14 -0.05,-0.18 -0.18,-0.18 -0.31,0.01 -0.62,0.01 -0.93,0.02 -0.15,0 -0.2,-0.04 -0.2,-0.19 0,-0.52 0,-1.05 -0.02,-1.57 0,-0.17 0.06,-0.2 0.21,-0.2 0.69,0 1.39,-0.01 2.08,-0.02z"/>
  <path class="fil1" d="M8.6 14.47c-0.01,-0.99 -0.02,-1.98 -0.04,-2.96 0,-0.2 0.06,-0.25 0.25,-0.25 0.24,0.02 0.49,0.02 0.73,0 0.2,-0.02 0.25,0.04 0.25,0.24 0.01,1.54 0.02,3.08 0.04,4.62 0,0.37 -0.05,0.34 0.32,0.33 1.32,-0.01 2.63,-0.02 3.94,-0.04 0.2,0 0.26,0.05 0.25,0.24 -0.01,0.25 -0.01,0.51 0.01,0.76 0.01,0.17 -0.03,0.23 -0.21,0.23 -1.77,0.01 -3.54,0.02 -5.31,0.05 -0.17,0 -0.21,-0.05 -0.21,-0.21 0,-1 -0.01,-2.01 -0.02,-3.01z"/>
  <path class="fil2" d="M14.91 9.81c-1.32,-1.09 -2.87,-1.69 -4.57,-1.89 -0.16,-0.02 -0.24,-0.07 -0.23,-0.24 0.02,-0.21 0.01,-0.42 0,-0.64 -0.01,-0.12 0.04,-0.17 0.17,-0.17 0.32,0.01 0.64,-0.01 0.95,0 0.14,0 0.19,-0.04 0.19,-0.18 -0.02,-0.53 -0.02,-1.06 -0.02,-1.6 0,-0.15 -0.06,-0.18 -0.2,-0.18 -0.16,0 -0.32,0 -0.48,0 -0.18,0.15 -0.37,0.29 -0.58,0.4l-0.01 0c-0.02,0.06 -0.06,0.09 -0.12,0.1 0,0 -0.01,0 -0.01,0 -0.23,0.2 -0.47,0.4 -0.7,0.59l0 0c-0.02,0.04 -0.06,0.07 -0.1,0.08l0 0c-0.11,0.17 -0.26,0.29 -0.41,0.42l0 0.02 -0.02 0.01c-0.03,0.08 -0.08,0.14 -0.16,0.17 0,0 0,0.01 0,0.01 -0.03,0.07 -0.07,0.13 -0.14,0.16 0,0 0,0.01 0,0.01 -0.11,0.15 -0.21,0.3 -0.31,0.45 0,0.12 0,0.24 0.01,0.35 0.02,0.19 -0.06,0.24 -0.23,0.26 -0.05,0.01 -0.11,0.02 -0.16,0.02 -0.02,0.03 -0.04,0.06 -0.07,0.08 0.02,0.02 0.01,0.04 -0.01,0.06 -0.04,0.14 -0.09,0.27 -0.19,0.38 0,0 0.01,0.02 0.01,0.02 -0.15,0.51 -0.27,1.03 -0.27,1.57 0.61,-0.17 1.26,-0.27 1.92,-0.27 2.71,-0.03 5.09,1.45 6.36,3.64 0.18,-0.07 0.36,-0.14 0.54,-0.21 0.45,-0.19 0.86,-0.43 1.21,-0.72 -0.58,-0.98 -1.38,-1.88 -2.37,-2.7z"/>
  <path class="fil2" d="M8.6 14.47c-0.01,-0.99 -0.02,-1.98 -0.04,-2.96 0,-0.2 0.06,-0.25 0.25,-0.25 0.24,0.02 0.49,0.02 0.73,0 0.2,-0.02 0.25,0.04 0.25,0.24 0.01,1.54 0.02,3.08 0.04,4.62 0,0.37 -0.05,0.34 0.32,0.33 1.32,-0.01 2.63,-0.02 3.94,-0.04 0.2,0 0.26,0.05 0.25,0.24 -0.01,0.25 -0.01,0.51 0.01,0.76 0.01,0.17 -0.03,0.23 -0.21,0.23 -1.77,0.01 -3.54,0.02 -5.31,0.05 -0.17,0 -0.21,-0.05 -0.21,-0.21 0,-1 -0.01,-2.01 -0.02,-3.01z"/>
  <path class="fil2" d="M0.09 18.4c0.76,5.16 5.62,8.72 10.73,7.75l-1.54 -1.8c-4.01,0.03 -7.3,-3.21 -7.33,-7.22l-1.86 1.27z"/>
 </g>
</svg>
