<?xml version="1.0" encoding="UTF-8"?>
<!DOCTYPE svg PUBLIC "-//W3C//DTD SVG 1.1//EN" "http://www.w3.org/Graphics/SVG/1.1/DTD/svg11.dtd">
<!-- Creator: CorelDRAW 2021.5 -->
<svg xmlns="http://www.w3.org/2000/svg" xml:space="preserve" width="174px" height="173px" version="1.1" style="shape-rendering:geometricPrecision; text-rendering:geometricPrecision; image-rendering:optimizeQuality; fill-rule:evenodd; clip-rule:evenodd"
viewBox="0 0 15.66 15.54"
 xmlns:xlink="http://www.w3.org/1999/xlink"
 xmlns:xodm="http://www.corel.com/coreldraw/odm/2003">
 <defs>
  <style type="text/css">
   <![CDATA[
    .fil1 {fill:#69FFD6;fill-rule:nonzero}
    .fil0 {fill:#EA148F;fill-rule:nonzero}
    .fil2 {fill:#FFED00;fill-rule:nonzero}
   ]]>
  </style>
 </defs>
 <g id="Layer_x0020_1">
  <metadata id="CorelCorpID_0Corel-Layer"/>
  <path class="fil0" d="M14.88 4.98l0 0.01c-0.07,0.1 -0.11,0.21 -0.14,0.32 -0.03,0.01 -0.03,0.03 -0.03,0.06 -0.01,0 -0.01,0.01 -0.01,0.02 -0.04,0.03 -0.05,0.06 -0.05,0.1 -0.01,0.02 -0.02,0.05 -0.03,0.07 -0.1,0.16 -0.2,0.31 -0.32,0.5 0.14,-0.03 0.23,-0.05 0.3,-0.13l0.03 -0.01c0.08,-0.01 0.14,-0.05 0.19,-0.1 0.02,0.01 0.03,0 0.04,-0.02 0.05,-0.02 0.1,-0.04 0.13,-0.09l0.01 0c0.04,-0.01 0.07,-0.03 0.09,-0.07l-0.01 0c0.02,0 0.03,-0.01 0.04,-0.03 0,0 0,0 -0.01,0 0.03,0 0.04,-0.01 0.04,-0.03l0 0c0.04,0 0.06,-0.02 0.07,-0.05l0 -0.01c0,0 0,0.01 0,0.01 0.25,-0.09 0.34,-0.04 0.39,0.22 0.01,0.05 0.03,0.1 0.04,0.15 0,0.02 0,0.04 0,0.06 0.02,0.61 -0.11,1.18 -0.38,1.72 -0.35,0.68 -0.87,1.15 -1.57,1.44 -0.5,0.2 -1,0.38 -1.49,0.57 -0.01,0 -0.02,0 -0.03,0.01 -0.45,0.21 -0.51,0.49 -0.17,0.85 0.03,0.03 0.06,0.06 0.09,0.09 0.08,0.08 0.13,0.18 0.06,0.29 -0.06,0.11 -0.17,0.14 -0.29,0.11 -0.28,-0.07 -0.56,-0.15 -0.83,-0.25 -0.49,-0.17 -0.97,-0.38 -1.41,-0.66 -0.02,-0.02 -0.05,-0.03 -0.08,-0.04 0,0 -0.01,0 -0.01,0 -0.01,-0.04 -0.05,-0.06 -0.09,-0.06l0 0c0,-0.03 -0.03,-0.04 -0.05,-0.04l0 0c-0.01,-0.01 -0.03,-0.02 -0.04,-0.03l0 0c-0.01,-0.03 -0.03,-0.04 -0.06,-0.04l0.01 0.01c-0.15,-0.12 -0.3,-0.24 -0.45,-0.36 0,0 -0.01,0 -0.01,0 0,-0.02 -0.01,-0.03 -0.03,-0.03l0 0c0,-0.02 -0.01,-0.03 -0.03,-0.03 0,0 0,-0.01 0,-0.01 -0.14,-0.14 -0.28,-0.29 -0.42,-0.44 0,0 0,0 0,0 0,-0.03 -0.02,-0.06 -0.05,-0.06l0 -0.01c-0.1,-0.16 -0.21,-0.31 -0.31,-0.47 0,-0.02 0,-0.04 -0.02,-0.05 -0.03,-0.08 -0.06,-0.16 -0.12,-0.23l0 0c-0.02,-0.06 -0.03,-0.12 -0.05,-0.17 -0.14,-0.36 -0.21,-0.72 -0.21,-1.11 0,-0.38 0.09,-0.74 0.19,-1.1 0,0 0,-0.01 0,-0.01 0.06,-0.08 0.1,-0.17 0.12,-0.27 0.02,-0.01 0.02,-0.02 0.01,-0.04 0.06,-0.05 0.09,-0.11 0.11,-0.18l0 -0.01 0.02 -0.04 0 0.01c0.13,-0.2 0.26,-0.39 0.39,-0.58 0,0 0,0 0,0 0.05,-0.02 0.08,-0.07 0.1,-0.12l0 0c0.06,-0.02 0.09,-0.07 0.11,-0.12l0.01 0 0.01 -0.02c0.1,-0.09 0.2,-0.17 0.28,-0.29l0 0c0.03,-0.01 0.05,-0.02 0.07,-0.05l0 0c0.16,-0.14 0.32,-0.27 0.48,-0.41 0,0 0.01,0 0.01,0 0.04,-0.01 0.07,-0.03 0.08,-0.07l0 0c0.17,-0.08 0.31,-0.19 0.45,-0.31l0.01 0c0.03,0 0.04,-0.01 0.05,-0.04 0,0 0.01,0 0.01,0 0.21,-0.12 0.42,-0.24 0.6,-0.4l0.01 0c0.54,-0.32 1.07,-0.66 1.36,-1.25 0.18,-0.35 0.27,-0.71 0.1,-1.1 -0.02,-0.07 -0.06,-0.14 -0.11,-0.2 -0.06,-0.09 -0.08,-0.19 -0.01,-0.29 0.08,-0.09 0.19,-0.08 0.29,-0.04 0.27,0.13 0.54,0.27 0.8,0.43 0.02,0.02 0.04,0.02 0.07,0.04 0,0 0,0 0,-0.01 0.01,0.03 0.03,0.04 0.06,0.04l0 0 0 0 0.54 0.42 0 0c0,0.02 0.01,0.03 0.03,0.03l0 0c0.12,0.12 0.24,0.24 0.36,0.36l0 0c0.02,0.07 0.07,0.11 0.12,0.15l0 0.01c0.29,0.39 0.53,0.81 0.65,1.28 0.18,0.7 0.17,1.38 -0.08,2.06 -0.02,0.05 -0.02,0.09 -0.03,0.14z"/>
  <path class="fil1" d="M11.16 6.46c0.02,-0.11 0.02,-0.2 0.04,-0.28 0.04,-0.15 0,-0.19 -0.16,-0.17 -0.85,0.08 -1.7,0.16 -2.55,0.24 -1.23,0.12 -2.47,0.24 -3.7,0.36 -0.12,0.01 -0.16,0.04 -0.17,0.16 -0.02,0.18 -0.04,0.37 -0.08,0.55 -0.02,0.14 0,0.18 0.15,0.17 1.99,-0.2 3.98,-0.39 5.97,-0.58 0.14,-0.01 0.31,0.02 0.41,-0.06 0.12,-0.08 0.05,-0.27 0.09,-0.39zm-0.87 6.51c0.02,-0.14 0.04,-0.26 0.05,-0.37 0.22,-1.6 0.43,-3.21 0.65,-4.8 0.02,-0.15 -0.01,-0.18 -0.16,-0.17 -2.08,0.21 -4.17,0.41 -6.25,0.6 -0.12,0.01 -0.16,0.05 -0.18,0.18 -0.24,1.84 -0.5,3.68 -0.73,5.53 -0.09,0.72 -0.46,1.17 -1.11,1.42 -0.71,0.28 -1.42,0.26 -2.06,-0.21 -0.57,-0.41 -0.66,-1.12 -0.23,-1.67 0.46,-0.59 1.1,-0.79 1.82,-0.76 0.41,0.01 0.79,0.14 1.11,0.41 0.02,0.01 0.04,0.03 0.07,0.04 0.04,-0.06 0.03,-0.12 0.04,-0.18 0.36,-2.68 0.72,-5.37 1.08,-8.05 0.04,-0.34 -0.03,-0.28 0.31,-0.31 2.36,-0.23 4.72,-0.46 7.09,-0.68 0.19,-0.02 0.19,-0.02 0.16,0.17 -0.43,3.24 -0.86,6.47 -1.29,9.7 -0.06,0.46 -0.26,0.82 -0.62,1.07 -0.74,0.5 -1.52,0.59 -2.32,0.18 -0.46,-0.22 -0.73,-0.6 -0.7,-1.13 0.02,-0.42 0.25,-0.73 0.56,-0.99 0.73,-0.57 1.95,-0.62 2.65,-0.02 0.01,0.01 0.03,0.02 0.06,0.04z"/>
  <path class="fil2" d="M11.04 10.86c0.3,-2.23 0.6,-4.45 0.89,-6.68 0.03,-0.19 0.03,-0.19 -0.16,-0.17 -0.95,0.09 -1.9,0.18 -2.85,0.27 -0.07,0.1 -0.17,0.18 -0.26,0.26l0 0.01 -0.02 0.01c-0.02,0.05 -0.05,0.1 -0.1,0.12 0,0 -0.01,0 -0.01,0 -0.01,0.05 -0.04,0.1 -0.09,0.12l-0.01 0c-0.13,0.19 -0.26,0.38 -0.39,0.58l0.01 -0.01c-0.01,0.02 -0.02,0.03 -0.03,0.04 0,0 0,0.01 0,0.01 -0.02,0.07 -0.05,0.13 -0.11,0.18 0.02,0.02 0.01,0.03 -0.01,0.04 -0.02,0.1 -0.05,0.19 -0.12,0.27 0,0 0,0.01 0,0.01 -0.04,0.15 -0.08,0.31 -0.12,0.47 0.27,-0.02 0.54,-0.05 0.81,-0.08 0.85,-0.08 1.7,-0.16 2.56,-0.24 0.15,-0.02 0.19,0.02 0.15,0.17 -0.02,0.08 -0.02,0.17 -0.04,0.28 -0.03,0.12 0.03,0.31 -0.09,0.39 -0.1,0.08 -0.27,0.05 -0.41,0.06 -1.01,0.1 -2.03,0.19 -3.04,0.29 0.02,0.25 0.07,0.49 0.15,0.73 1.02,-0.1 2.04,-0.2 3.07,-0.3 0.14,-0.01 0.17,0.02 0.15,0.16 -0.13,0.95 -0.26,1.89 -0.38,2.83 0.14,0.06 0.29,0.12 0.43,0.17 0.01,0 0.02,0.01 0.02,0.01z"/>
 </g>
</svg>
