<?xml version="1.0" encoding="UTF-8"?>
<!DOCTYPE svg PUBLIC "-//W3C//DTD SVG 1.1//EN" "http://www.w3.org/Graphics/SVG/1.1/DTD/svg11.dtd">
<!-- Creator: CorelDRAW 2021.5 -->
<svg xmlns="http://www.w3.org/2000/svg" xml:space="preserve" width="159px" height="130px" version="1.1" style="shape-rendering:geometricPrecision; text-rendering:geometricPrecision; image-rendering:optimizeQuality; fill-rule:evenodd; clip-rule:evenodd"
viewBox="0 0 12.52 10.27"
 xmlns:xlink="http://www.w3.org/1999/xlink"
 xmlns:xodm="http://www.corel.com/coreldraw/odm/2003">
 <defs>
  <style type="text/css">
   <![CDATA[
    .fil1 {fill:#69FFD6;fill-rule:nonzero}
    .fil0 {fill:#EA148F;fill-rule:nonzero}
    .fil3 {fill:#FDFDFD;fill-rule:nonzero}
    .fil2 {fill:#FFED00;fill-rule:nonzero}
   ]]>
  </style>
 </defs>
 <g id="Layer_x0020_1">
  <metadata id="CorelCorpID_0Corel-Layer"/>
  <path class="fil0" d="M6.61 10.27c-0.67,-0.19 -1.3,-0.47 -1.91,-0.8 -0.2,-0.11 -0.41,-0.2 -0.57,-0.35 -1.1,-1.04 -1.79,-2.26 -1.9,-3.83 -0.18,-2.67 2.05,-4.63 3.8,-5.19 0.05,-0.02 0.11,-0.04 0.16,-0.05 1.11,-0.06 2.22,-0.16 3.26,0.33 1.32,0.62 2.23,1.65 2.74,3.02 0.32,0.88 0.41,1.79 0.24,2.72 -0.11,0.58 -0.39,1.1 -0.7,1.6 -0.78,1.28 -1.91,2.04 -3.38,2.3 -0.22,0.04 -0.43,0.16 -0.65,0.24l-1.09 0.01z"/>
  <path class="fil1" d="M11.94 7.37c-0.08,0.21 -0.2,0.4 -0.33,0.59 -0.02,0.03 -0.04,0.06 -0.05,0.1 -0.07,0.05 -0.1,0.12 -0.14,0.19 -0.04,0.01 -0.03,0.04 -0.05,0.07l0 0c-0.09,0.07 -0.16,0.15 -0.22,0.25 -0.01,0 -0.01,0 -0.02,0.01 -0.03,0.01 -0.03,0.03 -0.04,0.06 -0.02,0.02 -0.06,0.03 -0.07,0.06 -0.04,0.02 -0.07,0.05 -0.08,0.09 -0.03,0.03 -0.06,0.05 -0.09,0.07 -0.09,0.08 -0.19,0.16 -0.26,0.25l0 0c-0.15,0.08 -0.26,0.19 -0.4,0.28 -0.17,0.11 -0.34,0.22 -0.52,0.31 -0.01,0.01 -0.02,0.02 -0.04,0.03 0,0 -0.01,0 -0.01,0 -0.05,0.03 -0.11,0.05 -0.16,0.07 -0.04,0.02 -0.07,0.03 -0.1,0.06 -0.06,0 -0.11,0.04 -0.16,0.05 -0.06,0.01 -0.12,0.03 -0.17,0.07 -0.04,0 -0.07,0.01 -0.09,0.04 -0.02,0 -0.03,0 -0.05,0 -0.07,0.05 -0.16,0.03 -0.23,0.07 -0.1,0.01 -0.2,0.05 -0.29,0.08 -0.11,-0.02 -0.22,0.02 -0.32,0.04 -0.29,0.05 -0.59,0.04 -0.89,0.05 -0.03,0 -0.06,0 -0.09,0.01 -0.01,-0.01 -0.02,-0.01 -0.03,-0.01 -0.03,-0.02 -0.06,-0.01 -0.09,-0.01 -0.06,-0.03 -0.13,-0.01 -0.19,-0.02 -0.05,-0.02 -0.04,-0.07 -0.04,-0.11 0,-0.35 -0.01,-0.7 -0.01,-1.05 -0.01,-0.87 -0.02,-1.75 -0.02,-2.62 0,-0.04 -0.02,-0.08 0.03,-0.1 0.03,0 0.05,0 0.07,0 0.01,0 0.03,0 0.04,0 0.01,0 0.02,0 0.03,0 0.03,0 0.05,0 0.07,0 1.12,-0.01 2.24,-0.03 3.36,-0.04l0.03 0c0.02,0 0.05,0 0.07,0 0.08,0.01 0.17,0.02 0.25,-0.01 0.01,0.01 0.03,0.01 0.04,0.02 0.05,0.04 0.09,0.09 0.14,0.13 0.19,0.15 0.39,0.3 0.57,0.46 0.18,0.16 0.37,0.31 0.55,0.46z"/>
  <path class="fil1" d="M4.24 1.06c0.14,0.08 0.26,0.18 0.39,0.27 0.29,0.19 0.56,0.39 0.84,0.59 0.23,0.17 0.47,0.33 0.7,0.51 0.02,0.01 0.03,0.02 0.05,0.03 0.09,0.06 0.12,0.13 0.06,0.22 -0.1,0.15 -0.2,0.31 -0.32,0.44 -0.06,0.07 -0.12,0.08 -0.19,0.03 -0.12,-0.08 -0.23,-0.16 -0.35,-0.25 -0.02,-0.01 -0.04,-0.03 -0.06,-0.02 -0.03,0.02 -0.02,0.04 -0.01,0.06 0.02,0.3 0.04,0.59 -0.01,0.87 -0.03,0.13 -0.04,0.25 -0.18,0.31 -0.07,0.03 -0.17,-0.01 -0.21,-0.08 -0.09,-0.2 -0.11,-0.42 -0.12,-0.64 -0.02,-0.14 -0.02,-0.28 -0.03,-0.42 0,-0.06 -0.01,-0.09 -0.08,-0.06 -0.1,0.03 -0.17,0.09 -0.22,0.18 -0.12,0.18 -0.24,0.35 -0.37,0.52 -0.06,0.09 -0.13,0.18 -0.18,0.27 -0.06,0.13 -0.04,0.26 0.01,0.39 0.07,0.16 0.13,0.32 0.2,0.48 0.13,0.31 0.07,0.6 -0.09,0.89 -0.25,0.45 -0.51,0.9 -0.77,1.34 -0.07,0.11 -0.14,0.22 -0.21,0.32 -0.08,0.11 -0.18,0.17 -0.29,0.23 -0.07,0.02 -0.13,0.07 -0.2,0.06 -0.02,0 -0.03,0.02 -0.03,0.03 0,0 -0.01,0 -0.01,0 -0.11,0.02 -0.21,-0.01 -0.31,-0.02 -0.06,0 -0.12,-0.03 -0.17,-0.07 -0.29,-0.21 -0.58,-0.44 -0.89,-0.64 -0.25,-0.17 -0.48,-0.36 -0.73,-0.52 -0.12,-0.08 -0.24,-0.17 -0.33,-0.3 -0.18,-0.32 -0.2,-0.68 0.08,-0.98 0.12,-0.13 0.25,-0.25 0.37,-0.38 0.03,-0.02 0.05,-0.05 0.07,-0.07 0.04,-0.04 0.08,-0.08 0.12,-0.12 0.14,-0.09 0.24,-0.22 0.36,-0.33 0.14,-0.12 0.27,-0.25 0.4,-0.38 0.04,-0.04 0.1,-0.08 0.12,-0.14 0.1,-0.03 0.15,-0.12 0.22,-0.18 0.04,-0.01 0.06,-0.04 0.09,-0.06 0.18,-0.21 0.39,-0.38 0.59,-0.56 0.07,-0.06 0.13,-0.12 0.18,-0.2 0.01,-0.01 0.03,-0.01 0.04,-0.03 0.07,-0.09 0.15,-0.19 0.21,-0.29 0.05,-0.08 0.12,-0.15 0.18,-0.23 0.02,-0.03 0.05,-0.07 0,-0.1 -0.1,-0.06 -0.18,-0.15 -0.29,-0.2 -0.01,-0.01 -0.02,-0.01 -0.03,-0.02 -0.01,0 -0.01,-0.01 -0.02,-0.01 -0.04,-0.02 -0.06,-0.06 -0.11,-0.08 -0.03,-0.04 -0.07,-0.08 -0.1,-0.11 0,-0.02 0,-0.03 0,-0.04 0.02,-0.02 0.04,-0.05 0.07,-0.06 0.12,-0.05 0.24,-0.09 0.36,-0.14 0.16,-0.03 0.3,-0.1 0.45,-0.16 0.2,-0.06 0.39,-0.12 0.58,-0.18 0.06,-0.02 0.1,-0.02 0.15,0.01 0.01,0.01 0.02,0.01 0.02,0.02z"/>
  <path class="fil2" d="M4.65 9.47c-0.01,-0.99 -0.01,-1.98 -0.02,-2.97 0,-0.13 0,-0.13 0.12,-0.13 0.63,0 1.27,-0.01 1.9,-0.01 0,0.02 0,0.04 0,0.06 0.02,1.2 0.03,2.39 0.04,3.59 0,0.06 0.02,0.13 -0.01,0.17 -0.04,0.05 -0.11,-0.01 -0.16,-0.01 -0.26,-0.03 -0.51,-0.11 -0.77,-0.18 -0.17,-0.04 -0.33,-0.15 -0.51,-0.17 0,-0.01 -0.01,-0.01 -0.01,-0.01 -0.03,-0.04 -0.05,-0.06 -0.1,-0.05l-0.03 0c-0.02,-0.04 -0.05,-0.05 -0.08,-0.07 -0.12,-0.07 -0.26,-0.12 -0.37,-0.22z"/>
  <path class="fil2" d="M10.68 6.32c0.55,-0.01 1.09,-0.01 1.64,-0.02 0,0.09 -0.03,0.16 -0.06,0.24 -0.01,0.03 -0.02,0.06 -0.01,0.09 -0.09,0.25 -0.18,0.48 -0.28,0.72 -0.01,0 -0.02,0.01 -0.03,0.02 -0.18,-0.15 -0.37,-0.3 -0.55,-0.46 -0.18,-0.16 -0.38,-0.31 -0.57,-0.46 -0.05,-0.04 -0.09,-0.09 -0.14,-0.13z"/>
  <path class="fil3" d="M6.72 6.35c-0.03,-0.02 -0.04,-0.05 -0.04,-0.08 0,-1.06 -0.01,-2.12 -0.02,-3.18 0,-0.03 -0.01,-0.06 0.03,-0.07 0.29,0.24 0.58,0.48 0.87,0.72 0.55,0.46 1.11,0.92 1.67,1.39 0.46,0.38 0.92,0.77 1.38,1.15 -0.07,0.05 -0.15,0 -0.22,0.03l-0.07 0c-0.01,-0.01 -0.02,-0.01 -0.03,0 -1.12,0.01 -2.24,0.03 -3.36,0.04 -0.02,-0.02 -0.04,-0.02 -0.07,0 -0.01,0 -0.02,0 -0.03,0 -0.01,-0.01 -0.03,-0.01 -0.04,0 -0.02,0 -0.04,0 -0.07,0z"/>
 </g>
</svg>
