<?xml version="1.0" encoding="UTF-8"?>
<!DOCTYPE svg PUBLIC "-//W3C//DTD SVG 1.1//EN" "http://www.w3.org/Graphics/SVG/1.1/DTD/svg11.dtd">
<!-- Creator: CorelDRAW 2021.5 -->
<svg xmlns="http://www.w3.org/2000/svg" xml:space="preserve" width="116px" height="117px" version="1.1" style="shape-rendering:geometricPrecision; text-rendering:geometricPrecision; image-rendering:optimizeQuality; fill-rule:evenodd; clip-rule:evenodd"
viewBox="0 0 6.97 7.01"
 xmlns:xlink="http://www.w3.org/1999/xlink"
 xmlns:xodm="http://www.corel.com/coreldraw/odm/2003">
 <defs>
  <style type="text/css">
   <![CDATA[
    .fil0 {fill:#69FFD6;fill-rule:nonzero}
    .fil1 {fill:#EA148F;fill-rule:nonzero}
    .fil2 {fill:#FFED00;fill-rule:nonzero}
   ]]>
  </style>
 </defs>
 <g id="Layer_x0020_1">
  <metadata id="CorelCorpID_0Corel-Layer"/>
  <path class="fil0" d="M1.37 3.53c0,1.17 0.96,2.09 2.1,2.1 1.22,0.01 2.12,-0.98 2.15,-2.07 0.02,-1.26 -0.98,-2.2 -2.16,-2.19 -1.17,0.02 -2.11,0.99 -2.09,2.16zm4.68 -0.05c0.04,1.38 -1.12,2.65 -2.66,2.59 -1.31,-0.05 -2.46,-1.11 -2.47,-2.57 0,-1.39 1.12,-2.58 2.62,-2.56 1.35,0.01 2.51,1.12 2.51,2.54z"/>
  <path class="fil1" d="M3.46 0.68c-1.58,0.03 -2.79,1.29 -2.79,2.82 -0.01,1.57 1.25,2.83 2.82,2.82 1.58,0 2.81,-1.27 2.82,-2.81 0,-1.57 -1.26,-2.83 -2.85,-2.83zm-2.8 4.65c0,-0.05 0,-0.1 0,-0.16 -0.01,-0.13 -0.06,-0.24 -0.15,-0.33 -0.08,-0.07 -0.16,-0.13 -0.23,-0.2 -0.07,-0.06 -0.14,-0.11 -0.19,-0.19 -0.07,-0.09 -0.08,-0.2 -0.04,-0.31 0.03,-0.09 0.07,-0.18 0.12,-0.27 0.01,-0.03 0.02,-0.06 0.03,-0.08 0.06,-0.12 0.05,-0.24 0.01,-0.35 -0.04,-0.12 -0.1,-0.23 -0.14,-0.34 -0.03,-0.06 -0.04,-0.11 -0.06,-0.16 -0.03,-0.13 0,-0.24 0.1,-0.34 0.07,-0.07 0.16,-0.14 0.25,-0.21 0.03,-0.02 0.06,-0.05 0.09,-0.08 0.09,-0.09 0.11,-0.21 0.12,-0.33 0.01,-0.13 0,-0.25 0.02,-0.38 0,-0.04 0.01,-0.08 0.02,-0.12 0.03,-0.11 0.1,-0.19 0.21,-0.23 0.08,-0.03 0.17,-0.05 0.26,-0.07 0.03,0 0.06,-0.01 0.09,-0.02 0.16,-0.03 0.28,-0.12 0.35,-0.27 0.05,-0.09 0.1,-0.18 0.15,-0.27 0.03,-0.05 0.06,-0.1 0.1,-0.15 0.08,-0.1 0.18,-0.14 0.31,-0.13 0.11,0.01 0.22,0.04 0.33,0.06 0.17,0.04 0.32,0.01 0.46,-0.09 0.08,-0.06 0.16,-0.12 0.24,-0.17 0.05,-0.04 0.11,-0.07 0.16,-0.1 0.12,-0.06 0.23,-0.05 0.34,0.01 0.07,0.04 0.13,0.09 0.2,0.14 0.02,0.02 0.05,0.04 0.08,0.07 0.13,0.11 0.28,0.14 0.45,0.11 0.14,-0.03 0.28,-0.06 0.42,-0.08 0.17,-0.01 0.3,0.04 0.38,0.19 0.04,0.06 0.07,0.13 0.1,0.19 0.02,0.04 0.04,0.08 0.06,0.11 0.06,0.12 0.15,0.2 0.27,0.24 0.1,0.04 0.21,0.06 0.31,0.09 0.07,0.02 0.13,0.04 0.2,0.06 0.15,0.06 0.22,0.17 0.23,0.33 0,0.11 0.01,0.22 0.01,0.32 0,0.16 0.07,0.28 0.18,0.38 0.09,0.08 0.18,0.15 0.27,0.23 0.04,0.04 0.08,0.08 0.11,0.13 0.07,0.09 0.08,0.19 0.05,0.3 -0.03,0.11 -0.09,0.2 -0.13,0.3 -0.02,0.04 -0.04,0.08 -0.05,0.12 -0.04,0.12 -0.02,0.23 0.03,0.33 0.04,0.11 0.09,0.21 0.13,0.31 0.03,0.06 0.05,0.13 0.06,0.19 0.02,0.11 -0.02,0.21 -0.09,0.29 -0.05,0.04 -0.1,0.09 -0.15,0.13 -0.04,0.03 -0.08,0.06 -0.12,0.09 -0.14,0.1 -0.2,0.24 -0.21,0.41 0,0.1 0,0.2 -0.01,0.3 0,0.06 -0.01,0.12 -0.02,0.17 -0.03,0.13 -0.1,0.21 -0.22,0.26 -0.11,0.04 -0.21,0.05 -0.32,0.08 -0.04,0.01 -0.08,0.02 -0.12,0.04 -0.12,0.04 -0.19,0.12 -0.25,0.23 -0.07,0.11 -0.12,0.23 -0.19,0.34 -0.02,0.03 -0.04,0.05 -0.05,0.08 -0.09,0.12 -0.22,0.16 -0.36,0.14 -0.12,-0.02 -0.23,-0.05 -0.34,-0.07 -0.13,-0.03 -0.25,0 -0.37,0.07 -0.1,0.06 -0.2,0.15 -0.31,0.22 -0.04,0.03 -0.09,0.06 -0.14,0.08 -0.12,0.06 -0.23,0.05 -0.34,-0.01 -0.08,-0.05 -0.15,-0.11 -0.22,-0.16 -0.02,-0.02 -0.03,-0.03 -0.05,-0.04 -0.14,-0.12 -0.29,-0.15 -0.46,-0.12 -0.14,0.03 -0.27,0.06 -0.41,0.07 -0.03,0.01 -0.06,0.01 -0.1,0 -0.11,0 -0.2,-0.05 -0.26,-0.15 -0.06,-0.08 -0.1,-0.17 -0.14,-0.25 -0.02,-0.03 -0.04,-0.07 -0.05,-0.1 -0.07,-0.13 -0.18,-0.2 -0.32,-0.24 -0.12,-0.03 -0.24,-0.06 -0.36,-0.1 -0.03,-0.01 -0.07,-0.02 -0.1,-0.03 -0.14,-0.06 -0.22,-0.17 -0.23,-0.33 0,-0.06 0,-0.12 0,-0.18l0 0z"/>
  <path class="fil2" d="M4.56 2.96c-0.45,0.45 -0.89,0.91 -1.34,1.36 0,0 -0.01,0.01 -0.01,0.01 -0.01,0 -0.01,-0.01 -0.02,-0.01 -0.2,-0.2 -0.4,-0.4 -0.61,-0.6 -0.05,-0.05 -0.11,-0.11 -0.17,-0.17 -0.01,-0.01 -0.01,-0.01 0,-0.03 0.08,-0.08 0.16,-0.16 0.24,-0.24 0.02,-0.02 0.02,-0.02 0.04,0 0.16,0.16 0.33,0.32 0.49,0.48 0.02,0.02 0.03,0.02 0.04,0 0.35,-0.36 0.7,-0.71 1.06,-1.07 0.01,-0.02 0.02,-0.02 0.03,0 0.08,0.08 0.16,0.16 0.25,0.24 0.01,0.01 0.01,0.02 0,0.03zm-1.09 -1.1c-0.91,0.01 -1.64,0.76 -1.63,1.67 0.01,0.9 0.75,1.62 1.63,1.63 0.95,0.01 1.65,-0.76 1.67,-1.61 0.02,-0.97 -0.76,-1.71 -1.67,-1.69z"/>
 </g>
</svg>
