<?xml version="1.0" encoding="UTF-8"?>
<!DOCTYPE svg PUBLIC "-//W3C//DTD SVG 1.1//EN" "http://www.w3.org/Graphics/SVG/1.1/DTD/svg11.dtd">
<!-- Creator: CorelDRAW 2021.5 -->
<svg xmlns="http://www.w3.org/2000/svg" xml:space="preserve" width="242px" height="131px" version="1.1" style="shape-rendering:geometricPrecision; text-rendering:geometricPrecision; image-rendering:optimizeQuality; fill-rule:evenodd; clip-rule:evenodd"
viewBox="0 0 28.31 15.3"
 xmlns:xlink="http://www.w3.org/1999/xlink"
 xmlns:xodm="http://www.corel.com/coreldraw/odm/2003">
 <defs>
  <style type="text/css">
   <![CDATA[
    .fil1 {fill:#69FFD6;fill-rule:nonzero}
    .fil0 {fill:#EA148F;fill-rule:nonzero}
   ]]>
  </style>
 </defs>
 <g id="Layer_x0020_1">
  <metadata id="CorelCorpID_0Corel-Layer"/>
  <path class="fil0" d="M27.83 4.15c-0.52,0.92 -1.26,1.66 -2.02,2.38 -0.64,0.6 -1.3,1.16 -1.95,1.74 -0.09,0.08 -0.15,0.11 -0.27,0.02 -1.16,-0.99 -2.37,-1.92 -3.38,-3.08 -0.53,-0.62 -0.99,-1.27 -1.16,-2.09 -0.25,-1.19 0.32,-2.36 1.4,-2.84 1.1,-0.5 2.33,-0.17 3.05,0.83 0.12,0.16 0.15,0.14 0.26,-0.01 0.63,-0.88 1.48,-1.25 2.54,-1.04 1.04,0.2 1.68,0.87 1.94,1.89 0.04,0.18 0.04,0.37 0.07,0.55 0,0.6 -0.19,1.14 -0.48,1.65z"/>
  <path class="fil1" d="M25.83 13.22c0.39,-0.47 0.78,-0.93 1.15,-1.39 0.14,-0.18 0.29,-0.42 0.13,-0.62 -0.19,-0.25 -0.5,-0.17 -0.71,-0.01 -0.43,0.3 -0.83,0.65 -1.24,0.98 -0.34,0.29 -0.67,0.58 -1.27,0.62 0.41,-0.5 0.78,-0.9 1.1,-1.35 0.18,-0.25 0.5,-0.57 0.16,-0.89 -0.37,-0.35 -0.69,-0.03 -0.98,0.21 -0.62,0.52 -1.07,1.26 -2.07,1.48 0.41,-0.44 0.74,-0.77 1.04,-1.11 0.18,-0.2 0.36,-0.45 0.1,-0.69 -0.2,-0.19 -0.43,-0.04 -0.6,0.1 -0.69,0.54 -1.51,0.85 -2.27,1.25 -1.09,0.58 -1.93,0.15 -2.81,-0.39 -0.22,-0.13 -0.52,-0.27 -0.48,-0.57 0.05,-0.37 0.43,-0.39 0.71,-0.39 1.11,0 2.18,-0.21 3.19,-0.66 0.28,-0.12 0.57,-0.21 0.81,-0.39 0.31,-0.25 0.72,-0.53 0.5,-1.02 -0.17,-0.39 -0.6,-0.5 -0.97,-0.41 -2.16,0.56 -4.28,-0.08 -6.42,-0.17 -2.08,-0.09 -4.01,0.15 -5.78,1.46 -1.38,1.03 -3.18,0.81 -4.78,1.16 -0.52,0.11 -3.73,0.35 -4.34,0.45 0.51,1.33 1.01,2.58 1.46,3.85 0.23,0.64 0.69,0.46 1.11,0.37 1.66,-0.36 6.03,-0.8 7.65,-1.3 1.64,-0.51 3.21,-0.39 4.75,0.19 2.66,1 5.49,0.96 8.24,1.29 1.67,0.2 3.22,-0.69 4.73,-1.37 0.2,-0.09 0.44,-0.19 0.34,-0.49 -0.08,-0.25 -0.32,-0.33 -0.54,-0.32 -0.63,0.02 -1.26,0.08 -1.91,0.13z"/>
 </g>
</svg>
