<?xml version="1.0" encoding="UTF-8"?>
<!DOCTYPE svg PUBLIC "-//W3C//DTD SVG 1.1//EN" "http://www.w3.org/Graphics/SVG/1.1/DTD/svg11.dtd">
<!-- Creator: CorelDRAW 2021.5 -->
<svg xmlns="http://www.w3.org/2000/svg" xml:space="preserve" width="711px" height="710px" version="1.1" style="shape-rendering:geometricPrecision; text-rendering:geometricPrecision; image-rendering:optimizeQuality; fill-rule:evenodd; clip-rule:evenodd"
viewBox="0 0 176.48 176.4"
 xmlns:xlink="http://www.w3.org/1999/xlink"
 xmlns:xodm="http://www.corel.com/coreldraw/odm/2003">
 <defs>
  <style type="text/css">
   <![CDATA[
    .fil0 {fill:#FFED00;fill-rule:nonzero}
   ]]>
  </style>
 </defs>
 <g id="Layer_x0020_1">
  <metadata id="CorelCorpID_0Corel-Layer"/>
  <path class="fil0" d="M163.48 54.43c-2.46,-0.03 -4.53,-2.23 -4.47,-4.76 0.06,-2.37 2.36,-4.58 4.72,-4.54 2.23,0.04 4.58,2.36 4.63,4.57 0.07,2.48 -2.29,4.76 -4.88,4.73z"/>
  <path class="fil0" d="M75.08 9.06c-2.75,0 -4.74,-1.96 -4.7,-4.62 0.04,-2.4 2.15,-4.37 4.63,-4.44 2.46,-0.07 4.6,1.72 4.63,4.36 0.03,3.14 -2.21,5.07 -4.56,4.7z"/>
  <path class="fil0" d="M126.98 8.96c2.9,0.01 4.62,1.66 4.59,4.41 -0.02,2.57 -2.06,4.66 -4.56,4.61 -2.31,-0.05 -4.72,-1.6 -4.5,-4.93 0.17,-2.63 1.64,-4.1 4.47,-4.09z"/>
  <path class="fil0" d="M101.53 9.05c-2.54,0.44 -4.49,-2.03 -4.65,-4.29 -0.19,-2.6 2,-4.73 4.63,-4.74 2.63,0 4.81,2.1 4.65,4.71 -0.13,2.23 -2.1,4.77 -4.63,4.32z"/>
  <path class="fil0" d="M25.39 31.88c-2.2,-2.68 -2.11,-4.54 0.35,-7.51 3.14,-1.01 5.26,-0.6 6.44,1.25 1.17,1.82 1.05,4.13 -0.29,5.74 -1.25,1.51 -3.41,1.95 -5.42,1.1 -0.37,-0.16 -0.72,-0.38 -1.08,-0.58z"/>
  <path class="fil0" d="M171.7 79.46c-2.32,-0.01 -4.46,-2.07 -4.48,-4.31 -0.02,-2.63 2.05,-4.7 4.69,-4.72 2.86,-0.01 4.62,2.12 4.57,4.56 -0.05,2.51 -1.49,4.58 -4.78,4.47z"/>
  <path class="fil0" d="M143.63 28.35c-0.09,-2.69 1.57,-4.38 4.3,-4.63 2.66,-0.24 4.72,1.9 4.72,4.58 0,2.58 -2.01,4.76 -4.49,4.67 -2.3,-0.08 -4.95,-2.04 -4.53,-4.62z"/>
  <path class="fil0" d="M49.92 17.27c-2.78,0.02 -4.54,-1.61 -4.55,-4.22 -0.02,-3.08 1.56,-4.82 4.36,-4.81 2.66,0 4.64,1.9 4.67,4.45 0.03,2.68 -1.82,4.57 -4.48,4.58z"/>
  <path class="fil0" d="M7.93 49.35c1.22,-3.66 4.15,-4.98 7.13,-3.22 1.66,0.98 2.07,2.6 2.23,4.35 -0.03,0.12 -0.06,0.24 -0.09,0.35 -0.09,0.12 -0.18,0.23 -0.27,0.34 -0.97,2.72 -2.83,3.78 -5.67,3.25 -1.88,-0.36 -3.35,-2.59 -3.33,-5.07z"/>
  <path class="fil0" d="M4.57 105.91c-2.59,-0.01 -4.61,-2.03 -4.56,-4.57 0.05,-2.52 2.15,-4.48 4.77,-4.46 2.5,0.02 4.65,1.99 4.53,4.47 -0.13,2.61 -1.97,4.95 -4.74,4.56z"/>
  <path class="fil0" d="M9.02 74.95c0,3.11 -1.32,4.51 -4.28,4.51 -2.68,0.01 -4.78,-2.03 -4.74,-4.59 0.04,-2.47 2.18,-4.47 4.77,-4.44 2.65,0.03 4.25,1.73 4.25,4.52z"/>
  <path class="fil0" d="M163.74 122.26c2.86,0.01 4.3,1.5 4.28,4.46 -0.01,2.9 -1.67,4.6 -4.47,4.57 -2.48,-0.03 -4.47,-2.04 -4.56,-4.48 -0.09,-2.48 2.32,-5 4.75,-4.55z"/>
  <path class="fil0" d="M131.22 163.75c0,2.7 -2.22,4.71 -5.15,4.67 -1.93,-0.02 -3.86,-2.42 -3.86,-4.8 -0.01,-2.69 1.87,-4.56 4.53,-4.54 2.58,0.01 4.47,2 4.48,4.67z"/>
  <path class="fil0" d="M101.26 176.32c-2.1,0.42 -4.39,-2.08 -4.4,-4.6 -0.01,-2.52 2.19,-4.47 4.82,-4.42 2.47,0.05 4.7,2.18 4.45,4.56 -0.28,2.74 -1.75,4.59 -4.87,4.46z"/>
  <path class="fil0" d="M45.38 163.35c0,-2.7 1.72,-4.29 4.66,-4.28 2.44,0.01 4.38,2.07 4.38,4.58 0,1.99 -1.74,4.6 -4.61,4.48 -2.83,-0.11 -4.43,-1.72 -4.43,-4.78z"/>
  <path class="fil0" d="M12.93 122.25c2.92,0.01 4.34,1.51 4.32,4.59 -0.02,2.65 -1.87,4.51 -4.44,4.44 -2.52,-0.06 -4.58,-2.06 -4.61,-4.46 -0.03,-2.91 1.7,-4.58 4.73,-4.57z"/>
  <path class="fil0" d="M148.2 143.71c2.79,0.01 4.46,1.62 4.46,4.31 0.01,2.6 -1.99,4.7 -4.48,4.71 -2.49,0.02 -4.56,-2.09 -4.54,-4.63 0.01,-2.81 1.67,-4.41 4.56,-4.39z"/>
  <path class="fil0" d="M23.94 148c0.01,-2.87 1.48,-4.31 4.42,-4.29 2.9,0.01 4.63,1.68 4.6,4.42 -0.02,2.56 -2.12,4.64 -4.62,4.6 -2.55,-0.04 -4.41,-2.04 -4.4,-4.73z"/>
  <path class="fil0" d="M79.44 172.15c0.03,2.56 -1.6,3.94 -4.21,4.23 -2.53,0.27 -4.94,-2.37 -4.87,-4.54 0.09,-2.49 2.12,-4.53 4.71,-4.55 2.77,-0.01 4.34,1.74 4.37,4.86z"/>
  <path class="fil0" d="M176.25 101.51c-0.01,2.93 -1.47,4.24 -4.31,4.45 -2.63,0.2 -4.56,-2.18 -4.7,-4.51 -0.14,-2.4 2.13,-4.59 4.66,-4.56 2.07,0.03 4.73,1.44 4.35,4.62z"/>
  <path class="fil0" d="M34.3 88.32c-0.14,29.73 23.99,53.48 52.84,53.95 31.07,0.51 54.28,-24.37 55.07,-52.18 0.9,-31.85 -24.35,-56.01 -54.17,-55.96 -29.7,0.05 -54.02,24.43 -53.74,54.19zm118.98 -0.05c0.73,34.97 -29.18,66.9 -68.2,65.13 -33.36,-1.52 -62.33,-28.76 -62.1,-65.84 0.23,-35.39 28.92,-65.42 67.18,-64.56 34.3,0.77 63.54,29.24 63.12,65.27z"/>
  <path class="fil0" d="M53.08 88.65c-0.09,19.43 15.67,34.95 34.53,35.26 20.31,0.33 35.48,-15.93 35.99,-34.1 0.59,-20.82 -15.91,-36.61 -35.4,-36.58 -19.41,0.03 -35.31,15.96 -35.12,35.42zm77.76 -0.04c0.47,22.86 -19.07,43.73 -44.58,42.57 -21.8,-0.99 -40.73,-18.79 -40.58,-43.03 0.15,-23.13 18.9,-42.76 43.91,-42.19 22.41,0.5 41.52,19.11 41.25,42.65z"/>
 </g>
</svg>
