<?xml version="1.0" encoding="UTF-8"?>
<!DOCTYPE svg PUBLIC "-//W3C//DTD SVG 1.1//EN" "http://www.w3.org/Graphics/SVG/1.1/DTD/svg11.dtd">
<!-- Creator: CorelDRAW 2021.5 -->
<svg xmlns="http://www.w3.org/2000/svg" xml:space="preserve" width="1069px" height="943px" version="1.1" style="shape-rendering:geometricPrecision; text-rendering:geometricPrecision; image-rendering:optimizeQuality; fill-rule:evenodd; clip-rule:evenodd"
viewBox="0 0 1607.87 1419.46"
 xmlns:xlink="http://www.w3.org/1999/xlink"
 xmlns:xodm="http://www.corel.com/coreldraw/odm/2003">
 <defs>
  <style type="text/css">
   <![CDATA[
    .fil3 {fill:#010954;fill-rule:nonzero}
    .fil0 {fill:#EA148F;fill-rule:nonzero}
    .fil2 {fill:#FFED00;fill-rule:nonzero}
    .fil1 {fill:white;fill-rule:nonzero}
   ]]>
  </style>
 </defs>
 <g id="Layer_x0020_1">
  <metadata id="CorelCorpID_0Corel-Layer"/>
  <path class="fil0" d="M1300.82 407c-36.55,-233.95 -311.78,-433.5 -517.36,-404.12 -36.15,5.17 -72.36,10.09 -114.5,15.94 -21.16,3.96 -48.73,7.02 -74.91,14.58 -26.1,7.54 -51.93,17.64 -75.88,29.94 -226.22,116.27 -328.72,338.37 -268.7,566.01 23.99,90.96 65.61,160.48 117.56,213.48 -20.58,31.7 -50.33,63.32 -93.26,85.09 -75.21,38.14 54.51,3.97 162.92,-27.19 93.75,63.17 205.95,89.76 308.25,98.26 49.41,4.13 104.99,-5.7 151.62,-23.38 73.24,-27.73 141.53,-67.13 211.27,-102.74 15.82,-8.11 31.47,-18.86 42.98,-31.61 114.34,-127.16 176.44,-264.82 150.01,-434.26z"/>
  <path class="fil1" d="M923 114.21c5.05,-0.85 9.72,0 13.87,2.72 4.16,2.71 6.52,6.15 7.26,10.54 0.43,2.53 0.47,9.23 -0.06,19.86 -0.24,7.43 -0.29,16.89 0.03,28.47 1.4,15.51 4.77,40.26 10.09,74.13 5.45,36.18 8.48,57.29 8.82,63.39 0.38,6.24 -0.78,15.61 -3.47,27.97 -3.09,14.08 -7.57,27.29 -13.5,39.93 -5.94,12.65 -11.24,20.11 -15.9,22.55 -2.41,1.09 -6.27,3.39 -11.38,7.13 -8.93,6.3 -22.5,11.06 -40.59,14.13 -5.33,0.9 -13.6,1.34 -24.7,1.3 -11.09,-0.03 -18.57,-0.55 -22.17,-1.58 -3.71,-0.88 -9.28,-3.08 -16.86,-6.59 -7.55,-3.38 -12.37,-5.98 -14.6,-7.79 -8.14,-6.02 -15.12,-14.14 -20.99,-24.52 -5.19,-9.66 -9.16,-17.74 -11.87,-23.99l-7.6 -16.65 -6.1 -30.31c-2.52,-12.45 -5.68,-26.28 -9.73,-41.34 -4.06,-15.06 -6.91,-27.85 -8.65,-38.1l-1.51 -8.92 -2.76 -22.8 5.81 -7.69c3.69,-4.87 10.16,-11.17 19.1,-18.98 8.94,-7.81 14.55,-11.91 16.68,-12.27 4.66,-0.79 9.08,1.06 12.99,5.6 1.14,1.04 2.94,4.43 5.15,10.22 2.26,6.05 5.11,18.84 8.38,38.14 1.22,7.19 3.11,19.19 5.69,36 2.44,16.83 4.38,29.1 5.71,36.95 3.45,20.36 6.55,34.62 9.19,42.94 5.27,15.8 11.85,25.51 19.42,29.02 6.02,3.22 14.21,3.89 24.59,2.13 10.65,-1.81 19.29,-5.73 25.96,-11.65 3.43,-3.19 5.62,-6.43 6.81,-9.92 1.21,-3.35 1.95,-9.5 2.39,-18.2l0.47 -15 -6.1 -32.78c-1.01,-5.99 -2.79,-16.5 -5.48,-31.52 -2.67,-15.01 -4.52,-25.1 -5.42,-30.43l-5.01 -29.54 1.97 -11.01c2.7,-14.01 6.95,-25.27 12.58,-34.03 7.76,-11.58 15.26,-19.83 22.82,-24.54 1.83,-1.26 4.67,-2.29 8.67,-2.97zm46.43 131.22c5.9,-9.62 18.75,-16.18 38.71,-19.56 7.85,-1.33 14.89,-1.83 21.08,-1.65 7.43,0.24 12.31,0.79 14.76,1.47 2.33,0.84 5.19,2.41 8.46,4.73 7.74,6.08 12.44,13.63 13.97,22.68 0.79,4.66 0.25,8.72 -1.81,11.94 -1.87,2.65 -3.96,4.1 -6.48,4.53 -2.53,0.42 -5.95,-0.37 -10.51,-2.2 -6.88,-2.66 -16.25,-4.64 -28.08,-5.78 -7.1,-0.71 -11.58,-0.5 -13.42,0.77 -1.31,1.18 -1.88,2.64 -1.61,4.24 0.36,2.13 2.14,5.39 5.46,9.62 7.01,9.07 15.75,17.04 26.18,23.62 15.84,9.51 26.52,17.56 32.12,24 11.02,11.68 17.01,20.39 18.02,26.38 1.88,11.04 -2.83,20.46 -14.05,28.52 -11.46,8.38 -23.45,13.56 -35.96,15.68 -3.46,0.58 -9.69,0.95 -18.68,1.24 -17.1,0.03 -30.54,-3.31 -40.3,-10.01 -7.27,-4.93 -11.45,-11.06 -12.74,-18.65 -1.87,-11.05 0.67,-17.09 7.46,-18.24 3.72,-0.63 9.43,0.73 17.09,3.95 8.75,4 19.21,5.1 31.5,3.29 8.18,-0.97 12.88,-2.32 13.88,-3.72 1.19,-1.84 1.32,-3.51 0.12,-4.95 -0.91,-1.35 -7.85,-6.74 -21.08,-16.14 -21.01,-15.74 -34.27,-27.73 -39.88,-35.82 -5.55,-7.68 -8.92,-15.46 -10.25,-23.31 -1.48,-8.79 0.58,-17.63 6.04,-26.63z"/>
  <path class="fil1" d="M478.71 416.5c0.99,-0.56 2.32,-0.94 3.9,-1.2 3.69,-0.63 6.34,0.86 7.87,4.4 0.65,1.52 1.91,7.11 3.93,16.77l2.7 14.58 8.29 -1.41c13.78,-2.33 25.66,0.07 35.61,7.15 3.49,2.27 6.99,6.02 10.41,11.1 2.36,3.4 4.09,7.21 5.18,11.37 1.1,4.23 2.99,13.52 5.83,27.99 3.79,20.13 6.75,32.57 9.02,37.3 0.84,1.72 1.41,3.25 1.65,4.68 0.45,2.64 -0.16,4.52 -1.78,5.49 -0.35,0.22 -1.09,0.42 -2.37,0.64 -3.24,0.55 -6.13,0.42 -8.82,-0.37 -2.27,-0.54 -5.47,-2.09 -9.56,-4.73 -4.08,-2.57 -6.92,-4.72 -8.46,-6.48 -3.35,-3.77 -5.77,-7.54 -7.27,-11.32 -1.49,-3.78 -3.27,-11.53 -5.39,-23.19 -2.8,-14.25 -4.8,-23.29 -6.07,-27.1 -1.34,-3.8 -3.51,-6.54 -6.5,-8.2l-2.76 1.55c-4.05,2.16 -7.16,5.32 -9.31,9.56l-1.13 2.9 2.48 17.87c3.29,22.62 4.79,36.08 4.69,40.52 -0.3,3.69 -1.59,5.69 -3.93,6.09 -1.73,0.29 -4.27,-0.52 -7.55,-2.52 -2.73,-1.94 -6.38,-6.05 -11.1,-12.46 -4.73,-6.4 -8.63,-12.49 -11.57,-18.42 -1.35,-2.48 -5.29,-22.51 -11.88,-60.07l-3.06 -18.07 1.26 -4.02c1.03,-3.5 2.16,-6.02 3.35,-7.69 1.31,-1.85 3.45,-4.31 6.27,-7.34 2.82,-3.04 4.85,-4.78 6.07,-5.37zm138.85 36.85c-1.67,-0.25 -3.71,0.09 -6.1,1.04 -5.57,2.8 -10.92,6.88 -15.97,12.31 -5.05,5.43 -8.24,10.39 -9.47,15.01 -0.55,2.27 -0.71,4.08 -0.47,5.51 0.18,1.05 1.03,3.31 2.53,6.7 1.75,3.89 5.03,7.28 9.79,10.2 4.77,2.99 10,4.58 15.7,4.86 2.43,0.13 5.72,-0.12 10.01,-0.85 2.79,-0.47 5.25,-1.04 7.3,-1.78 4.72,-2.27 6.47,-7.06 5.21,-14.52 -0.42,-2.48 -0.83,-4.43 -1.22,-5.84 -2.4,-8.66 -5.22,-16.16 -8.44,-22.36 -3.29,-6.18 -6.21,-9.64 -8.87,-10.28zm-38.62 -5.16c7.89,-6.06 16.46,-9.92 25.73,-11.48 2.63,-0.45 4.53,-0.69 5.84,-0.76 12.97,0.2 22.85,3.18 29.64,8.93 6.43,5.5 11.26,11.11 14.65,16.97 1.82,2.94 3.08,6.76 3.86,11.36 0.69,4.06 0.94,7.82 0.84,11.33 -0.2,2.97 -0.1,5.82 0.35,8.46 0.95,5.65 -3.36,14.05 -12.99,25.37 -5.9,6.81 -14.83,11.27 -26.73,13.29 -5.65,0.95 -10.19,1.18 -13.76,0.7 -20.03,-2.96 -33.35,-14.35 -39.97,-34.23 -1.1,-3.3 -1.91,-6.26 -2.36,-8.9 -0.84,-4.97 -0.01,-11.54 2.39,-19.78 3.06,-9.81 7.29,-16.89 12.51,-21.26zm164.43 7.11c-2.51,-4.31 -4.25,-9.12 -5.15,-14.4 -1.41,-8.36 -0.52,-15.87 2.62,-22.53 3.14,-6.65 8.21,-10.53 15.07,-11.7 1.81,-0.3 4.1,0.86 6.94,3.48 -1.28,5.72 -2.26,9.99 -3.02,12.83l1.71 10.1c0.25,1.43 1.36,6.66 3.36,15.7 1.92,9.05 3.27,15.65 3.96,19.71 0.53,3.17 0.78,5.53 0.64,7.02l-0.63 7.71c-0.36,5.17 -2.18,9.98 -5.48,14.33 -6.22,7.64 -13.52,12.13 -22.03,13.58 -5.65,0.95 -11.64,0.34 -17.83,-1.87l-3.13 -1.1 -2.67 2.08c-4.03,3.24 -9.55,5.42 -16.7,6.63l-1.81 0.31c-17.29,2.23 -28.53,-3.7 -33.62,-17.79 -2.79,-7.74 -5.49,-19.14 -8.05,-34.21 -1.53,-9.04 -2.2,-15.28 -2.02,-18.8 0.03,-4.89 0.93,-9.15 2.72,-12.78 2.01,-4.14 4.03,-6.42 5.99,-6.75 1.96,-0.33 4.56,0.86 7.73,3.57 3.19,2.8 5.54,5.73 7.25,8.93 1.27,2.49 2.15,4.9 2.54,7.24 0.6,3.54 0.48,9.22 -0.37,17.03 -0.85,6.89 -1.1,11.35 -0.73,13.53l0.41 2.41c1.03,4.71 2.56,8.25 4.57,10.54 2.02,2.3 5.3,4.3 10.02,6.06 2.73,1.01 4.51,1.48 5.42,1.33 1.2,-0.21 2.2,-1.15 3.09,-2.77 2.57,-4.08 3.2,-9.92 1.91,-17.53 -0.62,-3.69 -1.96,-8.89 -4,-15.44 -1.7,-5.91 -2.65,-9.24 -2.77,-9.92 -0.6,-3.54 0.98,-10.24 4.84,-19.96 3.15,-8.36 5.74,-12.75 7.92,-13.12 1.21,-0.21 2.62,1.26 4.32,4.46 1.87,3.71 3.55,9.94 5.02,18.6 1.13,6.71 2.05,12.6 2.74,17.59 0.8,6.07 1.83,12.63 3.03,19.72 0.72,4.22 1.2,6.61 1.52,7.1 0.61,1.37 1.85,2.71 3.85,4 1.92,1.3 3.42,1.9 4.48,1.72 2.11,-0.35 4.45,-2.07 6.97,-5.05 2.51,-2.99 4.03,-5.96 4.61,-8.92 0.71,-3.61 0.81,-6.65 0.39,-9.13 -0.6,-3.55 -2.45,-8.04 -5.63,-13.54z"/>
  <path class="fil1" d="M857.91 452.05c2.67,-1.15 5.32,-1.98 7.8,-2.41 3.02,-0.51 5.82,0.03 8.49,1.59 1.19,0.65 1.97,2.07 2.33,4.18 0.37,2.18 -0.19,4.37 -1.59,6.62 -1.29,2 -2.17,4.55 -2.5,7.63 -0.41,3.09 -1.42,14.5 -3.03,34.3 -1.21,13.46 -3.06,25.86 -5.73,37.09 -0.93,3.18 -1.98,8 -3.29,14.43 -2.52,13.05 -6.11,22.5 -10.77,28.4 -1.75,2.47 -4.06,4.41 -6.92,5.82 -2.52,1.13 -5.32,1.99 -8.33,2.5 -8.66,1.47 -16.91,-0.55 -24.57,-5.99 -7.23,-5.13 -12.12,-11.59 -14.75,-19.36 -1.08,-3.15 -1.66,-5.22 -1.84,-6.27 -0.24,-1.44 0.14,-2.82 1.21,-4.32 1,-1.41 2.18,-2.23 3.61,-2.47 0.9,-0.15 3.22,0.23 7.02,1.21 3.11,0.95 6.45,3.26 9.92,6.85 3.7,3.56 6.27,5.91 7.77,6.98 1.51,1.14 2.75,1.62 3.81,1.44 0.38,-0.06 1.03,-0.33 2.02,-0.88 1.99,-1.03 3.03,-3.61 3.04,-7.65 0.02,-2.17 -0.02,-3.79 -0.2,-4.84 -0.57,-3.39 -2.65,-7.46 -6.2,-12.36 -1.91,-2.62 -6.14,-9.27 -12.67,-19.94 -6.53,-10.6 -10.74,-17.17 -12.62,-19.56 -4.98,-6.99 -7.88,-12.7 -8.63,-17.14 -0.54,-3.17 -0.58,-5.71 -0.06,-7.66 0.46,-1.86 1.83,-4.27 4.05,-7.2 0.44,-0.62 1.33,-1.77 2.59,-3.46 1.27,-1.69 2.23,-2.86 2.94,-3.67 0.73,-0.75 1.75,-1.62 3.14,-2.55 1.39,-0.93 2.76,-1.55 4.19,-1.8 4.44,-0.75 7.72,0.32 9.84,3.22 1.39,1.78 3.8,9.59 7.16,23.51 3.37,13.92 6.23,22.58 8.56,25.83 2.42,3.77 5.03,5.42 7.66,4.98 2.87,-0.49 5.16,-2.97 6.96,-7.46 2.18,-6.8 2.05,-17.16 -0.31,-31.1l-1.18 -6.93c-1.05,-6.25 -1.5,-9.82 -1.27,-10.71 -0.06,-1.31 0.33,-2.62 1.17,-4.07 0.85,-1.39 1.66,-2.15 2.41,-2.27 0.68,-0.12 1.53,-0.57 2.5,-1.28 1.57,-1.2 3.72,-2.26 6.27,-3.23zm80.41 5.21c-1.67,-0.26 -3.71,0.09 -6.1,1.04 -5.57,2.8 -10.93,6.88 -15.97,12.31 -5.05,5.43 -8.24,10.39 -9.47,15.01 -0.55,2.27 -0.71,4.07 -0.47,5.5 0.18,1.06 1.03,3.32 2.53,6.71 1.75,3.89 5.03,7.28 9.79,10.2 4.77,2.99 10,4.58 15.7,4.85 2.43,0.14 5.72,-0.11 10.01,-0.84 2.79,-0.47 5.25,-1.04 7.3,-1.78 4.72,-2.27 6.47,-7.06 5.21,-14.52 -0.42,-2.48 -0.83,-4.43 -1.22,-5.84 -2.4,-8.66 -5.22,-16.16 -8.44,-22.36 -3.3,-6.18 -6.21,-9.64 -8.87,-10.28zm-38.62 -5.16c7.89,-6.06 16.46,-9.92 25.72,-11.48 2.64,-0.45 4.54,-0.69 5.85,-0.76 12.97,0.2 22.85,3.18 29.64,8.93 6.43,5.5 11.26,11.11 14.65,16.97 1.82,2.94 3.08,6.76 3.86,11.35 0.69,4.07 0.94,7.83 0.84,11.34 -0.2,2.97 -0.1,5.82 0.34,8.46 0.96,5.65 -3.35,14.05 -12.98,25.37 -5.9,6.81 -14.83,11.27 -26.74,13.29 -5.64,0.95 -10.18,1.18 -13.75,0.7 -20.03,-2.96 -33.35,-14.35 -39.97,-34.23 -1.1,-3.3 -1.91,-6.26 -2.36,-8.9 -0.84,-4.97 -0.02,-11.54 2.39,-19.78 3.06,-9.82 7.29,-16.89 12.51,-21.26zm170.64 -40.44c0.37,2.18 0.48,4.18 0.24,6 -0.23,1.82 -0.23,3.68 0.08,5.49 0.09,0.52 0.32,3.74 0.79,9.71 0.55,7.34 1.41,15.18 2.6,23.58 2.27,16.59 2.78,26.96 1.49,31.21 -0.16,0.42 -0.3,0.98 -0.54,1.88 -0.23,0.89 -0.42,1.62 -0.7,2.28 -0.27,0.67 -0.42,1.16 -0.51,1.56 -0.59,1.96 -2.34,4.89 -5.26,8.72 -2.92,3.83 -5.4,6.57 -7.44,8.24 -2.75,2.09 -6.72,4.24 -12.02,6.37 -5.28,2.21 -9.77,3.59 -13.32,4.2l-1.58 0.26c-6.79,0.61 -13.59,-0.64 -20.31,-3.69 -11.23,-4.99 -20.56,-16.2 -28.07,-33.53 -4.53,-10.7 -7.48,-19.89 -8.77,-27.5 -0.69,-4.06 -0.69,-6.85 -0.03,-8.44 0.96,-3.03 4.07,-7.04 9.44,-11.98 4.2,-4.04 7.85,-6.29 10.86,-6.8 1.58,-0.27 3.42,0.04 5.37,1.03 3.18,1.86 5.54,7.12 7.01,15.78 0.33,1.96 1.12,7.56 2.3,16.82 0.25,2.36 0.7,5.46 1.36,9.38 1.71,10.09 4.78,16.78 9.12,20 3.97,2.81 8.24,3.79 12.84,3.01 2.1,-0.35 4.05,-1.22 5.83,-2.61 4.99,-3.95 6.55,-11.19 4.75,-21.81 -0.66,-3.92 -1.94,-8.73 -3.77,-14.47 -1.46,-4.09 -2.55,-8.25 -3.28,-12.54 -1.53,-9.04 0.57,-17.69 6.3,-25.95 3.16,-5.1 6.8,-8.82 10.97,-11.15 1.2,-0.75 3.27,-1.33 6.28,-1.84 2.79,-0.47 4.67,-0.33 5.67,0.51 0.99,0.84 1.73,2.89 2.3,6.28z"/>
  <path class="fil1" d="M617.22 562.62c1.29,-0.89 3.39,-1.63 6.48,-2.15 2.43,-0.41 4.29,-0.25 5.56,0.4 1.19,0.77 2.25,2.51 3.21,5.34 2.34,5.86 7.58,32.82 15.72,80.87l2.92 17.23c4.44,26.23 7.36,41.73 8.76,46.6 1.4,4.87 4.29,9.96 8.58,15.4 3.48,4.62 5.39,7.95 5.73,9.92 0.55,3.28 0.06,6.06 -1.56,8.45 -1.6,2.49 -4.05,3.97 -7.14,4.49 -2.15,0.36 -6.14,-0.41 -11.87,-2.42 -5.82,-1.91 -10.21,-3.96 -13.39,-6.21 -5.86,-3.92 -10.96,-10.09 -15.35,-18.41 -3.69,-7.56 -6.36,-13.66 -7.84,-18.42 -1.48,-4.76 -3.38,-13.69 -5.62,-26.89 -2.61,-15.46 -4.8,-28.96 -6.51,-40.72l-7 -45.35 2.75 -5.95c4.73,-10.73 10.22,-18.11 16.57,-22.18zm63.68 66.39c2.01,-1.2 4.48,-2.01 7.41,-2.31 4.98,-0.17 7.8,1.67 8.43,5.41 0.42,2.44 1.03,4.36 1.94,5.74 2.68,5.04 5.05,13.89 7.22,26.72 0.86,5.06 2.24,15.52 4.16,31.38 1.92,15.86 2.8,24.48 2.55,25.87 0.08,0.47 0.09,3.36 0.15,8.84 0.41,8.12 -0.95,13.17 -3.96,15.32 -1.17,1.06 -2.68,1.22 -4.65,0.4 -6.05,-2.16 -13.87,-11.33 -23.66,-27.6 -3.84,-6.19 -6.27,-10.88 -7.51,-14.24 -1.23,-3.26 -2.83,-9.83 -4.69,-19.72 -0.31,-1.78 -0.83,-4.3 -1.48,-7.56 -0.65,-3.26 -1.15,-5.68 -1.41,-7.18 -0.3,-1.78 -0.55,-3.86 -0.86,-6.21 -0.3,-2.36 -0.41,-3.59 -0.44,-3.78l-0.78 -6.32 3.52 -7.06c4.62,-9.16 9.3,-15.06 14.06,-17.7zm-11.99 -74.75c0.8,-0.43 2.37,-0.79 4.53,-1.16 3.28,-0.55 5.79,-0.5 7.52,0.08 2.71,1.18 4.77,5.36 6.17,12.54l0.62 3.65c0.53,3.09 0.51,6.37 0.03,9.82 -0.66,4.64 -0.9,7.19 -0.82,7.66 0.11,0.65 -0.34,1.98 -1.35,3.98 -1.01,2.01 -3.02,3.21 -6.11,3.74 -3.1,0.52 -5.94,0.23 -8.36,-1 -6.11,-2.53 -11.95,-6.84 -17.51,-12.93 -3.26,-3.3 -5.01,-5.7 -5.28,-7.29 -0.14,-0.85 0.05,-1.94 0.52,-3.17 0.98,-2.19 3.75,-5.17 8.35,-8.74 4.6,-3.57 8.52,-5.97 11.69,-7.18zm45.33 22.86c1.85,-0.99 3.68,-1.59 5.46,-1.89 4.58,-0.77 7.82,0.12 9.7,2.69 0.93,1.49 3.33,13.41 7.42,35.84l5.99 33.67c1.35,-0.03 3.05,-0.22 5.01,-0.56 5.06,-0.85 8.86,-5.16 11.42,-12.82 2.96,-9.27 8.4,-16.93 16.18,-22.78 3.26,-2.38 6.02,-3.72 8.17,-4.08 5.53,-0.94 9.74,4.61 12.63,16.55l0.51 3c1.71,10.12 0.57,19.85 -3.55,29.12 -1.44,3.42 -1.5,5.36 0.02,5.78 1.11,0.29 3.25,2.14 6.34,5.57 3.08,3.43 5.58,6.77 7.44,9.82 2.23,3.48 4.28,9.88 6.35,19.26 2.26,10.5 3.96,17.73 5.28,21.55 3.31,9.85 5.09,15.81 5.42,17.77 0.19,1.13 0.18,2.19 -0.15,3.11 -0.57,1.74 -2.41,2.82 -5.5,3.34 -0.94,0.16 -2.95,0.21 -6.12,0.27 -7.8,-0.51 -15.19,-4.37 -22.19,-11.56 -7,-7.2 -12.24,-16.53 -15.85,-28.15 -1.89,-6.04 -5.62,-10.99 -10.98,-14.81 -5.15,-3.65 -9.28,-5.27 -12.37,-4.74 -1.97,0.33 -3.01,2.14 -3.22,5.46 -0.29,3.42 0.14,11.05 1.31,23.09 1.3,14.52 1.57,22.37 0.92,23.64 -0.2,0.52 -0.96,1.71 -2.44,3.79l-3.55 -1.04c-1.92,-0.54 -3.55,-1.61 -5.05,-3.1 -1.49,-1.38 -4.46,-4.73 -8.71,-9.89 -5.97,-7.37 -11,-14.9 -15.01,-22.6 -2.74,-5.42 -6.49,-21.84 -11.1,-49.09 -0.38,-2.25 -0.87,-5.73 -1.59,-10.52 -0.7,-4.7 -1.23,-8.37 -1.69,-11.09 -2.87,-18.11 -3.94,-28.42 -3.23,-31.05 1.14,-4.05 3.54,-8.69 7.38,-13.87 3.75,-5.17 6.87,-8.39 9.35,-9.68zm131.05 26.75c4.54,-2.79 8.67,-4.55 12.33,-5.17 2.71,-0.46 4.88,-0.73 6.71,-0.75 12.94,-1.52 25.55,0.68 37.86,6.79 6.24,3.28 10.51,6.89 13,10.8 1.27,1.81 2.09,3.79 2.47,6.04 0.53,3.09 0.08,6.15 -1.21,9.36 -1.05,2.87 -5.94,10.44 -14.57,22.6 -8.72,12.27 -14.19,19.17 -16.44,20.71 -3.29,2.19 -6.16,3.45 -8.6,3.86 -3.93,0.67 -7.6,0.04 -11.1,-1.88 -3.24,-1.47 -5.01,-3.39 -5.37,-5.54 -0.27,-1.59 -0.06,-3.17 0.51,-4.91 1.22,-4.73 5.83,-11.1 13.7,-19.27 8.37,-9.13 12.47,-14.54 12.17,-16.32 -0.37,-2.16 -2.89,-3.95 -7.66,-5.36 -4.75,-1.31 -10.03,-1.77 -15.82,-1.27l-3.65 0.62c-4.21,0.72 -6.99,1.96 -8.35,3.63 -1.44,1.69 -2.37,4.74 -2.78,9.15 -0.24,3.7 0.19,9.11 1.38,16.14 0.86,5.06 1.91,9.02 3.09,12 3.98,9.25 10.57,15.17 19.68,17.77 3.36,1.07 8.28,1.1 14.96,0.16l4.97 -0.84c3.93,-0.66 7.54,-1.56 10.7,-2.77 7.51,-2.91 13.76,-6.38 18.95,-10.44 0.76,-0.61 2.14,-1.04 3.92,-1.34 2.81,-0.47 4.54,1.26 5.23,5.28 0.27,1.59 0.38,2.83 0.33,3.7 -0.15,5.91 -2,11.52 -5.61,16.95 -2.69,4.02 -5.04,6.63 -6.89,7.62 -3.06,1.87 -6.85,3.95 -11.18,6.23 -8.67,5.13 -17.18,8.4 -25.51,9.81 -4.22,0.72 -9.93,1.11 -17.15,1.17 -4.32,0.06 -7.56,-0.26 -9.71,-1.05 -7.8,-2.25 -15.78,-7.25 -23.9,-14.84 -8.13,-7.58 -13.35,-15.66 -15.69,-24.32 -0.55,-1.54 -0.97,-3.49 -1.39,-5.93 -0.36,-2.15 -0.57,-5.68 -0.7,-10.38 -0.31,-12.67 1.96,-23.75 7.01,-33.18 1.78,-3.67 5.15,-8.29 9.93,-13.62 4.78,-5.34 7.97,-8.1 9.75,-8.4 0.28,-0.05 1.76,-0.97 4.63,-2.81z"/>
  <path class="fil1" d="M972.68 620.42c1.69,-1.02 3.77,-1.69 6.25,-1.95 4.2,-0.14 6.58,1.4 7.11,4.57 0.35,2.05 0.87,3.67 1.64,4.84 2.26,4.25 4.26,11.71 6.09,22.54 0.72,4.26 1.89,13.09 3.51,26.47 1.61,13.38 2.36,20.65 2.15,21.82 0.07,0.4 0.07,2.83 0.12,7.46 0.35,6.85 -0.8,11.11 -3.33,12.92 -0.99,0.9 -2.27,1.03 -3.93,0.34 -5.1,-1.82 -11.7,-9.56 -19.95,-23.28 -3.25,-5.22 -5.3,-9.18 -6.35,-12.01 -1.03,-2.75 -2.38,-8.3 -3.95,-16.64 -0.26,-1.5 -0.7,-3.62 -1.24,-6.38 -0.55,-2.75 -0.98,-4.79 -1.19,-6.05 -0.26,-1.5 -0.47,-3.26 -0.73,-5.25 -0.25,-1.99 -0.35,-3.03 -0.37,-3.18l-0.66 -5.34 2.97 -5.95c3.89,-7.73 7.85,-12.7 11.86,-14.93zm-10.11 -63.06c0.67,-0.36 2,-0.67 3.81,-0.97 2.77,-0.47 4.89,-0.43 6.36,0.06 2.28,0.99 4.01,4.52 5.2,10.58l0.52 3.08c0.44,2.61 0.42,5.37 0.02,8.28 -0.55,3.92 -0.76,6.07 -0.69,6.46 0.09,0.56 -0.29,1.68 -1.14,3.36 -0.85,1.69 -2.55,2.71 -5.15,3.15 -2.61,0.45 -5.01,0.2 -7.06,-0.83 -5.15,-2.14 -10.07,-5.77 -14.77,-10.91 -2.74,-2.79 -4.22,-4.81 -4.45,-6.16 -0.12,-0.71 0.05,-1.63 0.44,-2.67 0.83,-1.85 3.16,-4.36 7.04,-7.37 3.88,-3.02 7.2,-5.04 9.87,-6.06zm45.04 27.32c2.19,-0.94 4.62,-1.03 7.45,-0.13 1.62,0.46 2.8,1.64 3.58,3.38 0.8,1.82 1.95,6.25 3.54,13.22l2.72 12.7c5.81,-1.71 11.35,-3.06 16.56,-3.94 2.45,-0.41 5.17,-0.71 8.16,-0.81 1.38,0.01 4.23,0.01 8.61,0 4.39,-0.01 8.29,-0.02 11.78,-0.04 3.41,-0.01 5.47,0.13 6.09,0.43 0.46,0.33 1.04,0.39 1.75,0.27 0.71,-0.12 1.66,0.21 2.69,1.01 1.37,0.91 2.1,1.84 2.26,2.79 0.33,1.97 -1.75,5.01 -6.27,9.02 -6.15,5.44 -12.99,10.17 -20.53,14.13 -3.49,1.97 -6.54,3.14 -9.15,3.58 -3.55,0.6 -8.39,-1.1 -14.58,-5.01l-5.5 -3.7 -0.62 4.98c-0.41,4.3 -0.08,9.61 0.99,15.93 1.21,7.19 3.01,13.95 5.44,20.13 2.35,6.18 4.65,9.7 6.89,10.45 0.78,0.28 1.59,0.3 2.38,0.17 3.09,-0.52 6.9,-2.96 11.35,-7.37 4.38,-4.4 8.44,-9.72 12.15,-16.12 4.3,-7.23 7,-10.94 8.19,-11.14 0.16,-0.02 1.08,-0.83 2.68,-2.4 1.7,-1.51 3.58,-2.4 5.63,-2.75 3.56,-0.6 6.08,0.36 7.62,2.78 0.59,1.04 0.92,2.04 1.08,2.99 0.75,4.42 0.28,12.22 -1.48,23.41 -0.62,6.44 -3.6,13.29 -8.89,20.44 -2.79,3.73 -5.06,6.14 -6.84,7.17 -2.6,1.42 -5.1,2.98 -7.48,4.77 -5.61,3.79 -10.9,6.15 -15.72,6.97 -8.77,1.48 -17.12,0.21 -25.02,-3.73 -7.9,-3.95 -14.22,-9.13 -18.97,-15.56 -2.78,-3.92 -4.78,-8.54 -6.08,-13.85 -0.44,-1.63 -1.09,-4.04 -1.87,-7.16 -0.85,-3.1 -1.57,-5.91 -2.17,-8.49 -0.67,-2.57 -1.16,-4.92 -1.54,-7.21 -0.31,-1.82 -0.59,-4.46 -0.77,-7.92 -0.15,-1.84 -0.76,-5.89 -1.79,-11.97l-0.89 -5.29c-0.17,-0.95 -0.37,-2.14 -0.7,-3.63 -0.33,-1.48 -0.59,-2.5 -0.68,-3.05 -1.26,-7.43 -1.3,-13.43 -0.2,-18.01 1.08,-3.68 3.62,-7.85 7.55,-12.5 3.85,-4.63 7.4,-7.67 10.6,-8.94z"/>
  <path class="fil1" d="M537.88 308.31c1.45,-0.61 3.04,-0.67 4.9,-0.08 1.07,0.3 1.84,1.08 2.35,2.22 0.53,1.19 1.29,4.11 2.33,8.69l1.79 8.34c3.81,-1.12 7.45,-2.01 10.88,-2.59 1.61,-0.27 3.39,-0.46 5.36,-0.53 0.91,0.01 2.77,0.01 5.66,0 2.88,-0.01 5.44,-0.01 7.74,-0.03 2.24,0 3.59,0.09 4,0.29 0.3,0.21 0.68,0.26 1.15,0.18 0.47,-0.08 1.09,0.13 1.77,0.66 0.9,0.59 1.37,1.21 1.48,1.83 0.22,1.3 -1.15,3.29 -4.12,5.93 -4.04,3.57 -8.54,6.68 -13.49,9.28 -2.29,1.3 -4.3,2.06 -6.01,2.35 -2.34,0.4 -5.52,-0.72 -9.58,-3.29l-3.62 -2.43 -0.41 3.28c-0.27,2.82 -0.05,6.31 0.66,10.46 0.8,4.73 1.97,9.17 3.57,13.23 1.54,4.06 3.06,6.37 4.53,6.87 0.51,0.18 1.05,0.19 1.57,0.1 2.02,-0.34 4.53,-1.94 7.45,-4.84 2.88,-2.89 5.54,-6.38 7.98,-10.59 2.83,-4.75 4.61,-7.19 5.39,-7.32 0.1,-0.01 0.7,-0.54 1.76,-1.58 1.11,-0.99 2.35,-1.57 3.7,-1.8 2.33,-0.39 3.99,0.23 5.01,1.82 0.38,0.69 0.6,1.34 0.7,1.97 0.49,2.9 0.19,8.03 -0.97,15.38 -0.4,4.24 -2.37,8.73 -5.84,13.43 -1.83,2.45 -3.33,4.04 -4.49,4.72 -1.71,0.93 -3.36,1.95 -4.92,3.13 -3.69,2.49 -7.16,4.04 -10.33,4.58 -5.76,0.97 -11.25,0.14 -16.44,-2.45 -5.19,-2.6 -9.35,-6 -12.46,-10.23 -1.83,-2.57 -3.14,-5.61 -4,-9.1 -0.29,-1.07 -0.72,-2.65 -1.23,-4.7 -0.55,-2.04 -1.03,-3.89 -1.42,-5.58 -0.45,-1.69 -0.76,-3.24 -1.02,-4.74 -0.2,-1.2 -0.39,-2.93 -0.51,-5.2 -0.09,-1.21 -0.49,-3.87 -1.17,-7.87l-0.59 -3.48c-0.1,-0.62 -0.23,-1.4 -0.45,-2.38 -0.22,-0.97 -0.39,-1.64 -0.45,-2 -0.83,-4.88 -0.85,-8.83 -0.13,-11.84 0.71,-2.41 2.38,-5.15 4.96,-8.21 2.53,-3.04 4.86,-5.04 6.96,-5.88zm77.11 8.04c2.52,-1.55 4.81,-2.52 6.83,-2.87 1.51,-0.25 2.71,-0.4 3.73,-0.41 7.17,-0.84 14.16,0.38 20.98,3.76 3.46,1.82 5.83,3.82 7.21,5.99 0.7,1 1.16,2.1 1.37,3.35 0.29,1.71 0.04,3.41 -0.67,5.18 -0.59,1.6 -3.3,5.79 -8.08,12.53 -4.83,6.8 -7.87,10.63 -9.11,11.48 -1.83,1.22 -3.42,1.91 -4.77,2.14 -2.18,0.37 -4.21,0.02 -6.15,-1.04 -1.8,-0.82 -2.78,-1.88 -2.98,-3.07 -0.15,-0.89 -0.03,-1.76 0.29,-2.72 0.67,-2.63 3.23,-6.16 7.59,-10.69 4.64,-5.06 6.91,-8.06 6.74,-9.04 -0.2,-1.2 -1.6,-2.19 -4.24,-2.97 -2.63,-0.73 -5.56,-0.98 -8.77,-0.71l-2.03 0.35c-2.33,0.39 -3.87,1.08 -4.62,2.01 -0.8,0.94 -1.32,2.63 -1.55,5.07 -0.13,2.05 0.11,5.05 0.77,8.95 0.48,2.8 1.06,5 1.72,6.65 2.2,5.13 5.85,8.4 10.9,9.85 1.87,0.59 4.59,0.61 8.3,0.09l2.75 -0.47c2.18,-0.37 4.18,-0.87 5.93,-1.54 4.16,-1.61 7.63,-3.53 10.5,-5.78 0.43,-0.34 1.19,-0.58 2.18,-0.74 1.55,-0.27 2.52,0.69 2.89,2.92 0.15,0.89 0.22,1.57 0.19,2.06 -0.08,3.27 -1.11,6.38 -3.11,9.39 -1.49,2.23 -2.79,3.67 -3.82,4.22 -1.7,1.04 -3.8,2.19 -6.2,3.46 -4.8,2.84 -9.52,4.65 -14.14,5.43 -2.33,0.4 -5.5,0.62 -9.5,0.65 -2.4,0.03 -4.19,-0.14 -5.39,-0.58 -4.32,-1.24 -8.74,-4.02 -13.25,-8.22 -4.5,-4.21 -7.39,-8.68 -8.69,-13.48 -0.3,-0.86 -0.54,-1.94 -0.77,-3.29 -0.2,-1.2 -0.32,-3.15 -0.38,-5.76 -0.18,-7.02 1.08,-13.16 3.88,-18.39 0.99,-2.03 2.85,-4.59 5.5,-7.55 2.65,-2.96 4.42,-4.49 5.41,-4.65 0.15,-0.03 0.97,-0.54 2.56,-1.56zm51.09 -52.92c0.72,-0.5 1.88,-0.91 3.59,-1.2 1.35,-0.23 2.38,-0.14 3.08,0.23 0.66,0.42 1.25,1.39 1.78,2.95 1.3,3.25 4.2,18.2 8.72,44.83l1.61 9.55c2.47,14.54 4.08,23.13 4.86,25.83 0.78,2.7 2.38,5.52 4.76,8.54 1.93,2.56 2.98,4.4 3.17,5.49 0.31,1.82 0.03,3.36 -0.86,4.69 -0.89,1.38 -2.25,2.2 -3.96,2.49 -1.19,0.2 -3.4,-0.23 -6.58,-1.35 -3.23,-1.05 -5.66,-2.19 -7.42,-3.44 -3.25,-2.17 -6.08,-5.59 -8.51,-10.2 -2.05,-4.19 -3.53,-7.57 -4.35,-10.21 -0.82,-2.64 -1.87,-7.59 -3.11,-14.91 -1.45,-8.56 -2.66,-16.05 -3.61,-22.57l-3.88 -25.13 1.52 -3.3c2.63,-5.95 5.67,-10.04 9.19,-12.29zm33.71 -5.71c0.72,-0.5 1.88,-0.91 3.59,-1.2 1.35,-0.23 2.38,-0.14 3.08,0.23 0.66,0.42 1.25,1.39 1.79,2.95 1.3,3.25 4.2,18.19 8.71,44.83l1.62 9.55c2.46,14.54 4.08,23.13 4.85,25.83 0.78,2.7 2.38,5.52 4.76,8.54 1.93,2.56 2.99,4.4 3.17,5.5 0.31,1.81 0.04,3.35 -0.86,4.68 -0.89,1.38 -2.24,2.2 -3.96,2.49 -1.19,0.2 -3.4,-0.23 -6.58,-1.34 -3.22,-1.06 -5.66,-2.2 -7.42,-3.45 -3.25,-2.17 -6.07,-5.59 -8.51,-10.2 -2.04,-4.19 -3.52,-7.57 -4.34,-10.21 -0.82,-2.64 -1.88,-7.59 -3.12,-14.91 -1.45,-8.57 -2.66,-16.05 -3.6,-22.56l-3.89 -25.14 1.53 -3.3c2.62,-5.95 5.67,-10.04 9.18,-12.29z"/>
  <path class="fil2" d="M471.64 617.68c6.28,-20.28 18.62,-31.8 39,-31.88 20.1,-0.09 31.52,12.58 40.4,27.82 12.62,21.65 14.04,45.49 7.91,68.89 -14.78,56.43 -47.3,102.77 -95.24,139.32 -2.13,1.63 -4.88,2.51 -9.58,4.85 9.2,-62.82 -13.15,-114.23 -48.64,-161.62 -6.88,-9.17 -10.73,-19.84 -12.68,-31.02 -3.14,-18.03 6.26,-36.6 21.41,-43.07 18.75,-7.99 32.5,-4.48 46.41,12.04 3.28,3.89 6.12,8.11 11.01,14.67z"/>
  <path class="fil2" d="M152.26 240.59c4.88,-3.83 3.03,-8.19 3.64,-11.87 3.89,-23.39 12.88,-32.93 34.08,-35.43 16.55,-1.96 34,10.75 39.86,29.09 4.2,13.13 3.58,26.66 2.54,40.24 -4.11,53 5.37,102.21 40.46,144.27 -3.61,5.59 -8.75,2.46 -12.74,1.99 -54.21,-6.4 -101.08,-27.5 -140.84,-62.47 -14.98,-13.17 -24.79,-29.82 -29.93,-48.37 -5.58,-20.14 -5.42,-40.82 12.01,-57.15 16.73,-15.69 34.54,-9.92 50.92,-0.3z"/>
  <path class="fil2" d="M362.39 491.57c3.77,-43.59 -9.39,-82.13 -35.01,-116.98 -6.4,-8.69 -12.64,-17.69 -14.29,-28.43 -2.28,-14.83 0.57,-28.75 16.2,-36.44 15.95,-7.84 28.47,-1.97 38.26,10.6 1.7,2.19 3.36,4.41 4.75,6.25 4.91,0.66 5.1,-2.95 6.54,-5.06 13.24,-19.34 34,-21.82 50.34,-5.59 16.31,16.22 20.27,37.13 16,58.09 -10.03,49.18 -36.33,89.54 -80.21,118.84 -0.82,-0.49 -1.69,-0.92 -2.58,-1.28z"/>
  <path class="fil2" d="M305.8 652.85c-47.69,-1.99 -85.72,-20.29 -111.03,-59.19 -7.08,-10.88 -8.13,-23.36 -4.02,-35.93 4.6,-14.07 16.17,-20.92 30.18,-16.17 8.75,2.97 12.2,3.5 13.21,-6.85 1.15,-11.79 9.47,-18.08 21.62,-19.03 12.54,-0.98 19.55,6.21 23.71,16.21 1.92,4.62 3.82,9.92 3.29,14.73 -4.24,38.23 2.38,73.91 22.85,106.62l0.19 -0.39z"/>
  <path class="fil3" d="M1025.9 1368.27c3.6,0 5,-0.05 6.39,0.01 8.23,0.35 19.59,-4.14 23.94,0.63 5.83,6.38 6.46,15.68 8.97,23.79 1.39,4.49 -3.37,3.78 -6.59,3.95 -16.71,0.89 -33.43,1.8 -50.16,2.53 -99,4.33 -198.01,8.6 -297.01,12.91 -12.21,0.53 -24.36,0.84 -36.56,-0.72 -14.46,-1.85 -28.38,2.02 -42.54,3.25 -41.58,3.6 -83.23,5.6 -125.09,4.56 -4.77,-0.11 -6.47,-1.07 -6.86,-5.02 -2.11,-21.51 -2.22,-21.1 24.83,-23.36 96.91,-8.11 194.2,-11.49 291.52,-14.73 70.47,-2.35 140.91,-5.23 209.16,-7.8z"/>
  <path class="fil3" d="M30.22 1186.05c-0.28,-6.02 -3.46,-19.39 -5,-25.62l-10.01 -38.46 -15.21 0.15 21.07 79.32 17.69 -0.17 10.26 -43.76c1.08,-5 3.14,-14.89 3.89,-20.69l0.45 0c0.72,5.43 3.07,15.5 4.85,23.08l10.26 41.09 17.71 -0.17 19.54 -79.7 -14.05 0.13 -9.4 40.25c-1.63,7.06 -4,18.98 -4.4,23.97l-0.45 0c-0.63,-5.2 -3,-14.47 -4.41,-20.6l-10.96 -43.34 -17.68 0.17 -9.59 43.43c-1.08,5.22 -3.37,14.44 -4.11,20.91l-0.45 0.01zm123.97 -1.4c-2.48,2.4 -7.44,5.37 -14.13,5.44 -11.47,0.11 -16.74,-5.5 -17.3,-17.53l38.68 -0.36c0.53,-4.54 0.6,-7.95 0.57,-11.13 -0.15,-15.31 -9.08,-25.19 -24.74,-25.04 -16.66,0.16 -28.48,11.36 -28.28,32.81 0.21,22.34 10.31,32.79 29.57,32.61 10.9,-0.1 17.24,-3.09 21.84,-6.76l-6.21 -10.04zm-17.37 -37.75c8.04,-0.08 11.82,4.55 11.9,13.17l0.02 2.51 -25.85 0.24c0.35,-10.33 6.09,-15.85 13.93,-15.92zm64.83 32.28c0.27,14.76 7.15,21.74 20.53,21.61 8.84,-0.09 14.14,-3.77 17.07,-7.56l0.45 0 2.21 6.12 11.58 -0.11 -0.6 -63.18 -13.96 0.13 0.41 42.89c-0.63,4.99 -4.79,10.47 -12.73,10.54 -7.04,0.07 -10.81,-3.98 -10.89,-12.24l-0.39 -40.97 -14.08 0.14 0.4 42.63zm116.43 -24.22c-0.27,-14.18 -7.6,-20.93 -20.07,-20.81 -7.82,0.08 -14.24,4.12 -17.26,7.88l-0.48 0.01 -2.89 -6.21 -10.77 0.1 0.6 63.18 13.95 -0.13 -0.41 -43.8c1.97,-5.09 6.73,-8.9 12.74,-8.96 6.79,-0.06 10.46,4.21 10.53,11.93l0.39 40.61 14.08 -0.14 -0.41 -43.66zm48.59 -18.95c-2.38,-0.56 -5.25,-1.21 -10.33,-1.16 -14.99,0.14 -28.4,9.92 -28.16,35.22 0.2,20.65 9.83,29.49 23.43,29.36 8.39,-0.08 13.79,-4.3 15.82,-6.93l0.45 0 2.43 5.63 10.78 -0.1 -0.82 -85.98 -13.82 0.13 0.22 23.83zm-11.21 52.04c-7.23,0.07 -12.98,-5.19 -13.11,-19.49 -0.17,-17.24 6.25,-22.06 15.9,-22.15 2.96,-0.03 6.92,0.71 8.86,1.85l0.31 32.54c-2.44,4.33 -6.27,7.19 -11.96,7.25zm80.84 -6.07c-2.49,2.4 -7.44,5.37 -14.13,5.43 -11.48,0.11 -16.74,-5.5 -17.3,-17.52l38.68 -0.36c0.53,-4.54 0.6,-7.95 0.57,-11.13 -0.15,-15.31 -9.09,-25.19 -24.75,-25.04 -16.65,0.15 -28.47,11.36 -28.27,32.81 0.21,22.34 10.31,32.79 29.57,32.61 10.9,-0.1 17.24,-3.09 21.83,-6.76l-6.2 -10.04zm-17.37 -37.75c8.04,-0.08 11.81,4.55 11.9,13.17l0.02 2.5 -25.85 0.25c0.35,-10.33 6.09,-15.85 13.93,-15.92zm71.82 -11.1c-1.35,-0.34 -3.51,-0.54 -5.66,-0.53 -7.94,0.08 -13.6,4.22 -16.15,9.8l-0.45 0.01 -3.04 -8.37 -10.77 0.11 0.6 63.18 13.83 -0.13 -0.42 -44.34c3.37,-4.12 9.36,-6.33 15.05,-6.38 2.25,-0.02 4.86,0.18 7.15,0.61l-0.14 -13.96zm34.49 46.3c0.03,3.86 -2.77,7.04 -9.36,7.1 -7.49,0.07 -13.64,-3.83 -16.85,-7.3l-8.3 9.95c3.67,3.69 11.88,8.83 24.58,8.7 17.14,-0.16 23.95,-10.87 23.87,-19.39 -0.2,-21.22 -30.8,-16.72 -30.91,-27.94 -0.03,-3.76 2.9,-6.62 8.56,-6.67 5.47,-0.05 10.03,2.73 12.66,5.54l8.88 -9.15c-4.13,-4.5 -11.3,-7.93 -21.3,-7.84 -14.4,0.14 -22.71,9.16 -22.61,19.03 0.2,21.22 30.67,16.84 30.78,27.97zm43.63 17.4c9.42,-0.09 14.03,-2.19 16.3,-3.69l-3.87 -10.61c-2.13,1.6 -5.27,2.66 -8.91,2.69 -4.66,0.05 -7.64,-2.43 -7.69,-7.87l-0.32 -33.47 16.46 -0.15 -0.1 -10.78 -16.46 0.16 -0.16 -16.21 -9.06 0.09 -4.52 15.45 -8.59 2.94 0.08 8.71 8.62 -0.08 0.32 33.47c0.13,14.05 7.22,19.45 17.9,19.35zm33.02 -32.89c-0.13,-14.27 3.57,-21.12 12.86,-21.21 9.97,-0.1 14.02,7.23 14.16,21.76 0.14,14.18 -3.08,21.13 -13.08,21.22 -9.87,0.09 -13.8,-7.36 -13.94,-21.77zm13.47 33c20.19,-0.19 28.01,-13.77 27.82,-33.26 -0.18,-19.52 -6.99,-32.38 -27.86,-32.18 -20.29,0.19 -28.01,13.77 -27.82,33.26 0.18,19.42 7.12,32.37 27.86,32.18zm49.16 -33.59c-0.13,-14.27 3.57,-21.13 12.86,-21.22 9.96,-0.09 14.02,7.24 14.16,21.77 0.13,14.18 -3.08,21.12 -13.08,21.22 -9.87,0.09 -13.8,-7.36 -13.94,-21.77zm13.46 32.99c20.2,-0.19 28.01,-13.77 27.83,-33.25 -0.19,-19.52 -7,-32.38 -27.86,-32.18 -20.29,0.19 -28.01,13.77 -27.83,33.25 0.19,19.43 7.13,32.38 27.86,32.18zm72.95 -63.97c-2.39,-0.56 -5.26,-1.2 -10.34,-1.16 -14.98,0.15 -28.39,9.92 -28.15,35.23 0.19,20.64 9.83,29.48 23.43,29.36 8.39,-0.08 13.79,-4.31 15.82,-6.94l0.45 0 2.43 5.63 10.77 -0.1 -0.81 -85.98 -13.83 0.14 0.23 23.82zm-11.22 52.04c-7.23,0.07 -12.97,-5.18 -13.11,-19.49 -0.16,-17.24 6.26,-22.06 15.9,-22.15 2.96,-0.03 6.92,0.71 8.86,1.85l0.31 32.54c-2.43,4.33 -6.27,7.19 -11.96,7.25zm87.68 9.97c9.42,-0.08 14.03,-2.19 16.3,-3.69l-3.87 -10.61c-2.14,1.6 -5.28,2.66 -8.91,2.69 -4.66,0.05 -7.64,-2.43 -7.7,-7.87l-0.31 -33.47 16.46 -0.15 -0.1 -10.77 -16.46 0.15 -0.16 -16.2 -9.06 0.08 -4.52 15.45 -8.59 2.94 0.08 8.71 8.62 -0.08 0.32 33.47c0.13,14.06 7.22,19.46 17.9,19.35zm53.37 -64.94c-8.49,0.08 -14.24,4.22 -17.17,7.43l-0.45 0 -0.28 -29.39 -13.95 0.14 0.81 85.97 13.96 -0.13 -0.42 -43.34c2.12,-4.56 7.19,-8.56 12.98,-8.61 6.78,-0.07 10.23,4.21 10.3,11.35l0.38 40.38 14.08 -0.13 -0.4 -42.99c-0.13,-13.73 -7.6,-20.8 -19.84,-20.68zm75.1 47.62c-2.48,2.4 -7.44,5.37 -14.12,5.44 -11.48,0.11 -16.75,-5.5 -17.31,-17.53l38.68 -0.36c0.54,-4.54 0.6,-7.95 0.57,-11.13 -0.14,-15.31 -9.08,-25.19 -24.74,-25.04 -16.66,0.16 -28.48,11.36 -28.28,32.81 0.22,22.34 10.31,32.79 29.57,32.61 10.9,-0.1 17.24,-3.09 21.84,-6.77l-6.21 -10.03zm-17.36 -37.75c8.04,-0.08 11.81,4.55 11.89,13.17l0.02 2.51 -25.85 0.24c0.35,-10.33 6.09,-15.85 13.94,-15.92zm95.86 36.78c-2.25,3.3 -6.66,6.08 -11.96,6.13 -5.47,0.05 -8.43,-3.24 -8.47,-7.54 -0.06,-7.02 7.72,-10.05 20.33,-9.49l0.1 10.9zm-11.13 -48.35c-13.6,0.12 -19.66,8.12 -22.01,11.46l10.03 7.36c1.68,-3.39 5.18,-7.28 12.09,-7.35 6.37,-0.06 10.7,2.28 10.78,10.55l0.05 5.69c-20.78,-0.61 -34.09,6.33 -33.95,20.61 0.08,8.84 6.62,17.17 18.65,17.06 9.74,-0.1 14.46,-4.45 17.03,-7.75l0.48 -0.01c1.84,4.07 5.37,7.09 11.52,7.03 2.15,-0.02 4.4,-0.36 6.44,-1.63l-0.09 -9.78 -1.7 0.02c-3.51,0.03 -5.01,-2.43 -5.05,-6.74l-0.25 -26.56c-0.14,-14.5 -8.81,-20.11 -24.02,-19.96zm67.48 46.34c0.03,3.85 -2.77,7.03 -9.36,7.09 -7.49,0.07 -13.63,-3.82 -16.85,-7.3l-8.3 9.96c3.67,3.69 11.88,8.82 24.59,8.7 17.13,-0.16 23.95,-10.87 23.86,-19.39 -0.2,-21.22 -30.8,-16.72 -30.9,-27.94 -0.04,-3.76 2.89,-6.62 8.55,-6.67 5.47,-0.05 10.03,2.73 12.66,5.54l8.88 -9.16c-4.12,-4.49 -11.29,-7.93 -21.3,-7.83 -14.4,0.13 -22.71,9.15 -22.61,19.02 0.2,21.22 30.67,16.85 30.78,27.98zm52.3 -0.5c0.04,3.86 -2.76,7.04 -9.35,7.1 -7.49,0.07 -13.64,-3.83 -16.86,-7.3l-8.29 9.95c3.66,3.7 11.88,8.83 24.58,8.7 17.14,-0.16 23.95,-10.87 23.87,-19.38 -0.2,-21.23 -30.8,-16.72 -30.91,-27.95 -0.03,-3.76 2.9,-6.62 8.56,-6.67 5.46,-0.05 10.02,2.74 12.65,5.54l8.89 -9.15c-4.13,-4.5 -11.3,-7.93 -21.3,-7.84 -14.4,0.14 -22.71,9.16 -22.62,19.03 0.2,21.22 30.68,16.85 30.78,27.97zm25.69 16.99l13.95 -0.13 -0.6 -63.18 -13.95 0.13 0.6 63.18zm-2.56 -80.3c0.04,4.66 3.81,8.26 8.47,8.22 5.11,-0.05 8.71,-3.72 8.66,-8.38 -0.04,-5.08 -3.71,-8.81 -8.83,-8.76 -4.66,0.04 -8.35,3.84 -8.3,8.92zm79.6 19.35c-4.91,-2.24 -11.48,-3.53 -21.48,-3.43 -20.74,0.19 -30.61,14.34 -30.43,33.05 0.21,22.25 11.76,29.18 24.78,29.06 6.69,-0.06 11.33,-2.16 13.59,-4.21l0.45 -0.01 0.04 4.18c0.1,9.87 -3.95,14 -13.72,14.09 -7.24,0.07 -13.05,-2.84 -16.18,-6.67l-7.84 10.53c3.22,3.6 9.5,7.85 23.8,7.72 16.43,-0.16 27.7,-8.66 27.54,-25.67l-0.55 -58.64zm-13.65 9.06l0.32 33.7c-2.45,2.86 -6.29,4.37 -10.5,4.41 -8.04,0.08 -13.99,-3.6 -14.13,-18.58 -0.13,-13.73 6.04,-20.7 16.13,-20.8 3.19,-0.03 5.7,0.4 8.18,1.27zm78.81 6.88c-0.26,-14.18 -7.59,-20.93 -20.07,-20.81 -7.81,0.07 -14.24,4.12 -17.26,7.88l-0.48 0.01 -2.89 -6.21 -10.77 0.1 0.6 63.18 13.95 -0.13 -0.41 -43.8c1.98,-5.1 6.73,-8.9 12.75,-8.96 6.78,-0.06 10.45,4.21 10.53,11.93l0.38 40.61 14.08 -0.14 -0.41 -43.66zm60.55 -12.38l-0.45 0.01c-2.33,-4.96 -6.67,-9 -16.19,-8.92 -7.59,0.08 -13.47,3.54 -16.49,7.75l-0.45 0 -2.56 -6.21 -11.23 0.11 0.6 63.18 13.96 -0.13 -0.42 -43.8c1.44,-4.64 5.8,-8.9 11.36,-8.95 6.69,-0.06 10.27,4.21 10.35,12.61l0.38 39.93 14.05 -0.13 -0.42 -44.25c1.66,-4.64 6.29,-8.45 11.85,-8.5 5.66,-0.06 9.77,3.32 9.85,11.48l0.39 41.06 13.96 -0.13 -0.42 -43.57c-0.13,-14.18 -7.24,-20.9 -19.58,-20.78 -9.33,0.09 -15.62,4.46 -18.54,9.24zm93.52 39.06c-2.48,2.4 -7.44,5.37 -14.13,5.44 -11.48,0.11 -16.74,-5.5 -17.3,-17.52l38.68 -0.37c0.53,-4.54 0.6,-7.95 0.57,-11.13 -0.15,-15.31 -9.08,-25.19 -24.74,-25.04 -16.66,0.15 -28.48,11.36 -28.28,32.81 0.21,22.34 10.31,32.79 29.57,32.61 10.9,-0.1 17.24,-3.09 21.84,-6.76l-6.21 -10.04zm-17.37 -37.75c8.04,-0.08 11.82,4.55 11.9,13.17l0.02 2.5 -25.85 0.25c0.35,-10.33 6.09,-15.85 13.93,-15.92zm87.23 8.95c-0.27,-14.18 -7.6,-20.93 -20.08,-20.81 -7.81,0.07 -14.23,4.12 -17.25,7.88l-0.48 0.01 -2.89 -6.21 -10.77 0.1 0.59 63.18 13.96 -0.13 -0.42 -43.8c1.98,-5.1 6.74,-8.9 12.75,-8.96 6.78,-0.06 10.46,4.21 10.53,11.93l0.39 40.61 14.08 -0.14 -0.41 -43.66zm33.07 43.93c9.42,-0.09 14.04,-2.19 16.31,-3.69l-3.87 -10.61c-2.14,1.6 -5.28,2.66 -8.91,2.69 -4.66,0.05 -7.65,-2.43 -7.7,-7.87l-0.31 -33.47 16.46 -0.15 -0.1 -10.77 -16.47 0.15 -0.15 -16.2 -9.07 0.08 -4.51 15.45 -8.59 2.94 0.08 8.71 8.62 -0.08 0.31 33.47c0.14,14.05 7.23,19.45 17.9,19.35zm21.84 17.93c9.04,-3.14 18.24,-12.65 18.13,-24.32 -0.07,-7.27 -4.3,-12.11 -10.66,-12.05 -5.31,0.05 -8.9,4.07 -8.86,8.7l0.02 1.38c4.42,1.66 7.39,3.89 7.44,8.32 0.04,4.63 -4,8.66 -10.44,11.55l4.37 6.42z"/>
  <path class="fil3" d="M283.49 1313.98l14.18 -0.13 -0.75 -79.52 -14.18 0.14 0.75 79.51zm49.58 0.11c9.42,-0.09 14.03,-2.19 16.3,-3.69l-3.87 -10.61c-2.14,1.6 -5.28,2.66 -8.91,2.69 -4.66,0.05 -7.64,-2.43 -7.7,-7.87l-0.31 -33.47 16.46 -0.16 -0.1 -10.77 -16.46 0.16 -0.16 -16.21 -9.06 0.09 -4.52 15.45 -8.59 2.94 0.08 8.71 8.62 -0.08 0.32 33.47c0.13,14.05 7.22,19.45 17.9,19.35zm50.3 -18.29c0.04,3.86 -2.76,7.04 -9.35,7.1 -7.49,0.07 -13.64,-3.83 -16.86,-7.3l-8.3 9.95c3.67,3.69 11.89,8.83 24.59,8.71 17.14,-0.17 23.95,-10.87 23.87,-19.39 -0.2,-21.23 -30.8,-16.72 -30.91,-27.94 -0.04,-3.77 2.89,-6.62 8.55,-6.68 5.47,-0.05 10.03,2.74 12.66,5.54l8.89 -9.15c-4.13,-4.5 -11.3,-7.93 -21.3,-7.84 -14.41,0.14 -22.71,9.16 -22.62,19.03 0.2,21.22 30.68,16.85 30.78,27.97zm72.66 17.13c9.42,-0.09 14.03,-2.19 16.3,-3.69l-3.86 -10.61c-2.14,1.59 -5.28,2.65 -8.92,2.69 -4.66,0.04 -7.64,-2.44 -7.69,-7.87l-0.32 -33.47 16.46 -0.16 -0.1 -10.77 -16.46 0.15 -0.15 -16.2 -9.07 0.09 -4.52 15.44 -8.59 2.94 0.08 8.72 8.62 -0.08 0.32 33.47c0.13,14.05 7.22,19.45 17.9,19.35zm53.37 -64.95c-8.49,0.08 -14.24,4.22 -17.17,7.43l-0.45 0.01 -0.28 -29.39 -13.95 0.13 0.81 85.98 13.96 -0.14 -0.41 -43.34c2.11,-4.55 7.18,-8.55 12.97,-8.61 6.79,-0.06 10.23,4.21 10.3,11.35l0.38 40.39 14.09 -0.14 -0.41 -42.99c-0.13,-13.73 -7.59,-20.79 -19.84,-20.68zm75.11 47.62c-2.49,2.41 -7.45,5.38 -14.13,5.44 -11.48,0.11 -16.74,-5.5 -17.31,-17.52l38.68 -0.37c0.54,-4.54 0.6,-7.95 0.57,-11.13 -0.14,-15.3 -9.08,-25.19 -24.74,-25.04 -16.65,0.16 -28.48,11.36 -28.27,32.81 0.21,22.35 10.31,32.8 29.57,32.62 10.9,-0.11 17.24,-3.09 21.83,-6.77l-6.2 -10.04zm-17.37 -37.75c8.04,-0.07 11.81,4.55 11.89,13.17l0.03 2.51 -25.85 0.24c0.35,-10.32 6.08,-15.84 13.93,-15.92zm93.35 35.33c0.03,3.86 -2.77,7.03 -9.36,7.1 -7.49,0.07 -13.64,-3.83 -16.85,-7.3l-8.3 9.95c3.67,3.69 11.88,8.82 24.58,8.7 17.14,-0.16 23.95,-10.87 23.87,-19.39 -0.2,-21.22 -30.8,-16.72 -30.91,-27.94 -0.03,-3.76 2.9,-6.62 8.56,-6.67 5.46,-0.05 10.03,2.73 12.66,5.54l8.88 -9.15c-4.13,-4.5 -11.3,-7.94 -21.3,-7.84 -14.4,0.14 -22.71,9.15 -22.61,19.03 0.2,21.21 30.67,16.84 30.78,27.97zm65.82 1.08c-2.48,2.4 -7.44,5.37 -14.13,5.44 -11.48,0.11 -16.74,-5.5 -17.3,-17.52l38.68 -0.37c0.53,-4.54 0.6,-7.95 0.57,-11.13 -0.15,-15.31 -9.08,-25.19 -24.74,-25.04 -16.66,0.16 -28.48,11.36 -28.28,32.81 0.21,22.35 10.31,32.8 29.57,32.61 10.9,-0.1 17.24,-3.09 21.84,-6.76l-6.21 -10.04zm-17.37 -37.75c8.04,-0.07 11.82,4.55 11.9,13.17l0.02 2.51 -25.85 0.24c0.35,-10.32 6.09,-15.84 13.93,-15.92zm71.82 -11.1c-1.35,-0.34 -3.51,-0.54 -5.66,-0.52 -7.94,0.07 -13.59,4.21 -16.15,9.8l-0.45 0 -3.03 -8.36 -10.77 0.1 0.59 63.18 13.83 -0.13 -0.42 -44.34c3.37,-4.12 9.36,-6.33 15.05,-6.38 2.25,-0.02 4.86,0.18 7.15,0.61l-0.14 -13.96zm13.51 0.55l-15.18 0.14 22.14 62.98 15.76 -0.15 19.94 -63.37 -14.17 0.13 -9.34 33.11c-1.95,7.48 -3.07,12.06 -3.92,16.92l-0.45 0.01c-1.08,-4.98 -2.25,-9.4 -4.47,-16.84l-10.31 -32.93zm50.75 62.71l13.95 -0.14 -0.6 -63.18 -13.95 0.14 0.6 63.18zm-2.56 -80.31c0.04,4.67 3.8,8.26 8.47,8.22 5.11,-0.05 8.71,-3.72 8.66,-8.38 -0.04,-5.08 -3.71,-8.81 -8.82,-8.76 -4.67,0.05 -8.36,3.84 -8.31,8.92zm27.69 49.2c0.22,22.83 10.63,31.89 27.09,31.74 12.47,-0.12 18.22,-4.93 21.36,-9.05l-8.96 -8.4c-1.9,2.84 -5.47,5.71 -11.26,5.76 -8.87,0.09 -13.79,-6.33 -13.93,-21.41 -0.15,-15.21 5.24,-20.6 13.63,-20.68 6.36,-0.06 9.81,3.67 11.27,5.56l9.34 -9.26c-3.55,-4.5 -10.4,-8.07 -20.5,-7.97 -16.56,0.16 -28.25,11.04 -28.04,33.71zm97.95 14.41c-2.49,2.4 -7.44,5.38 -14.13,5.44 -11.48,0.11 -16.74,-5.5 -17.31,-17.52l38.68 -0.37c0.54,-4.54 0.6,-7.95 0.57,-11.13 -0.14,-15.31 -9.08,-25.19 -24.74,-25.04 -16.65,0.16 -28.48,11.36 -28.27,32.81 0.21,22.34 10.31,32.8 29.57,32.61 10.9,-0.1 17.24,-3.08 21.83,-6.76l-6.2 -10.04zm-17.37 -37.75c8.04,-0.07 11.81,4.55 11.89,13.17l0.03 2.51 -25.85 0.24c0.35,-10.32 6.08,-15.84 13.93,-15.92zm99.6 -34.38c-2.61,-0.65 -5.58,-1.21 -10.11,-1.16 -14.4,0.13 -20.79,8.59 -20.69,18.78l0.06 6.37 -9.97 0.09 0.1 9.97 9.74 -0.09 0.51 53.21 13.95 -0.13 -0.51 -53.22 14.99 -0.14 -0.1 -9.96 -14.75 0.13 -0.06 -6.1c-0.05,-4.89 1.86,-7.29 7.07,-7.34 2.6,-0.02 5.24,0.27 7.72,1.05l2.05 -11.46zm14.81 54.75c-0.14,-14.28 3.56,-21.13 12.85,-21.22 9.97,-0.09 14.03,7.23 14.16,21.77 0.14,14.17 -3.08,21.12 -13.08,21.21 -9.87,0.1 -13.8,-7.36 -13.93,-21.76zm13.46 32.99c20.2,-0.19 28.01,-13.77 27.82,-33.26 -0.18,-19.51 -6.99,-32.37 -27.86,-32.18 -20.29,0.19 -28.01,13.77 -27.82,33.26 0.18,19.42 7.12,32.38 27.86,32.18zm73.94 -65.69c-1.35,-0.34 -3.51,-0.54 -5.66,-0.52 -7.94,0.07 -13.6,4.21 -16.15,9.8l-0.45 0 -3.04 -8.36 -10.77 0.1 0.6 63.18 13.83 -0.13 -0.42 -44.34c3.37,-4.12 9.36,-6.33 15.05,-6.38 2.25,-0.02 4.86,0.18 7.14,0.61l-0.13 -13.96zm82.31 7.62l-0.45 0c-2.33,-4.96 -6.67,-9.01 -16.19,-8.91 -7.59,0.07 -13.47,3.53 -16.49,7.74l-0.45 0 -2.57 -6.21 -11.22 0.11 0.6 63.18 13.96 -0.13 -0.42 -43.8c1.44,-4.64 5.8,-8.89 11.36,-8.95 6.69,-0.06 10.27,4.21 10.35,12.61l0.38 39.93 14.05 -0.13 -0.42 -44.25c1.66,-4.64 6.29,-8.45 11.85,-8.5 5.66,-0.05 9.77,3.32 9.85,11.48l0.39 41.06 13.95 -0.13 -0.41 -43.57c-0.13,-14.18 -7.24,-20.89 -19.59,-20.78 -9.32,0.09 -15.61,4.46 -18.53,9.25zm93.52 39.05c-2.48,2.4 -7.44,5.38 -14.13,5.44 -11.48,0.11 -16.74,-5.5 -17.3,-17.52l38.68 -0.37c0.53,-4.54 0.6,-7.95 0.57,-11.13 -0.15,-15.31 -9.08,-25.19 -24.74,-25.04 -16.66,0.16 -28.48,11.36 -28.28,32.81 0.21,22.34 10.31,32.8 29.57,32.61 10.9,-0.1 17.24,-3.09 21.84,-6.76l-6.21 -10.04zm-17.37 -37.75c8.04,-0.08 11.82,4.55 11.9,13.17l0.02 2.51 -25.85 0.24c0.35,-10.32 6.09,-15.84 13.93,-15.92z"/>
 </g>
</svg>
