<?xml version="1.0" encoding="UTF-8"?>
<!DOCTYPE svg PUBLIC "-//W3C//DTD SVG 1.1//EN" "http://www.w3.org/Graphics/SVG/1.1/DTD/svg11.dtd">
<!-- Creator: CorelDRAW 2021.5 -->
<svg xmlns="http://www.w3.org/2000/svg" xml:space="preserve" width="3072px" height="1441px" version="1.1" style="shape-rendering:geometricPrecision; text-rendering:geometricPrecision; image-rendering:optimizeQuality; fill-rule:evenodd; clip-rule:evenodd"
viewBox="0 0 3083.54 1446.61"
 xmlns:xlink="http://www.w3.org/1999/xlink"
 xmlns:xodm="http://www.corel.com/coreldraw/odm/2003">
 <defs>
  <style type="text/css">
   <![CDATA[
    .str0 {stroke:#F8F6EA;stroke-width:0.9;stroke-miterlimit:22.9256}
    .fil1 {fill:#F3EBDB;fill-rule:nonzero}
    .fil0 {fill:#F8F6EA;fill-rule:nonzero}
   ]]>
  </style>
 </defs>
 <g id="Layer_x0020_1">
  <metadata id="CorelCorpID_0Corel-Layer"/>
  <g id="_1502335378272">
   <polygon class="fil0" points="0,0.45 0,1446.16 3083.09,1446.16 3083.09,0.45 "/>
   <path class="fil1 str0" d="M2607.15 251.31c6.82,0.46 7.98,-6.5 7.09,-13.02 -1.1,-8.05 -6.91,-13.71 -12.13,-10.74 -4.04,2.3 -6.69,7.54 -12.03,13.96 7.48,4.52 12.18,9.48 17.07,9.8zm-2536.57 1194.85c6.49,-39.8 12.95,-79.61 19.43,-119.41 11.64,-71.51 23.36,-143 34.85,-214.54 14.27,-88.74 28.33,-177.53 42.54,-266.29 0.73,-4.58 2.42,-8.97 3.11,-13.56 1.7,-11.18 -5.04,-27.42 -14.01,-33.16 -8.78,-5.62 -14.41,1.61 -20.97,6.28 -29.25,20.83 -58.81,41.14 -88.11,61.87 -13.56,9.59 -27.11,19.21 -40.65,28.83l0 -138.3c21.63,-15.05 43.26,-30.12 64.79,-45.35 50.06,-35.41 99.67,-71.61 149.67,-107.14 60.61,-43.06 121.49,-85.66 182.12,-128.68 63.21,-44.85 126.23,-90.03 189.4,-134.94 52.06,-37.01 104.23,-73.8 156.34,-110.72 38.92,-27.58 77.79,-55.24 116.73,-82.79 49.58,-35.08 99.24,-70.03 148.81,-105.12 20.02,-14.18 39.99,-28.44 59.96,-42.69l567.09 0c-18.3,64.12 -35.75,128.55 -54.09,192.66 -21.81,76.2 -44.39,152.11 -66.39,228.24 -12.66,43.8 -24.66,87.85 -37.31,131.66 -13.55,46.91 -27.69,93.61 -41.26,140.52 -12.67,43.78 -24.95,87.7 -37.39,131.56 -7.03,24.77 -14.1,49.53 -21.05,74.33 -1.79,6.37 -3.5,12.8 -4.68,19.34 -1.62,8.94 0.6,15.57 9.46,18.75 14.39,5.16 28.5,11.33 42.91,16.45 9.25,3.28 13.5,-0.31 17.56,-14.33 6.25,-21.57 12.04,-43.3 18.21,-64.89 13.45,-47 27.13,-93.91 40.5,-140.94 12.48,-43.85 24.66,-87.8 37.01,-131.7 12.53,-44.52 25.1,-89.02 37.65,-133.53 12.72,-45.13 25.42,-90.27 38.18,-135.39 13.68,-48.35 27.5,-96.65 41.13,-145.01 17.63,-62.56 35.11,-125.17 52.74,-187.72l166.67 0c-5.5,17.82 -10.23,35.96 -15.14,54.01 -13.37,49.12 -26.89,98.18 -39.91,147.41 -17.76,67.14 -34.74,134.54 -52.74,201.59 -14.57,54.3 -30.44,108.14 -45.19,162.38 -11.98,44.02 -22.95,88.4 -34.73,132.49 -18.09,67.72 -36.51,135.33 -54.76,203.01 -8.78,32.55 -17.61,65.09 -26.16,97.72 -3.92,14.93 -1.96,19.35 11,24.48 11.97,4.74 24.12,9.03 36.37,12.74 16.61,5.03 18.96,3.83 23.93,-13.41 8.96,-31.1 17.52,-62.34 25.95,-93.63 15.3,-56.81 30.48,-113.66 45.51,-170.56 11.66,-44.15 22.96,-88.41 34.52,-132.6 15.24,-58.24 30.69,-116.42 45.83,-174.7 14.48,-55.71 28.53,-111.56 43.05,-167.25 11.52,-44.19 23.95,-88.08 35.05,-132.4 10.35,-41.29 13.65,-41.72 2.69,-90.5 -4.89,-18 -9.69,-36.03 -14.79,-53.95 -0.66,-2.32 -1.57,-4.67 -2.7,-6.83l93.55 0c5.34,21.05 10.69,42.1 16.28,63.07 14.8,55.46 30.16,110.75 45.04,166.19 7.09,26.42 13.44,53.07 20.47,79.51 2.39,9.02 5.3,17.96 8.86,26.49 4.54,10.86 9.53,13.03 18.78,8.61 37.5,-17.88 74.85,-36.15 112.38,-53.96 35.89,-17.04 72,-33.52 107.88,-50.57 36.93,-17.54 73.61,-35.71 110.56,-53.18 39.82,-18.83 79.98,-36.79 119.72,-55.83 49.04,-23.5 97.72,-47.9 146.7,-71.57 32.41,-15.68 65.13,-30.6 97.59,-46.17 8.68,-4.16 17.34,-8.36 25.99,-12.59l259.98 0 0 78c-35.76,6.18 -71.71,11.24 -107.56,16.78 -20.92,3.24 -42.04,9.02 -62.87,7.79 -35.09,-2.07 -66.66,8.74 -97.83,22.91 -22.21,10.1 -43.55,22.49 -65.86,32.31 -17.45,7.68 -19.12,10.52 -8.85,27.84 2,3.39 4,6.83 6.38,9.89 46.5,59.84 93.15,119.53 139.57,179.45 26.56,34.29 52.57,69.12 79.18,103.36 35.37,45.51 71.2,90.59 106.59,136.09 10.7,13.75 9.67,17.28 -4.29,25.03 -37.04,20.56 -74.08,41.14 -110.98,62.01 -14.35,8.12 -14.67,9 -25.98,-4.12 -18.91,-21.94 -37.29,-44.45 -55.6,-67.02 -28.9,-35.65 -57.49,-71.6 -86.34,-107.3 -23.96,-29.67 -47.63,-59.64 -72.26,-88.62 -36.99,-43.54 -82.98,-73.2 -131.28,-97.2 -49.81,-24.76 -101.08,-46.02 -152.41,-66.61 -27.93,-11.21 -56.96,-10.83 -85.38,0.62 -26.78,10.81 -31.48,31.08 -20.28,57.51 10.5,24.78 24.11,48.63 39.47,70.18 41.86,58.73 85.17,116.2 128.29,173.81 27.6,36.89 55.32,73.71 84.03,109.53 25.61,31.95 43.29,66.49 39.41,110.57 -2.32,26.35 -8.43,51.4 -22.22,73.11 -10.77,16.96 -27.73,21.11 -44.41,10.83 -11.08,-6.82 -22.4,-14.24 -31.48,-23.87 -37.41,-39.63 -74.57,-79.6 -110.75,-120.61 -41.3,-46.81 -81.21,-95.12 -122.24,-142.23 -13.07,-15 -26.78,-29.78 -41.94,-41.96 -41.02,-32.94 -86.06,-54.98 -137,-60.43 -42.61,-4.56 -84.91,-3.9 -125.89,8.88 -23.62,7.36 -46.58,18.58 -62.48,41.26 -11.69,16.69 -11.99,37.08 0.16,53.6 6.5,8.82 14.3,16.6 22.11,24.08 37.76,36.14 76.54,71.03 113.34,108.33 23.74,24.07 44.9,51.3 66.8,77.53 26.05,31.22 51.23,63.33 77.55,94.25 30.07,35.32 60.73,70.02 91.61,104.48 14.03,15.66 29.2,30.06 45.77,46.99 -6.6,4.7 -11.19,8.65 -16.29,11.5 -38.1,21.25 -76.38,42.12 -114.46,63.41 -50.43,28.2 -100.67,56.8 -151.08,85.01 -35.94,20.11 -72.11,39.69 -108.04,59.81 -27.34,15.3 -54.57,30.84 -81.61,46.76 -8.64,5.09 -16.88,5.98 -26.06,2.2 -29.56,-12.15 -59.07,-24.48 -88.82,-36 -41.24,-15.98 -82.68,-31.3 -124.03,-46.89 -40.19,-15.15 -80.4,-30.25 -120.59,-45.43 -43.64,-16.48 -87.26,-33.05 -130.9,-49.54 -41.32,-15.61 -82.61,-31.29 -123.98,-46.72 -49.46,-18.44 -99,-36.57 -148.46,-55 -19.87,-7.4 -39.62,-15.22 -58.82,-22.62 0.31,-4.19 0.07,-5.69 0.56,-6.78 8.96,-20.16 17.73,-40.46 27.16,-60.35 8.37,-17.67 17.79,-34.72 26.1,-52.42 2.04,-4.34 1.59,-10.16 2.28,-15.29 7.58,-11.53 15.17,-23.05 24.16,-36.73 18.93,6.54 40.13,13.86 61.59,21.27 13.45,-12.94 16.3,-31.61 22.01,-47.88 20.46,-58.35 40.28,-117.02 58.86,-176.17 27.85,-88.67 54.95,-177.66 81.37,-266.88 15.35,-51.84 28.83,-104.38 42.94,-156.68 2.23,-8.28 3.95,-16.89 4.73,-25.5 0.8,-8.69 -4.15,-12.52 -11.39,-8.97 -26.94,13.2 -53.62,27.04 -80.58,40.18 -48.9,23.84 -97.95,47.28 -146.89,71.01 -24.73,11.99 -49.29,24.41 -74.02,36.38 -27.55,13.32 -55.29,26.2 -82.82,39.56 -49.53,24.02 -98.92,48.35 -148.44,72.37 -47.28,22.94 -94.69,45.57 -141.99,68.49 -25.28,12.25 -50.37,24.99 -75.65,37.25 -27.52,13.34 -55.21,26.25 -82.72,39.61 -9.76,4.74 -19.21,10.24 -29.58,15.81 7.05,17.54 19.98,23.8 32.84,28.64 72.29,27.2 144.69,54.01 217.18,80.52 68.5,25.05 137.21,49.37 205.73,74.35 42.61,15.54 85.04,31.66 127.52,47.65 3.26,1.23 6.21,3.5 11.39,6.49 -3.59,7.77 -7.02,14.47 -9.83,21.48 -2.34,5.85 -3.95,12.07 -5.88,18.12 -11.35,20.2 -23.09,40.14 -33.95,60.66 -9.42,17.79 -17.59,36.41 -26.79,54.35 -7.84,15.29 -8.84,15.37 -24.72,9.99 -2.33,-0.79 -4.68,-1.47 -6.99,-2.32 -43.16,-15.93 -86.28,-32.03 -129.5,-47.77 -29.96,-10.92 -60.13,-21.08 -90.07,-32.05 -58.69,-21.51 -117.25,-43.47 -175.93,-65.01 -43.16,-15.83 -86.3,-31.74 -129.69,-46.73 -21.94,-7.57 -44.3,-13.74 -66.69,-19.45 -11.97,-3.06 -17.83,0.87 -21.84,11.9 -4.04,11.12 -8.1,22.3 -11.19,33.78 -16.85,62.61 -33.37,125.34 -50.04,188.01 -17.35,65.22 -34.75,130.42 -52.11,195.63 -14.13,53.07 -28.18,106.17 -42.36,159.22 -5.92,22.15 -11.89,44.29 -17.85,66.43l-150.36 0zm-63.81 -995.67l0 -159.14c11.76,7.41 26.38,10.59 43.07,10.27 36.63,-0.7 73.38,-6.13 109.48,-13.06 32.77,-6.3 63.09,-21.64 90.63,-42.51 13.82,-10.47 28.07,-20.56 40.56,-32.78 12.42,-12.16 14.97,-27.21 10.43,-46.97 -10.61,-46.17 -40.41,-75.91 -69.2,-106.69 -21.51,-22.98 -45.87,-41.73 -71.01,-59.16l234.2 0c0.56,4.33 1.38,8.67 2.52,13.02 8.85,33.61 27.26,48.43 59.14,46.75 11.99,-0.63 24.06,-0.21 36.02,-1.17 11.41,-0.92 22.73,-3.02 35.55,-4.8 37.52,-8.26 73.75,-23.78 103.37,-53.17l0.63 -0.63 233.7 0c-3.33,1.73 -6.66,3.47 -9.99,5.22 -27.68,14.54 -55.08,29.7 -82.77,44.19 -27.12,14.19 -54.54,27.68 -81.68,41.8 -39.15,20.38 -78.14,41.1 -117.25,61.58 -24.95,13.06 -50.04,25.8 -74.97,38.92 -27.63,14.54 -55.07,29.54 -82.74,44 -59.76,31.23 -119.64,62.19 -179.42,93.38 -27.16,14.17 -54.14,28.74 -81.29,42.93 -26.61,13.91 -53.4,27.44 -80,41.39 -23.05,12.08 -45.98,24.42 -68.98,36.63zm0 -400.26l0 -49.78 21.94 0c-0.18,0.35 -0.35,0.7 -0.52,1.05 -7.72,16.03 -14.93,32.25 -21.42,48.73zm1847.29 935.87c-4.3,44.09 47.35,92.78 78.2,84.84 22.37,-5.76 38.23,-20.79 47.81,-41.62 13.58,-29.52 25.07,-60.51 34.87,-91.9 11.15,-35.75 19.63,-72.58 28.85,-109.07 1.75,-6.94 1.82,-14.51 2.16,-21.82 0.78,-16.71 -4.07,-22.08 -19.28,-19.48 -9.41,1.62 -18.47,5.59 -27.68,8.52 -38.11,12.14 -76.66,22.84 -114.17,36.87 -31.62,11.83 -64.98,19.75 -93.21,40.68 -8.33,6.18 -15.67,14.63 -21.92,23.39 -7.17,10.02 0.57,60.52 10.9,65.85 9.4,4.84 20.8,5.59 31.4,6.38 5.74,0.42 11.61,-3.12 17.52,-4.37 7.46,-1.58 15,-2.65 24.7,-4.32 -0.02,10.55 0.59,18.39 -0.15,26.05z"/>
  </g>
 </g>
</svg>
