<?xml version="1.0" encoding="UTF-8"?>
<!DOCTYPE svg PUBLIC "-//W3C//DTD SVG 1.1//EN" "http://www.w3.org/Graphics/SVG/1.1/DTD/svg11.dtd">
<!-- Creator: CorelDRAW 2021.5 -->
<svg xmlns="http://www.w3.org/2000/svg" xml:space="preserve" width="1129px" height="368px" version="1.1" style="shape-rendering:geometricPrecision; text-rendering:geometricPrecision; image-rendering:optimizeQuality; fill-rule:evenodd; clip-rule:evenodd"
viewBox="0 0 1142.53 372.82"
 xmlns:xlink="http://www.w3.org/1999/xlink"
 xmlns:xodm="http://www.corel.com/coreldraw/odm/2003">
 <defs>
  <style type="text/css">
   <![CDATA[
    .fil3 {fill:#130803;fill-rule:nonzero}
    .fil2 {fill:#13E1C2;fill-rule:nonzero}
    .fil1 {fill:#AD005F;fill-rule:nonzero}
    .fil0 {fill:#E6007E;fill-rule:nonzero}
    .fil5 {fill:#FFED00;fill-rule:nonzero}
    .fil4 {fill:white;fill-rule:nonzero}
   ]]>
  </style>
 </defs>
 <g id="Layer_x0020_1">
  <metadata id="CorelCorpID_0Corel-Layer"/>
  <polygon class="fil0" points="1142.53,331.99 0,331.99 0,60.1 1142.53,60.1 "/>
  <polygon class="fil1" points="806.04,222.4 294.77,235.04 291.99,122.24 803.26,109.6 "/>
  <polygon class="fil2" points="750.58,273.42 349.39,286.27 347.45,225.63 748.64,212.78 "/>
  <path class="fil3" d="M376.5 242.68l0.71 20.46 4.4 -0.15 -0.26 -7.62 0.3 -0.01c0.93,-0.03 1.5,0.18 1.9,0.9l3.62 6.54 5.31 -0.19 -3.32 -5.52c-1.02,-1.69 -1.72,-2.43 -2.82,-2.91l-0.01 -0.12c2.39,-0.55 4.25,-2.28 4.12,-5.84 -0.14,-4.3 -2.77,-5.93 -7.3,-5.77l-6.65 0.23zm4.53 3.53l1.76 -0.06c1.95,-0.07 3.09,0.74 3.16,2.61 0.07,1.89 -0.66,2.94 -3.03,3.02l-1.69 0.06 -0.2 -5.63zm16.77 7.86c-0.12,-3.36 0.7,-5.02 2.71,-5.09 2.28,-0.08 3.19,1.7 3.31,5.11 0.12,3.36 -0.53,5.03 -2.78,5.1 -2.22,0.08 -3.12,-1.7 -3.24,-5.12zm3.22 8.57c5.45,-0.19 7.49,-3.8 7.31,-8.88 -0.17,-5.1 -2.07,-8.43 -7.76,-8.23 -5.46,0.19 -7.47,3.79 -7.29,8.87 0.17,5.11 2.07,8.44 7.74,8.24zm9.26 5.08c0.42,0.19 1.54,0.45 2.7,0.4 3.85,-0.13 5.4,-2.69 6.24,-5.61l4.94 -17.51 -4.55 0.16 -1.35 5.66c-0.54,2.24 -0.85,4.29 -1.03,5.79l-0.12 0c-0.25,-1.39 -0.98,-3.85 -1.66,-5.7l-2.03 -5.53 -4.93 0.17 6.76 16.22c-0.09,1.66 -1,2.6 -2.57,2.65 -0.73,0.03 -1.35,-0.12 -1.8,-0.34l-0.6 3.64zm23.68 -10.81c-0.47,0.69 -1.42,1.21 -2.5,1.25 -1.13,0.04 -1.8,-0.61 -1.84,-1.54 -0.05,-1.43 1.36,-2.15 4.26,-2.05l0.08 2.34zm-2.83 -12.44c-3.65,0.13 -5.21,2.37 -5.81,3.29l3.2 2.2c0.38,-0.97 1.19,-1.91 2.76,-1.97 1.35,-0.04 2.39,0.48 2.45,2.32l0.04 1.29c-5.2,-0.09 -8.55,1.78 -8.42,5.57 0.08,2.37 1.82,4.51 5.03,4.39 2.36,-0.08 3.56,-1.15 4.14,-1.99l0.12 0c0.53,1.01 1.46,1.74 3.04,1.68 0.73,-0.02 1.49,-0.16 2.17,-0.63l-0.11 -3.03 -0.46 0.01c-0.79,0.03 -1.16,-0.37 -1.19,-1.31l-0.23 -6.59c-0.14,-4 -2.52,-5.37 -6.73,-5.23zm10.48 -5.71l0.62 18.07c0.1,2.74 1.76,4.26 4.44,4.17 0.97,-0.03 1.57,-0.26 2.09,-0.49l-0.12 -3.46c-0.14,0.03 -0.29,0.06 -0.61,0.07 -0.81,0.03 -1.38,-0.36 -1.43,-1.59l-0.58 -16.93 -4.41 0.16zm15.16 21.77c2.75,-0.09 4.01,-0.75 4.55,-1.18l-1.25 -3.26c-0.63,0.51 -1.52,0.79 -2.23,0.81 -1.08,0.04 -1.74,-0.53 -1.78,-1.66l-0.27 -7.98 4.11 -0.14 -0.12 -3.35 -4.11 0.14 -0.14 -4.15 -2.81 0.1 -1.38 3.93 -2.1 0.96 0.09 2.74 2.1 -0.08 0.28 7.86c0.13,4 2.23,5.36 5.06,5.26zm5.89 5.37c0.42,0.2 1.54,0.45 2.7,0.41 3.85,-0.14 5.4,-2.7 6.24,-5.62l4.94 -17.5 -4.55 0.15 -1.35 5.66c-0.54,2.24 -0.85,4.3 -1.03,5.79l-0.12 0.01c-0.25,-1.39 -0.98,-3.85 -1.66,-5.7l-2.03 -5.54 -4.93 0.17 6.76 16.22c-0.09,1.67 -1,2.6 -2.57,2.66 -0.74,0.02 -1.36,-0.13 -1.8,-0.35l-0.6 3.64zm32.26 -11.11c-0.47,0.69 -1.41,1.22 -2.5,1.26 -1.13,0.04 -1.8,-0.61 -1.83,-1.55 -0.05,-1.43 1.36,-2.15 4.25,-2.04l0.08 2.33zm-2.82 -12.43c-3.65,0.12 -5.22,2.36 -5.82,3.29l3.2 2.2c0.38,-0.98 1.19,-1.91 2.76,-1.97 1.35,-0.05 2.39,0.47 2.45,2.32l0.05 1.28c-5.21,-0.08 -8.56,1.79 -8.43,5.58 0.09,2.37 1.83,4.5 5.04,4.39 2.36,-0.08 3.55,-1.15 4.14,-1.99l0.11 -0.01c0.53,1.01 1.46,1.74 3.04,1.69 0.73,-0.03 1.49,-0.17 2.17,-0.63l-0.11 -3.04 -0.46 0.02c-0.79,0.02 -1.16,-0.38 -1.19,-1.31l-0.23 -6.6c-0.14,-3.99 -2.52,-5.37 -6.72,-5.22zm16.46 16.38c2.75,-0.1 4.01,-0.76 4.55,-1.19l-1.25 -3.25c-0.62,0.51 -1.52,0.78 -2.22,0.8 -1.09,0.04 -1.74,-0.53 -1.78,-1.66l-0.28 -7.98 4.11 -0.14 -0.11 -3.35 -4.12 0.14 -0.14 -4.14 -2.8 0.09 -1.39 3.94 -2.1 0.95 0.1 2.74 2.1 -0.08 0.27 7.86c0.14,4 2.23,5.36 5.06,5.27zm14.07 5.08c0.42,0.2 1.53,0.45 2.7,0.41 3.85,-0.14 5.4,-2.7 6.24,-5.62l4.94 -17.5 -4.55 0.15 -1.35 5.66c-0.54,2.24 -0.85,4.29 -1.03,5.79l-0.12 0.01c-0.25,-1.39 -0.98,-3.86 -1.66,-5.7l-2.03 -5.54 -4.93 0.17 6.76 16.22c-0.09,1.67 -1,2.6 -2.57,2.66 -0.74,0.02 -1.36,-0.13 -1.8,-0.35l-0.6 3.64zm19.89 -14.77c-0.12,-3.36 0.7,-5.02 2.71,-5.09 2.28,-0.08 3.19,1.7 3.31,5.11 0.12,3.36 -0.53,5.02 -2.78,5.1 -2.22,0.08 -3.12,-1.7 -3.24,-5.12zm3.22 8.57c5.45,-0.19 7.49,-3.8 7.31,-8.88 -0.17,-5.1 -2.07,-8.43 -7.76,-8.23 -5.46,0.19 -7.47,3.79 -7.29,8.87 0.17,5.11 2.07,8.44 7.74,8.24zm10.45 -6.12c0.14,3.91 1.89,5.69 5.42,5.57 2.08,-0.07 3.37,-0.79 4.29,-1.99l0.12 0 0.66 1.49 3.74 -0.13 -0.57 -16.49 -4.41 0.15 0.4 11.41c-0.22,0.54 -0.87,2.02 -2.8,2.09 -1.49,0.05 -2.39,-0.86 -2.45,-2.67l-0.37 -10.65 -4.41 0.16 0.38 11.06zm27.75 -12.25c-0.38,-0.07 -0.94,-0.11 -1.4,-0.1 -2.16,0.08 -3.55,1.3 -4.17,2.93l-0.11 0 -1 -2.39 -3.44 0.12 0.57 16.49 4.38 -0.15 -0.39 -11.18c0.94,-0.82 2.44,-1.4 3.81,-1.45 0.58,-0.02 1.31,-0.01 1.9,0.09l-0.15 -4.36zm19.35 -0.2c-0.53,-0.13 -1.19,-0.31 -2.74,-0.26 -3.46,0.12 -7.12,2.5 -6.88,9.45 0.18,5.37 2.8,7.56 6.28,7.44 2.22,-0.07 3.52,-1.26 3.97,-1.74l0.12 -0.01 0.74 1.32 3.45 -0.12 -0.77 -22.13 -4.37 0.15 0.2 5.9zm-2.15 13.11c-1.69,0.06 -2.91,-1.24 -3.02,-4.45 -0.15,-4.47 1.39,-5.31 3.2,-5.37 0.82,-0.03 1.79,0.19 2.22,0.5l0.27 7.83c-0.58,0.86 -1.44,1.45 -2.67,1.49zm14.42 -5.65c-0.11,-3.35 0.71,-5.02 2.72,-5.08 2.27,-0.08 3.19,1.7 3.31,5.11 0.11,3.36 -0.53,5.02 -2.79,5.1 -2.21,0.08 -3.12,-1.71 -3.24,-5.13zm3.22 8.58c5.46,-0.19 7.49,-3.8 7.32,-8.88 -0.18,-5.11 -2.08,-8.43 -7.77,-8.23 -5.45,0.19 -7.46,3.79 -7.29,8.87 0.18,5.11 2.08,8.43 7.74,8.24zm14.06 -9.17c-0.12,-3.36 0.7,-5.02 2.72,-5.09 2.27,-0.08 3.19,1.7 3.3,5.11 0.12,3.36 -0.53,5.02 -2.78,5.1 -2.21,0.08 -3.12,-1.71 -3.24,-5.12zm3.22 8.57c5.46,-0.19 7.49,-3.8 7.32,-8.88 -0.18,-5.11 -2.08,-8.43 -7.77,-8.23 -5.45,0.19 -7.47,3.79 -7.29,8.87 0.18,5.11 2.07,8.43 7.74,8.24zm20.25 -17.75c-0.39,-0.07 -0.94,-0.11 -1.41,-0.1 -2.16,0.08 -3.55,1.3 -4.16,2.93l-0.12 0 -0.99 -2.39 -3.44 0.12 0.57 16.49 4.38 -0.15 -0.39 -11.18c0.93,-0.82 2.44,-1.4 3.81,-1.45 0.58,-0.02 1.31,-0.01 1.9,0.09l-0.15 -4.36zm9.65 11.8c0.02,0.76 -0.49,1.41 -1.86,1.46 -1.99,0.07 -3.63,-1.07 -4.39,-1.88l-2.52 3.12c0.94,0.93 3.18,2.37 6.8,2.24 4.79,-0.16 6.41,-3.17 6.33,-5.36 -0.19,-5.51 -7.93,-4.37 -8.01,-6.85 -0.03,-0.76 0.6,-1.31 1.59,-1.34 1.52,-0.06 2.69,0.78 3.3,1.43l2.73 -2.87c-1.13,-1.21 -3.06,-2.2 -6.04,-2.09 -3.82,0.13 -6.04,2.63 -5.95,5.31 0.19,5.49 7.93,4.44 8.02,6.83zm12.74 4.29c2.75,-0.09 4.01,-0.75 4.55,-1.18l-1.25 -3.25c-0.63,0.51 -1.52,0.78 -2.23,0.8 -1.08,0.04 -1.74,-0.53 -1.78,-1.66l-0.27 -7.98 4.11 -0.14 -0.12 -3.35 -4.11 0.14 -0.14 -4.14 -2.81 0.09 -1.38 3.94 -2.1 0.95 0.09 2.74 2.1 -0.08 0.28 7.86c0.13,4 2.23,5.36 5.06,5.26zm17.43 -5.4c-0.59,0.67 -1.78,1.56 -3.56,1.62 -2.81,0.09 -4.02,-1.3 -4.17,-3.89l9.84 -0.34c0.13,-1.29 0.13,-2.11 0.1,-2.96 -0.14,-4.03 -2.65,-6.6 -6.86,-6.45 -4.76,0.16 -7.63,3.45 -7.44,8.79 0.2,5.69 2.95,8.52 8.15,8.34 3.16,-0.11 4.73,-0.95 5.98,-2.05l-2.04 -3.06zm-4.65 -8.69c1.78,-0.07 2.64,0.93 2.7,2.85l0.02 0.44 -5.81 0.2c-0.01,-1.92 1.11,-3.42 3.09,-3.49zm24.41 3.71c-0.17,-5.13 -2.75,-7.76 -6.37,-7.64 -2.07,0.08 -3.29,1.08 -3.89,1.83l-0.11 0 -0.99 -1.36 -3.23 0.11 0.77 22.15 4.37 -0.15 -0.2 -5.83c0.79,0.14 1.59,0.2 2.55,0.17 3.97,-0.14 7.31,-3.21 7.1,-9.28zm-9.84 5.31l-0.27 -7.99c0.5,-0.82 1.38,-1.31 2.38,-1.35 1.72,-0.06 3.14,1.29 3.25,4.56 0.14,3.86 -1.14,5.13 -3.27,5.2 -0.43,0.02 -1.43,-0.06 -2.09,-0.42zm12.61 0.99c0.05,1.55 1.35,2.77 2.92,2.71 1.67,-0.06 2.88,-1.36 2.83,-2.9 -0.06,-1.7 -1.36,-2.91 -3.03,-2.85 -1.57,0.06 -2.78,1.35 -2.72,3.04z"/>
  <path class="fil3" d="M219 365.7c-0.02,-0.73 -0.77,-3.82 -0.95,-4.57l-2.2 -8.6 -2.34 0 3.94 15.46 2.98 0 2.29 -9.31c0.16,-0.59 0.78,-3.22 0.86,-3.93l0.09 0c0.09,0.67 0.73,3.31 0.95,4.24l2.21 9 2.95 0 3.99 -15.46 -2.23 0 -2.2 8.85c-0.2,0.85 -0.88,3.7 -0.92,4.3l-0.1 0c-0.06,-0.62 -0.7,-3.16 -0.88,-3.91l-2.29 -9.24 -2.95 0 -2.21 9.18c-0.16,0.63 -0.82,3.22 -0.91,3.99l-0.08 0zm24.98 -0.34c-0.51,0.47 -1.54,1 -2.78,1 -2.31,0 -3.44,-1.13 -3.57,-3.8l7.58 0c0.09,-0.81 0.11,-1.52 0.11,-2.12 0,-2.9 -1.61,-4.8 -4.54,-4.8 -2.93,0 -5.31,1.98 -5.31,6.24 0,4.41 1.89,6.29 5.47,6.29 1.91,0 3.15,-0.51 4.01,-1.17l-0.97 -1.64zm-3.33 -7.94c1.76,0 2.58,1.04 2.58,2.92 0,0.09 0,0.42 -0.02,0.59l-5.54 0c0.11,-2.49 1.44,-3.51 2.98,-3.51zm14.75 6.69c0.04,2.8 1.39,4.12 3.9,4.12 1.87,0 2.94,-0.88 3.4,-1.45l0.09 0 0.35 1.21 1.78 0 0 -12.13 -2.18 0 0 8.07c-0.09,1.48 -1.15,2.5 -2.78,2.5 -1.59,0 -2.38,-0.89 -2.38,-2.67l0 -7.9 -2.18 0 0 8.25zm22.91 -4.5c-0.05,-2.69 -1.48,-4.02 -3.88,-4.02 -1.7,0 -2.93,0.93 -3.4,1.5l-0.09 0 -0.44 -1.23 -1.67 0 0 12.13 2.18 0 0 -8.53c0.39,-1.11 1.43,-1.97 2.77,-1.97 1.53,0 2.34,0.95 2.34,2.6l0 7.9 2.19 0 0 -8.38zm10.78 -3.55c-0.51,-0.11 -1.12,-0.22 -1.97,-0.22 -3.15,0 -5.62,2.03 -5.62,6.64 0,3.97 1.79,5.73 4.48,5.73 1.59,0 2.67,-0.77 3.11,-1.39l0.09 0 0.42 1.17 1.65 0 0 -16.74 -2.16 0 0 4.81zm-2.56 10.34c-1.5,0 -2.8,-1.05 -2.8,-4.14 0,-3.33 1.32,-4.57 3.62,-4.57 0.55,0 1.34,0.13 1.76,0.33l0 6.71c-0.46,0.99 -1.3,1.67 -2.58,1.67zm16.49 -1.04c-0.51,0.47 -1.54,1 -2.78,1 -2.31,0 -3.43,-1.13 -3.56,-3.8l7.58 0c0.08,-0.81 0.11,-1.52 0.11,-2.12 0,-2.9 -1.61,-4.8 -4.55,-4.8 -2.93,0 -5.31,1.98 -5.31,6.24 0,4.41 1.9,6.29 5.47,6.29 1.92,0 3.15,-0.51 4.01,-1.17l-0.97 -1.64zm-3.33 -7.94c1.77,0 2.59,1.04 2.59,2.92 0,0.09 0,0.42 -0.03,0.59l-5.53 0c0.1,-2.49 1.43,-3.51 2.97,-3.51zm14.53 -1.67c-0.26,-0.07 -0.66,-0.11 -1.17,-0.11 -1.45,0 -2.53,0.73 -3.06,1.7l-0.09 0 -0.46 -1.48 -1.67 0 0 12.13 2.15 0 0 -8.8c0.62,-0.93 1.81,-1.39 2.94,-1.39 0.44,0 0.92,0.07 1.36,0.17l0 -2.22zm7.88 8.98c0,0.9 -0.69,1.65 -2.19,1.65 -1.4,0 -2.57,-0.68 -3.26,-1.39l-1.32 1.59c0.73,0.75 2.27,1.61 4.48,1.61 3.1,0 4.47,-1.9 4.47,-3.55 0,-4.1 -6.02,-3.13 -6.02,-5.6 0,-0.84 0.66,-1.55 2.03,-1.55 0.99,0 1.92,0.47 2.45,1.04l1.41 -1.46c-0.78,-0.83 -2.12,-1.41 -3.79,-1.41 -2.72,0 -4.26,1.66 -4.26,3.48 0,4.09 6,3.14 6,5.59zm9.03 3.37c1.63,0 2.47,-0.33 2.92,-0.62l-0.58 -1.7c-0.38,0.27 -0.95,0.47 -1.81,0.47 -0.99,0 -1.61,-0.53 -1.61,-1.72l0 -6.95 3.25 0 0 -1.72 -3.25 0 0 -3.16 -1.45 0 -0.7 3.07 -1.73 0.44 0 1.37 1.73 0 0 6.99c0,2.47 1.21,3.53 3.23,3.53zm11.47 -3.04c-0.49,0.75 -1.46,1.43 -2.67,1.43 -1.24,0 -1.92,-0.77 -1.92,-1.72 0,-1.59 1.92,-2.25 4.59,-2.12l0 2.41zm-2.28 -9.4c-2.55,0 -3.72,1.48 -4.16,2.08l1.56 1.21c0.36,-0.62 1.08,-1.44 2.56,-1.44 1.44,0 2.32,0.53 2.32,2.32l0 1.21c-4.15,-0.11 -6.75,1.19 -6.75,3.93 0,1.65 1.26,3.24 3.53,3.24 1.96,0 2.91,-0.88 3.46,-1.55l0.09 0c0.31,0.82 1.01,1.44 2.2,1.44 0.31,0 0.64,-0.07 0.93,-0.22l0 -1.57 -0.33 0c-0.78,0 -1.08,-0.59 -1.08,-1.57l0 -5.28c0,-2.67 -1.59,-3.8 -4.33,-3.8zm18.16 3.95c-0.05,-2.69 -1.49,-4.02 -3.89,-4.02 -1.7,0 -2.93,0.93 -3.39,1.5l-0.09 0 -0.44 -1.23 -1.68 0 0 12.13 2.19 0 0 -8.53c0.39,-1.11 1.43,-1.97 2.77,-1.97 1.53,0 2.34,0.95 2.34,2.6l0 7.9 2.19 0 0 -8.38zm10.77 -3.55c-0.5,-0.11 -1.12,-0.22 -1.96,-0.22 -3.15,0 -5.62,2.03 -5.62,6.64 0,3.97 1.79,5.73 4.48,5.73 1.58,0 2.67,-0.77 3.1,-1.39l0.1 0 0.42 1.17 1.65 0 0 -16.74 -2.17 0 0 4.81zm-2.55 10.34c-1.5,0 -2.8,-1.05 -2.8,-4.14 0,-3.33 1.32,-4.57 3.62,-4.57 0.55,0 1.34,0.13 1.76,0.33l0 6.71c-0.46,0.99 -1.3,1.67 -2.58,1.67zm16.98 -4.56c0,-2.96 0.81,-4.39 2.86,-4.39 2.14,0 3,1.5 3,4.54 0,2.96 -0.75,4.39 -2.87,4.39 -2.11,0 -2.99,-1.52 -2.99,-4.54zm2.86 6.35c3.79,0 5.25,-2.58 5.25,-6.33 0,-3.73 -1.28,-6.22 -5.12,-6.22 -3.79,0 -5.24,2.58 -5.24,6.33 0,3.73 1.27,6.22 5.11,6.22zm8.45 -4.08c0.04,2.8 1.38,4.12 3.9,4.12 1.87,0 2.93,-0.88 3.4,-1.45l0.08 0 0.35 1.21 1.79 0 0 -12.13 -2.18 0 0 8.07c-0.09,1.48 -1.15,2.5 -2.78,2.5 -1.59,0 -2.38,-0.89 -2.38,-2.67l0 -7.9 -2.18 0 0 8.25zm19.88 -8.36c-0.26,-0.07 -0.66,-0.11 -1.17,-0.11 -1.45,0 -2.53,0.73 -3.06,1.7l-0.09 0 -0.46 -1.48 -1.67 0 0 12.13 2.15 0 0 -8.8c0.62,-0.93 1.81,-1.39 2.94,-1.39 0.44,0 0.92,0.07 1.36,0.17l0 -2.22zm15.13 9.31c-0.49,0.75 -1.46,1.43 -2.67,1.43 -1.24,0 -1.92,-0.77 -1.92,-1.72 0,-1.59 1.92,-2.25 4.59,-2.12l0 2.41zm-2.27 -9.4c-2.56,0 -3.73,1.48 -4.17,2.08l1.57 1.21c0.35,-0.62 1.08,-1.44 2.55,-1.44 1.44,0 2.32,0.53 2.32,2.32l0 1.21c-4.14,-0.11 -6.75,1.19 -6.75,3.93 0,1.65 1.26,3.24 3.53,3.24 1.96,0 2.91,-0.88 3.46,-1.55l0.09 0c0.31,0.82 1.01,1.44 2.21,1.44 0.3,0 0.64,-0.07 0.92,-0.22l0 -1.57 -0.33 0c-0.77,0 -1.08,-0.59 -1.08,-1.57l0 -5.28c0,-2.67 -1.59,-3.8 -4.32,-3.8zm14.22 9.07c0,0.9 -0.68,1.65 -2.18,1.65 -1.41,0 -2.58,-0.68 -3.27,-1.39l-1.32 1.59c0.73,0.75 2.27,1.61 4.48,1.61 3.11,0 4.47,-1.9 4.47,-3.55 0,-4.1 -6.01,-3.13 -6.01,-5.6 0,-0.84 0.66,-1.55 2.02,-1.55 0.99,0 1.92,0.47 2.45,1.04l1.41 -1.46c-0.77,-0.83 -2.12,-1.41 -3.79,-1.41 -2.71,0 -4.26,1.66 -4.26,3.48 0,4.09 6,3.14 6,5.59zm11.03 0c0,0.9 -0.69,1.65 -2.19,1.65 -1.41,0 -2.58,-0.68 -3.26,-1.39l-1.32 1.59c0.72,0.75 2.27,1.61 4.47,1.61 3.11,0 4.48,-1.9 4.48,-3.55 0,-4.1 -6.02,-3.13 -6.02,-5.6 0,-0.84 0.66,-1.55 2.02,-1.55 1,0 1.92,0.47 2.45,1.04l1.41 -1.46c-0.77,-0.83 -2.11,-1.41 -3.79,-1.41 -2.71,0 -4.25,1.66 -4.25,3.48 0,4.09 6,3.14 6,5.59zm5.88 3.26l2.18 0 0 -12.13 -2.18 0 0 12.13zm-0.42 -15.55c0,0.8 0.64,1.41 1.43,1.41 0.84,0 1.46,-0.61 1.46,-1.41 0,-0.86 -0.62,-1.47 -1.46,-1.47 -0.79,0 -1.43,0.61 -1.43,1.47zm15.88 3.95c-0.84,-0.4 -2.06,-0.66 -3.78,-0.66 -3.98,0 -5.9,2.66 -5.9,6.4 0,4.2 2.16,5.66 4.67,5.66 1.41,0 2.38,-0.53 2.78,-0.88l0.08 0 0 0.97c0,2.05 -0.83,2.98 -2.86,2.98 -1.52,0 -2.55,-0.56 -3.15,-1.24l-1.26 1.7c0.55,0.57 1.76,1.39 4.26,1.39 3.08,0 5.16,-1.59 5.16,-4.81l0 -11.51zm-2.16 1.48l0 7.06c-0.54,0.65 -1.42,1.03 -2.32,1.03 -1.61,0 -3,-0.84 -3,-4.02 0,-2.95 1.39,-4.38 3.53,-4.38 0.7,0 1.3,0.11 1.79,0.31zm15.56 1.74c-0.04,-2.69 -1.48,-4.02 -3.88,-4.02 -1.7,0 -2.93,0.93 -3.4,1.5l-0.09 0 -0.43 -1.23 -1.68 0 0 12.13 2.18 0 0 -8.53c0.4,-1.11 1.43,-1.97 2.78,-1.97 1.52,0 2.33,0.95 2.33,2.6l0 7.9 2.19 0 0 -8.38zm12.48 -2.16l-0.09 0c-0.44,-1.04 -1.32,-1.86 -3.15,-1.86 -1.68,0 -2.69,0.87 -3.16,1.5l-0.08 0 -0.42 -1.23 -1.72 0 0 12.13 2.18 0 0 -8.53c0.26,-1 1.17,-1.97 2.47,-1.97 1.43,0 2.2,0.95 2.2,2.72l0 7.78 2.19 0 0 -8.67c0.33,-0.93 1.28,-1.83 2.55,-1.83 1.3,0 2.15,0.82 2.15,2.56l0 7.94 2.18 0 0 -8.36c0,-2.69 -1.35,-4.04 -3.73,-4.04 -1.85,0 -3.04,0.91 -3.57,1.86zm19.01 7.91c-0.52,0.47 -1.55,1 -2.78,1 -2.32,0 -3.44,-1.13 -3.57,-3.8l7.58 0c0.09,-0.81 0.11,-1.52 0.11,-2.12 0,-2.9 -1.61,-4.8 -4.54,-4.8 -2.93,0 -5.31,1.98 -5.31,6.24 0,4.41 1.89,6.29 5.46,6.29 1.92,0 3.15,-0.51 4.01,-1.17l-0.96 -1.64zm-3.33 -7.94c1.76,0 2.58,1.04 2.58,2.92 0,0.09 0,0.42 -0.03,0.59l-5.53 0c0.11,-2.49 1.43,-3.51 2.98,-3.51zm17.55 2.19c-0.05,-2.69 -1.48,-4.02 -3.88,-4.02 -1.7,0 -2.93,0.93 -3.4,1.5l-0.09 0 -0.44 -1.23 -1.67 0 0 12.13 2.18 0 0 -8.53c0.39,-1.11 1.43,-1.97 2.77,-1.97 1.53,0 2.34,0.95 2.34,2.6l0 7.9 2.19 0 0 -8.38zm7.43 8.49c1.63,0 2.46,-0.33 2.91,-0.62l-0.58 -1.7c-0.37,0.27 -0.95,0.47 -1.8,0.47 -1,0 -1.62,-0.53 -1.62,-1.72l0 -6.95 3.25 0 0 -1.72 -3.25 0 0 -3.16 -1.45 0 -0.7 3.07 -1.73 0.44 0 1.37 1.73 0 0 6.99c0,2.47 1.21,3.53 3.24,3.53zm5.15 3.24c1.5,-0.51 3.14,-2.11 3.14,-4.19 0,-1.34 -0.75,-2.16 -1.81,-2.16 -0.91,0 -1.52,0.66 -1.52,1.5l0 0.2c0.81,0.38 1.32,0.79 1.32,1.59 0,0.81 -0.73,1.52 -1.83,1.98l0.7 1.08z"/>
  <path class="fil3" d="M567.48 359.89l0 -0.08c1.16,-0.42 2.24,-1.52 2.24,-3.27 0,-3.1 -2.24,-4.01 -4.98,-4.01l-5.53 0 0 15.46 5.11 0c5.14,0 6.15,-2.73 6.15,-4.74 0,-2.19 -1.52,-3.18 -2.99,-3.36zm-1 -2.88c0,0.88 -0.64,1.71 -2.27,1.71l-1.68 0 0 -3.41 1.81 0c1.59,0 2.14,0.75 2.14,1.7zm-1.63 8.2l-2.32 0 0 -3.7 2.15 0c1.25,0 2.38,0.5 2.38,1.85 0,0.88 -0.51,1.85 -2.21,1.85zm8.38 2.78l3.33 0 0 -12.46 -3.33 0 0 12.46zm-0.29 -15.7c0,1.03 0.84,1.87 1.9,1.87 1.12,0 1.96,-0.84 1.96,-1.87 0,-1.15 -0.84,-1.99 -1.96,-1.99 -1.06,0 -1.9,0.84 -1.9,1.99zm16.71 3.83c-1.09,-0.48 -2.44,-0.75 -4.63,-0.75 -4.07,0 -6.06,2.85 -6.06,6.36 0,4.47 2.31,5.75 4.9,5.75 1.12,0 1.98,-0.28 2.45,-0.7l0.08 0 0 0.64c0,1.76 -0.72,2.4 -2.45,2.4 -1.3,0 -2.51,-0.59 -3.13,-1.45l-1.87 2.45c0.7,0.83 1.94,1.69 5,1.69 3.33,0 5.71,-1.68 5.71,-5.07l0 -11.32zm-3.28 2.1l0 5.93c-0.42,0.42 -1.01,0.64 -1.74,0.64 -1.48,0 -2.36,-0.64 -2.36,-3.2 0,-2.38 0.99,-3.59 2.74,-3.59 0.52,0 0.9,0.06 1.36,0.22zm12.7 9.77l4.85 0c5.69,0 7.26,-4.13 7.26,-8.07 0,-4.94 -2.28,-7.39 -7.3,-7.39l-4.81 0 0 15.46zm3.35 -12.68l1.22 0c2.45,0 4.08,1.19 4.08,4.92 0,2.97 -0.91,4.98 -4.06,4.98l-1.24 0 0 -9.9zm19.62 9.17c-0.46,0.49 -1.38,1.13 -2.73,1.13 -2.12,0 -3,-1.08 -3.04,-3.05l7.43 0c0.13,-0.97 0.16,-1.58 0.16,-2.22 0,-3.05 -1.84,-5.05 -5.01,-5.05 -3.59,0 -5.84,2.4 -5.84,6.44 0,4.3 2,6.5 5.93,6.5 2.38,0 3.59,-0.59 4.56,-1.38l-1.46 -2.37zm-3.28 -6.68c1.35,0 1.96,0.77 1.96,2.22l0 0.34 -4.38 0c0.04,-1.45 0.92,-2.56 2.42,-2.56zm7.47 -6.53l0 13.66c0,2.07 1.22,3.26 3.24,3.26 0.73,0 1.19,-0.16 1.59,-0.31l0 -2.62c-0.11,0.02 -0.22,0.04 -0.46,0.04 -0.62,0 -1.04,-0.31 -1.04,-1.24l0 -12.79 -3.33 0zm6.99 16.72l3.33 0 0 -12.46 -3.33 0 0 12.46zm-0.28 -15.7c0,1.03 0.83,1.87 1.9,1.87 1.11,0 1.96,-0.84 1.96,-1.87 0,-1.15 -0.85,-1.99 -1.96,-1.99 -1.07,0 -1.9,0.84 -1.9,1.99zm8.89 3.24l-3.6 0 4.23 12.46 3.73 0 3.92 -12.46 -3.33 0 -1.6 5.95c-0.45,1.63 -0.62,2.45 -0.75,3.38l-0.09 0c-0.18,-0.97 -0.36,-1.75 -0.82,-3.38l-1.69 -5.95zm18.25 8.95c-0.46,0.49 -1.39,1.13 -2.73,1.13 -2.12,0 -3,-1.08 -3.05,-3.05l7.43 0c0.14,-0.97 0.16,-1.58 0.16,-2.22 0,-3.05 -1.83,-5.05 -5.01,-5.05 -3.59,0 -5.84,2.4 -5.84,6.44 0,4.3 2.01,6.5 5.93,6.5 2.38,0 3.59,-0.59 4.56,-1.38l-1.45 -2.37zm-3.28 -6.68c1.34,0 1.96,0.77 1.96,2.22l0 0.34 -4.39 0c0.05,-1.45 0.93,-2.56 2.43,-2.56zm15.12 -2.43c-0.29,-0.06 -0.71,-0.11 -1.06,-0.11 -1.63,0 -2.71,0.89 -3.22,2.1l-0.09 0 -0.68 -1.83 -2.6 0 0 12.46 3.3 0 0 -8.45c0.73,-0.59 1.88,-0.99 2.92,-0.99 0.43,0 0.98,0.02 1.43,0.11l0 -3.29zm0.94 16.94c0.32,0.16 1.15,0.38 2.03,0.38 2.91,0 4.15,-1.9 4.85,-4.08l4.19 -13.08 -3.44 0 -1.16 4.23c-0.47,1.68 -0.75,3.22 -0.93,4.35l-0.09 0c-0.15,-1.06 -0.64,-2.93 -1.1,-4.35l-1.39 -4.23 -3.72 0 4.67 12.42c-0.11,1.25 -0.82,1.93 -2.01,1.93 -0.55,0 -1.01,-0.13 -1.35,-0.3l-0.55 2.73zm28.47 -4.32l0 -2.78 -6.06 0 0 -3.68 4.98 0 0 -2.78 -4.98 0 0 -3.44 5.8 0 0 -2.78 -9.15 0 0 15.46 9.41 0zm13.21 -8.62c0,-2.8 -1.39,-4.15 -3.82,-4.15 -1.3,0 -2.6,0.57 -3.35,1.48l-0.09 0 -0.66 -1.17 -2.6 0 0 12.46 3.33 0 0 -8.47c0.38,-0.9 1.17,-1.48 2.14,-1.48 1.12,0 1.72,0.75 1.72,2.03l0 7.92 3.33 0 0 -8.62zm11.3 5.11c-0.46,0.49 -1.39,1.13 -2.73,1.13 -2.12,0 -3,-1.08 -3.04,-3.05l7.43 0c0.13,-0.97 0.15,-1.58 0.15,-2.22 0,-3.05 -1.83,-5.05 -5,-5.05 -3.6,0 -5.85,2.4 -5.85,6.44 0,4.3 2.01,6.5 5.94,6.5 2.38,0 3.59,-0.59 4.56,-1.38l-1.46 -2.37zm-3.28 -6.68c1.34,0 1.96,0.77 1.96,2.22l0 0.34 -4.38 0c0.04,-1.45 0.92,-2.56 2.42,-2.56zm15.12 -2.43c-0.29,-0.06 -0.71,-0.11 -1.06,-0.11 -1.63,0 -2.71,0.89 -3.21,2.1l-0.09 0 -0.69 -1.83 -2.6 0 0 12.46 3.31 0 0 -8.45c0.72,-0.59 1.87,-0.99 2.91,-0.99 0.44,0 0.99,0.02 1.43,0.11l0 -3.29zm11.6 0.75c-1.1,-0.48 -2.45,-0.75 -4.63,-0.75 -4.08,0 -6.07,2.85 -6.07,6.36 0,4.47 2.32,5.75 4.9,5.75 1.12,0 1.99,-0.28 2.45,-0.7l0.08 0 0 0.64c0,1.76 -0.72,2.4 -2.45,2.4 -1.29,0 -2.51,-0.59 -3.13,-1.45l-1.87 2.45c0.71,0.83 1.94,1.69 5,1.69 3.34,0 5.72,-1.68 5.72,-5.07l0 -11.32zm-3.29 2.1l0 5.93c-0.42,0.42 -1.01,0.64 -1.74,0.64 -1.48,0 -2.36,-0.64 -2.36,-3.2 0,-2.38 0.99,-3.59 2.74,-3.59 0.52,0 0.9,0.06 1.36,0.22zm5.65 14.09c0.31,0.16 1.15,0.38 2.03,0.38 2.9,0 4.14,-1.9 4.85,-4.08l4.18 -13.08 -3.43 0 -1.17 4.23c-0.46,1.68 -0.75,3.22 -0.93,4.35l-0.09 0c-0.15,-1.06 -0.64,-2.93 -1.1,-4.35l-1.39 -4.23 -3.72 0 4.67 12.42c-0.11,1.25 -0.82,1.93 -2,1.93 -0.56,0 -1.02,-0.13 -1.35,-0.3l-0.55 2.73zm17.66 0.51c3.86,-1.15 4.48,-4.08 4.48,-6.55l0 -10.74 -3.33 0 0 10.63c0,2.54 -0.58,3.33 -2.21,4.04l1.06 2.62zm0.88 -20.53c0,1.03 0.84,1.87 1.9,1.87 1.12,0 1.96,-0.84 1.96,-1.87 0,-1.15 -0.84,-1.99 -1.96,-1.99 -1.06,0 -1.9,0.84 -1.9,1.99zm6.53 11.6c0,2.96 1.28,4.34 3.95,4.34 1.56,0 2.56,-0.5 3.28,-1.38l0.09 0 0.46 1.14 2.83 0 0 -12.46 -3.33 0 0 8.62c-0.18,0.4 -0.71,1.5 -2.17,1.5 -1.12,0 -1.78,-0.7 -1.78,-2.07l0 -8.05 -3.33 0 0 8.36zm18.97 0.64c0,0.57 -0.4,1.05 -1.44,1.05 -1.5,0 -2.71,-0.9 -3.26,-1.53l-1.98 2.28c0.68,0.74 2.33,1.88 5.06,1.88 3.62,0 4.92,-2.23 4.92,-3.88 0,-4.17 -5.87,-3.51 -5.87,-5.38 0,-0.58 0.49,-0.98 1.24,-0.98 1.15,0 2.01,0.67 2.45,1.17l2.14 -2.09c-0.82,-0.94 -2.25,-1.74 -4.5,-1.74 -2.89,0 -4.63,1.83 -4.63,3.86 0,4.14 5.87,3.55 5.87,5.36zm9.47 3.57c2.08,0 3.05,-0.46 3.47,-0.77l-0.86 -2.49c-0.49,0.37 -1.17,0.55 -1.7,0.55 -0.82,0 -1.3,-0.44 -1.3,-1.3l0 -6.03 3.11 0 0 -2.53 -3.11 0 0 -3.13 -2.12 0 -1.14 2.93 -1.61 0.66 0 2.07 1.58 0 0 5.94c0,3.02 1.55,4.1 3.68,4.1zm18.33 -17.13c-0.53,-0.14 -1.13,-0.23 -2.03,-0.23 -3.09,0 -4.45,1.83 -4.45,3.91l0 0.88 -1.9 0 0 2.29 1.83 0 0 10.17 3.33 0 0 -10.17 2.78 0 0 -2.29 -2.71 0 0 -0.79c0,-0.87 0.33,-1.3 1.25,-1.3 0.42,0 0.93,0.08 1.43,0.21l0.47 -2.68zm4.07 10.71c0,-2.54 0.67,-3.77 2.19,-3.77 1.71,0 2.36,1.37 2.36,3.95 0,2.54 -0.53,3.77 -2.23,3.77 -1.68,0 -2.32,-1.37 -2.32,-3.95zm2.21 6.55c4.12,0 5.75,-2.67 5.75,-6.5 0,-3.86 -1.34,-6.42 -5.64,-6.42 -4.12,0 -5.73,2.66 -5.73,6.5 0,3.87 1.34,6.42 5.62,6.42zm15.72 -12.86c-0.29,-0.06 -0.71,-0.11 -1.06,-0.11 -1.63,0 -2.71,0.89 -3.22,2.1l-0.09 0 -0.68 -1.83 -2.6 0 0 12.46 3.3 0 0 -8.45c0.73,-0.59 1.88,-0.99 2.91,-0.99 0.44,0 0.99,0.02 1.44,0.11l0 -3.29zm7.1 16.94c0.31,0.16 1.15,0.38 2.03,0.38 2.9,0 4.14,-1.9 4.85,-4.08l4.18 -13.08 -3.43 0 -1.17 4.23c-0.47,1.68 -0.75,3.22 -0.93,4.35l-0.09 0c-0.15,-1.06 -0.64,-2.93 -1.1,-4.35l-1.39 -4.23 -3.72 0 4.67 12.42c-0.11,1.25 -0.82,1.93 -2.01,1.93 -0.55,0 -1.01,-0.13 -1.34,-0.3l-0.55 2.73zm15.37 -10.63c0,-2.54 0.66,-3.77 2.18,-3.77 1.71,0 2.36,1.37 2.36,3.95 0,2.54 -0.53,3.77 -2.23,3.77 -1.68,0 -2.31,-1.37 -2.31,-3.95zm2.2 6.55c4.12,0 5.75,-2.67 5.75,-6.5 0,-3.86 -1.34,-6.42 -5.64,-6.42 -4.12,0 -5.73,2.66 -5.73,6.5 0,3.87 1.34,6.42 5.62,6.42zm8.02 -4.34c0,2.96 1.28,4.34 3.95,4.34 1.57,0 2.56,-0.5 3.28,-1.38l0.09 0 0.46 1.14 2.83 0 0 -12.46 -3.33 0 0 8.62c-0.18,0.4 -0.71,1.5 -2.17,1.5 -1.12,0 -1.78,-0.7 -1.78,-2.07l0 -8.05 -3.33 0 0 8.36zm13.17 2.18c0,1.17 0.95,2.12 2.13,2.12 1.26,0 2.21,-0.95 2.21,-2.12 0,-1.28 -0.95,-2.23 -2.21,-2.23 -1.18,0 -2.13,0.95 -2.13,2.23z"/>
  <path class="fil4" d="M373.66 148.64c-1.4,0.05 -2.82,0.26 -4.25,0.63 -4.28,1.13 -6.57,2.78 -6.88,4.93 -0.11,1.23 -0.03,3.17 0.23,5.83 0.25,2.99 0.59,5.3 1.02,6.93 0.62,2.34 1.85,5.56 3.69,9.65 4.46,10.28 9.54,18.15 15.24,23.63 1.16,1.11 2.1,1.79 2.82,2.03 0.72,0.25 1.64,0.22 2.76,-0.07 2.04,-0.54 3.88,-1.74 5.52,-3.59 1.63,-1.84 3.96,-5.35 6.96,-10.5 3.84,-6.91 5.98,-13.69 6.41,-20.34 0.14,-2.33 -0.02,-4.41 -0.51,-6.25 -0.73,-2.75 -2.44,-4.92 -5.15,-6.49 -3.61,-2.1 -8.05,-3.76 -13.34,-4.98 -5.28,-1.23 -10.12,-1.69 -14.52,-1.41zm-27.98 -4.39c2.36,-3.45 4.44,-5.88 6.25,-7.29 1.81,-1.4 4.5,-2.58 8.07,-3.52 0.2,-0.05 0.59,-0.13 1.17,-0.23 0.57,-0.09 1.33,-0.21 2.27,-0.35 0.95,-0.14 1.83,-0.32 2.64,-0.54 10.36,-2.07 19.12,-2.37 26.27,-0.88 6.16,1.43 9.86,2.63 11.1,3.62 0.15,0.18 0.62,0.49 1.39,0.94 0.77,0.45 1.3,0.8 1.59,1.05 1.18,0.78 3.1,2.56 5.74,5.35 2.65,2.8 4.35,4.8 5.11,6.01 1.09,1.68 2.08,3.17 2.97,4.45 1.2,1.65 3.05,6.4 5.56,14.24l0.48 1.84c0.33,1.22 0.49,2.87 0.49,4.94 -0.09,2.53 -0.09,4 0.02,4.41 0.11,0.41 -0.14,2.06 -0.74,4.94 -0.6,2.89 -1.14,5.1 -1.6,6.64 -2.28,7.47 -5.45,13.43 -9.51,17.89 -1.84,2.12 -4.44,4.14 -7.8,6.06 -3.37,1.93 -6.53,3.28 -9.48,4.06 -2.66,0.7 -4.48,1.02 -5.48,0.95 -0.99,-0.06 -2.78,-0.62 -5.35,-1.69 -2.08,-0.87 -3.28,-1.26 -3.58,-1.18 -0.21,0.05 -0.55,1.02 -1.04,2.89 -0.78,3.26 -1.88,5.08 -3.3,5.45 -0.92,0.24 -2.7,-0.49 -5.33,-2.19 -2.37,-1.56 -4.18,-3.04 -5.43,-4.46 -1.24,-1.41 -3.34,-4.19 -6.28,-8.32l-4.27 -6.23 -1.55 -4.66c-0.4,-1.09 -0.99,-2.71 -1.77,-4.85 -0.79,-2.14 -1.37,-3.92 -1.74,-5.35 -0.38,-1.42 -0.64,-2.61 -0.78,-3.56 -0.05,-0.2 -0.18,-0.77 -0.37,-1.7 -0.19,-0.93 -0.36,-1.7 -0.53,-2.31 -1.75,-6.63 -3.59,-12.57 -5.52,-17.84 -0.65,-2.45 -1.18,-4.66 -1.59,-6.62 -0.68,-3.42 -0.93,-5.7 -0.74,-6.84 0.19,-1.14 1.08,-2.84 2.66,-5.12z"/>
  <path class="fil4" d="M449.6 139.91c2.45,-1.5 4.7,-2.42 6.73,-2.75 1.44,-0.24 2.64,-0.37 3.62,-0.41 7,-0.76 13.84,0.52 20.52,3.86 3.36,1.79 5.71,3.74 7.04,5.86 0.65,1 1.07,2.1 1.27,3.29 0.27,1.68 0.05,3.37 -0.65,5.08 -0.61,1.57 -3.29,5.66 -8.05,12.27 -4.76,6.61 -7.75,10.32 -8.97,11.13 -1.78,1.14 -3.33,1.82 -4.64,2.04 -2.16,0.35 -4.18,0 -6.07,-1.04 -1.73,-0.83 -2.69,-1.84 -2.89,-3.03 -0.13,-0.84 -0.03,-1.72 0.31,-2.63 0.69,-2.57 3.2,-6.05 7.52,-10.44 4.61,-4.92 6.83,-7.86 6.68,-8.82 -0.2,-1.19 -1.58,-2.16 -4.16,-2.91 -2.58,-0.75 -5.44,-0.99 -8.59,-0.73l-1.98 0.32c-2.27,0.37 -3.79,1.02 -4.56,1.94 -0.78,0.93 -1.28,2.57 -1.51,4.94 -0.17,2 0.06,4.91 0.68,8.73 0.45,2.76 0.99,4.94 1.62,6.56 2.17,5.05 5.7,8.29 10.6,9.7 1.81,0.57 4.52,0.62 8.13,0.15l2.7 -0.43c2.15,-0.35 4.1,-0.85 5.83,-1.5 4.05,-1.52 7.5,-3.37 10.34,-5.55 0.44,-0.32 1.14,-0.55 2.1,-0.71 1.55,-0.25 2.5,0.7 2.85,2.85 0.14,0.84 0.18,1.51 0.14,2.01 -0.09,3.21 -1.13,6.26 -3.11,9.16 -1.49,2.21 -2.74,3.58 -3.76,4.11 -1.68,1.01 -3.7,2.14 -6.08,3.38 -4.71,2.73 -9.35,4.47 -13.89,5.21 -2.28,0.37 -5.38,0.56 -9.3,0.58 -2.34,0.02 -4.09,-0.19 -5.26,-0.62 -4.26,-1.27 -8.57,-3.98 -12.93,-8.12 -4.35,-4.14 -7.16,-8.57 -8.42,-13.28 -0.25,-0.82 -0.49,-1.88 -0.7,-3.2 -0.2,-1.2 -0.32,-3.08 -0.37,-5.65 -0.13,-6.86 1.17,-12.84 3.91,-17.95 1.02,-2.01 2.84,-4.45 5.44,-7.33 2.6,-2.88 4.38,-4.4 5.34,-4.56 0.12,-0.02 0.96,-0.52 2.52,-1.51z"/>
  <path class="fil4" d="M500.01 106.49c0.59,-0.38 1.62,-0.65 3.09,-0.8 1.15,-0.13 2.02,0 2.59,0.36 0.56,0.36 1.02,1.22 1.38,2.55 0.94,2.87 2.62,15.74 5.05,38.59l0.87 8.18c1.32,12.48 2.24,19.88 2.75,22.21 0.51,2.34 1.71,4.83 3.58,7.5 1.52,2.28 2.32,3.89 2.42,4.83 0.17,1.57 -0.17,2.91 -1,4 -0.84,1.1 -1.99,1.72 -3.46,1.88 -1.05,0.11 -2.9,-0.38 -5.57,-1.47 -2.65,-1.1 -4.68,-2.21 -6.08,-3.34 -2.65,-2.04 -4.89,-5.1 -6.69,-9.15 -1.56,-3.65 -2.61,-6.61 -3.17,-8.89 -0.56,-2.27 -1.18,-6.55 -1.84,-12.84 -0.78,-7.34 -1.41,-13.79 -1.9,-19.36l-1.97 -21.58 1.46 -2.7c2.55,-4.94 5.38,-8.26 8.49,-9.97z"/>
  <path class="fil4" d="M530.77 132.42c1.12,-0.55 2.43,-0.82 3.94,-0.82 2.56,0.15 3.92,1.21 4.07,3.17 0.1,1.27 0.35,2.3 0.76,3.08 1.13,2.7 1.95,7.4 2.45,14.09 0.21,2.66 0.41,8.13 0.63,16.41 0.22,8.28 0.25,12.78 0.07,13.49 0.02,0.23 -0.1,1.75 -0.36,4.55 -0.14,4.19 -1.05,6.76 -2.72,7.69 -0.66,0.52 -1.47,0.52 -2.44,0.01 -3.01,-1.39 -6.65,-6.51 -10.91,-15.36 -1.65,-3.36 -2.71,-5.92 -3.19,-7.68 -0.48,-1.77 -0.98,-5.24 -1.49,-10.43 -0.07,-0.92 -0.2,-2.25 -0.39,-3.97 -0.19,-1.73 -0.31,-3 -0.37,-3.8 -0.07,-0.93 -0.12,-2 -0.16,-3.21 -0.03,-1.22 -0.05,-1.89 -0.06,-2l-0.07 -3.3 2.17 -3.48c2.8,-4.5 5.48,-7.32 8.07,-8.44zm-2.61 -39.16c0.45,-0.14 1.25,-0.26 2.41,-0.35 1.73,-0.13 3.02,0 3.86,0.4 1.33,0.71 2.2,2.97 2.6,6.77l0.14 1.9c0.13,1.62 -0.04,3.31 -0.48,5.09 -0.52,2.36 -0.77,3.66 -0.75,3.89 0.02,0.34 -0.28,1.01 -0.9,1.98 -0.62,0.98 -1.74,1.53 -3.36,1.65 -1.61,0.12 -3.03,-0.18 -4.24,-0.9 -3.03,-1.63 -5.83,-4.14 -8.41,-7.55 -1.53,-1.85 -2.33,-3.19 -2.39,-4 -0.03,-0.46 0.1,-0.99 0.4,-1.59 0.62,-1.09 2.19,-2.46 4.74,-4.11 2.55,-1.64 4.67,-2.7 6.38,-3.18z"/>
  <path class="fil4" d="M583.8 136.76c2.31,-0.29 3.52,-0.43 3.62,-0.44 0.74,-0.02 1.38,0.17 1.92,0.57 1.08,0.81 1.63,1.53 1.66,2.17 0.02,0.63 -0.58,1.7 -1.8,3.22 -1.52,1.84 -2.72,3.81 -3.6,5.89 -0.88,2.09 -2.46,6.81 -4.75,14.17 -2.58,7.99 -4.11,12.9 -4.58,14.71 -0.92,3.93 -1.51,6.96 -1.75,9.08 -0.4,4.12 -1.05,6.73 -1.96,7.81l-1.06 1.3 -1.6 -0.42c-0.75,-0.29 -1.5,-0.66 -2.25,-1.11 -0.76,-0.45 -1.62,-1.03 -2.59,-1.73 -0.98,-0.71 -1.68,-1.21 -2.11,-1.52 -1.29,-0.8 -2.19,-1.66 -2.7,-2.6 -0.5,-0.93 -1.17,-2.7 -1.99,-5.31 -0.83,-2.72 -1.73,-5.27 -2.71,-7.67 -0.98,-2.39 -1.52,-3.74 -1.64,-4.05 -1.52,-4.49 -3.16,-7.86 -4.92,-10.13 -0.89,-1.23 -2.04,-3.25 -3.45,-6.06 -1.41,-2.8 -2.13,-4.72 -2.17,-5.78 -0.06,-1.79 1.14,-3.99 3.58,-6.6 2.96,-2.95 5.34,-4.45 7.13,-4.51 2,-0.07 3.29,0.73 3.88,2.4 0.9,1.76 1.84,6.38 2.83,13.83 0.71,5.46 1.64,9.76 2.8,12.88 1.17,3.34 2.28,4.99 3.33,4.96 1.16,-0.04 2.08,-2.55 2.76,-7.53 1.96,-14.1 3.13,-21.52 3.53,-22.27 0.3,-0.65 1.27,-1.52 2.92,-2.63 2.28,-1.34 4.84,-2.22 7.67,-2.63z"/>
  <path class="fil4" d="M611.06 133.22c2.57,-0.97 4.84,-1.43 6.81,-1.38 1.39,0.04 2.54,0.13 3.47,0.27 6.7,0.52 12.88,2.94 18.56,7.26 2.83,2.27 4.68,4.52 5.55,6.75 0.44,1.05 0.64,2.16 0.61,3.31 -0.04,1.62 -0.55,3.17 -1.51,4.65 -0.85,1.37 -4.09,4.73 -9.73,10.07 -5.64,5.36 -9.11,8.3 -10.4,8.85 -1.87,0.76 -3.44,1.12 -4.71,1.09 -2.08,-0.06 -3.92,-0.74 -5.51,-2.06 -1.47,-1.08 -2.2,-2.2 -2.16,-3.35 0.02,-0.81 0.27,-1.62 0.75,-2.42 1.11,-2.28 4.07,-5.1 8.91,-8.44 5.19,-3.8 7.8,-6.16 7.83,-7.09 0.03,-1.15 -1.1,-2.31 -3.38,-3.47 -2.29,-1.17 -4.93,-1.9 -7.93,-2.21l-1.91 -0.05c-2.2,-0.06 -3.74,0.28 -4.63,1.01 -0.89,0.73 -1.65,2.18 -2.29,4.36 -0.51,1.84 -0.81,4.61 -0.91,8.31 -0.07,2.67 0.05,4.81 0.35,6.44 1.14,5.12 3.88,8.78 8.22,10.98 1.6,0.86 4.13,1.39 7.6,1.59l2.6 0.07c2.09,0.06 4,-0.07 5.74,-0.37 4.07,-0.7 7.63,-1.82 10.68,-3.36 0.47,-0.22 1.17,-0.32 2.1,-0.3 1.5,0.04 2.22,1.11 2.17,3.19 -0.02,0.81 -0.1,1.45 -0.22,1.9 -0.66,3 -2.18,5.68 -4.56,8.04 -1.78,1.81 -3.2,2.87 -4.25,3.19 -1.75,0.65 -3.86,1.35 -6.31,2.09 -4.9,1.73 -9.56,2.53 -13.95,2.41 -2.2,-0.06 -5.15,-0.42 -8.83,-1.1 -2.19,-0.4 -3.8,-0.91 -4.82,-1.52 -3.77,-1.95 -7.33,-5.25 -10.68,-9.92 -3.35,-4.66 -5.2,-9.31 -5.54,-13.95 -0.09,-0.81 -0.12,-1.85 -0.09,-3.13 0.03,-1.15 0.25,-2.94 0.66,-5.36 1.1,-6.46 3.38,-11.84 6.86,-16.14 1.31,-1.71 3.45,-3.68 6.4,-5.91 2.95,-2.24 4.89,-3.35 5.82,-3.32 0.12,0 0.99,-0.32 2.63,-0.98z"/>
  <path class="fil4" d="M685.25 127.86c0.62,-0.07 1.54,-0.05 2.76,0.05 2.81,0.24 5.62,2.01 8.41,5.32 2.67,3.43 4.56,6.48 5.69,9.16 0.61,1.53 0.84,3.15 0.7,4.85 -0.18,2.08 -0.92,3.62 -2.24,4.61 -0.65,0.44 -2.26,0.55 -4.82,0.34 -5.01,-0.43 -9.19,-1.21 -12.54,-2.35 -2.39,-0.82 -4.14,-1.27 -5.23,-1.37l-0.37 -0.03c-1.26,0.27 -2.2,4.19 -2.84,11.76 -0.51,6.11 -1.08,10.61 -1.69,13.51 -2.02,9.31 -3.53,14.78 -4.52,16.42 -1.56,2.33 -2.76,3.45 -3.61,3.38 -0.86,-0.07 -2.18,-1.17 -3.97,-3.29 -1.47,-1.47 -2.51,-3.04 -3.11,-4.69 -0.21,-0.51 -1.15,-2.43 -2.83,-5.77 -2.32,-4.63 -3.51,-8.79 -3.56,-12.48 -0.08,-2.1 -0.23,-3.96 -0.46,-5.58 -0.21,-1.86 -0.17,-4.56 0.13,-8.11 0.39,-4.64 0.89,-7.67 1.51,-9.1 0.46,-1.07 0.74,-2.27 0.86,-3.62 0.09,-1.1 0.94,-2.44 2.55,-4.03 2.69,-2.72 5.24,-4.47 7.64,-5.26 5.71,-1.98 12.88,-3.22 21.54,-3.72z"/>
  <path class="fil4" d="M745.19 148.58c1.72,-0.19 3.32,-0.18 4.78,0.02 1.78,0.25 3.27,1.04 4.47,2.37 0.55,0.61 0.74,1.54 0.57,2.8 -0.18,1.25 -0.87,2.38 -2.07,3.38 -1.08,0.92 -2.01,2.2 -2.76,3.85 -0.77,1.65 -3.33,7.87 -7.69,18.66 -3.04,7.35 -6.29,13.92 -9.76,19.72 -1.08,1.66 -2.54,4.18 -4.39,7.54 -3.72,6.83 -7.39,11.49 -11.03,13.96 -1.43,1.08 -3.07,1.76 -4.91,2.04 -1.63,0.19 -3.33,0.17 -5.1,-0.07 -5.12,-0.71 -9.35,-3.26 -12.68,-7.66 -3.15,-4.16 -4.76,-8.64 -4.84,-13.44 -0.06,-1.93 -0.04,-3.2 0.05,-3.83 0.11,-0.83 0.59,-1.57 1.42,-2.2 0.83,-0.63 1.66,-0.88 2.5,-0.77 0.52,0.07 1.76,0.72 3.72,1.95 1.55,1.07 3,2.92 4.34,5.55 1.45,2.65 2.48,4.42 3.1,5.3 0.62,0.88 1.25,1.37 1.88,1.46 0.2,0.03 0.64,-0.02 1.29,-0.14 1.31,-0.25 2.34,-1.49 3.07,-3.73 0.39,-1.22 0.62,-2.15 0.71,-2.78 0.27,-1.98 -0.16,-4.65 -1.29,-8 -0.61,-1.78 -1.8,-6.23 -3.59,-13.35 -1.78,-7.11 -2.98,-11.51 -3.6,-13.19 -1.57,-4.79 -2.18,-8.49 -1.82,-11.11 0.26,-1.88 0.7,-3.31 1.31,-4.29 0.62,-0.97 1.81,-2.09 3.58,-3.33 0.36,-0.27 1.04,-0.76 2.04,-1.48 1,-0.71 1.77,-1.22 2.29,-1.52 0.52,-0.3 1.25,-0.59 2.19,-0.89 0.95,-0.29 1.84,-0.39 2.68,-0.27 2.61,0.36 4.25,1.55 4.93,3.56 0.47,1.23 0.42,6.04 -0.16,14.42 -0.57,8.39 -0.48,13.7 0.28,15.93 0.71,2.55 1.85,3.93 3.42,4.14 1.66,0.23 3.4,-0.75 5.19,-2.95 2.39,-3.39 4.15,-9.22 5.29,-17.47l0.57 -4.07c0.5,-3.66 0.89,-5.73 1.18,-6.23 0.2,-0.71 0.67,-1.39 1.4,-2.04 0.73,-0.64 1.3,-0.94 1.71,-0.88 0.42,0.06 0.97,-0.02 1.64,-0.25 1.11,-0.38 2.48,-0.62 4.09,-0.71z"/>
  <path class="fil1" d="M877.99 277.6c-0.58,0.19 -1.08,0.36 -1.67,0.55 -0.47,-0.53 -0.91,-1.1 -1.4,-1.6 -1.31,-1.34 -2.91,-2.04 -4.79,-2.04 -0.41,0 -0.81,0.01 -1.22,0.02 -1.02,0.03 -1.95,0.31 -2.78,0.92 -0.76,0.56 -1.5,1.14 -2.27,1.69 -1.01,0.74 -1.46,1.8 -1.72,2.98 -0.07,0.32 -0.1,0.66 -0.2,0.97 -0.22,0.63 -0.8,1.03 -1.4,1 -0.39,-0.03 -0.54,-0.18 -0.56,-0.58 0,-0.07 0,-0.15 0.01,-0.23 0.28,-1.74 0.78,-3.39 1.85,-4.82 0.01,-0.01 0.03,-0.04 0.05,-0.05 1.45,-1.15 2.73,-2.59 4.53,-3.2 3.29,-1.11 6.41,-0.81 9.24,1.4 0.82,0.64 1.47,1.42 2.03,2.28 0.13,0.2 0.19,0.44 0.3,0.71z"/>
  <polygon class="fil1" points="889.9,302.88 862.21,311 856.89,283.85 881.08,277.51 "/>
  <path class="fil4" d="M884.31 297.18l0 -4.73 4.06 0 0 -2.27 -4.06 0 0 -3.34 4.73 0 0 -2.27 -7.47 0 0 12.61 2.74 0zm12.92 -10.29c-0.23,-0.05 -0.58,-0.09 -0.86,-0.09 -1.33,0 -2.22,0.72 -2.63,1.71l-0.07 0 -0.56 -1.5 -2.12 0 0 10.17 2.69 0 0 -6.89c0.6,-0.49 1.53,-0.81 2.38,-0.81 0.36,0 0.81,0.02 1.17,0.09l0 -2.68zm8.13 7.43c-0.38,0.4 -1.13,0.92 -2.23,0.92 -1.73,0 -2.45,-0.88 -2.48,-2.49l6.06 0c0.11,-0.79 0.13,-1.29 0.13,-1.81 0,-2.49 -1.49,-4.12 -4.09,-4.12 -2.93,0 -4.76,1.96 -4.76,5.25 0,3.51 1.63,5.31 4.84,5.31 1.94,0 2.93,-0.48 3.72,-1.13l-1.19 -1.93zm-2.68 -5.45c1.1,0 1.61,0.63 1.61,1.81l0 0.27 -3.59 0c0.04,-1.18 0.76,-2.08 1.98,-2.08zm12.96 5.45c-0.38,0.4 -1.14,0.92 -2.23,0.92 -1.73,0 -2.45,-0.88 -2.49,-2.49l6.07 0c0.1,-0.79 0.13,-1.29 0.13,-1.81 0,-2.49 -1.5,-4.12 -4.09,-4.12 -2.93,0 -4.77,1.96 -4.77,5.25 0,3.51 1.64,5.31 4.84,5.31 1.94,0 2.93,-0.48 3.72,-1.13l-1.18 -1.93zm-2.68 -5.45c1.1,0 1.6,0.63 1.6,1.81l0 0.27 -3.58 0c0.03,-1.18 0.75,-2.08 1.98,-2.08zm11.39 8.31l3.96 0c4.64,0 5.92,-3.36 5.92,-6.59 0,-4.02 -1.86,-6.02 -5.96,-6.02l-3.92 0 0 12.61zm2.73 -10.34l0.99 0c2,0 3.33,0.97 3.33,4.01 0,2.42 -0.74,4.06 -3.31,4.06l-1.01 0 0 -8.07zm16.04 7.48c-0.38,0.4 -1.13,0.92 -2.23,0.92 -1.73,0 -2.45,-0.88 -2.49,-2.49l6.07 0c0.11,-0.79 0.13,-1.29 0.13,-1.81 0,-2.49 -1.5,-4.12 -4.09,-4.12 -2.93,0 -4.77,1.96 -4.77,5.25 0,3.51 1.64,5.31 4.84,5.31 1.95,0 2.94,-0.48 3.73,-1.13l-1.19 -1.93zm-2.68 -5.45c1.1,0 1.6,0.63 1.6,1.81l0 0.27 -3.58 0c0.04,-1.18 0.75,-2.08 1.98,-2.08zm6.12 -5.33l0 11.14c0,1.69 0.99,2.66 2.64,2.66 0.6,0 0.97,-0.12 1.29,-0.25l0 -2.14c-0.08,0.02 -0.17,0.04 -0.37,0.04 -0.5,0 -0.84,-0.26 -0.84,-1.01l0 -10.44 -2.72 0zm5.72 13.64l2.72 0 0 -10.17 -2.72 0 0 10.17zm-0.23 -12.81c0,0.84 0.68,1.53 1.55,1.53 0.91,0 1.6,-0.69 1.6,-1.53 0,-0.94 -0.69,-1.62 -1.6,-1.62 -0.87,0 -1.55,0.68 -1.55,1.62zm7.27 2.64l-2.93 0 3.45 10.17 3.04 0 3.21 -10.17 -2.72 0 -1.32 4.86c-0.36,1.33 -0.5,2 -0.61,2.76l-0.07 0c-0.14,-0.79 -0.29,-1.43 -0.67,-2.76l-1.38 -4.86zm14.92 7.31c-0.38,0.4 -1.14,0.92 -2.23,0.92 -1.73,0 -2.45,-0.88 -2.49,-2.49l6.07 0c0.11,-0.79 0.13,-1.29 0.13,-1.81 0,-2.49 -1.5,-4.12 -4.09,-4.12 -2.93,0 -4.77,1.96 -4.77,5.25 0,3.51 1.64,5.31 4.84,5.31 1.95,0 2.94,-0.48 3.73,-1.13l-1.19 -1.93zm-2.68 -5.45c1.1,0 1.6,0.63 1.6,1.81l0 0.27 -3.58 0c0.03,-1.18 0.75,-2.08 1.98,-2.08zm12.36 -1.98c-0.24,-0.05 -0.58,-0.09 -0.86,-0.09 -1.33,0 -2.22,0.72 -2.63,1.71l-0.07 0 -0.56 -1.5 -2.13 0 0 10.17 2.7 0 0 -6.89c0.6,-0.49 1.53,-0.81 2.38,-0.81 0.36,0 0.81,0.02 1.17,0.09l0 -2.68zm0.79 13.82c0.25,0.12 0.94,0.3 1.66,0.3 2.37,0 3.38,-1.54 3.96,-3.32l3.41 -10.68 -2.8 0 -0.96 3.46c-0.37,1.37 -0.61,2.63 -0.75,3.54l-0.08 0c-0.12,-0.86 -0.52,-2.39 -0.89,-3.54l-1.14 -3.46 -3.04 0 3.82 10.14c-0.09,1.02 -0.67,1.58 -1.64,1.58 -0.45,0 -0.83,-0.11 -1.1,-0.25l-0.45 2.23zm21.76 -10.33l1.35 6.8 3.17 0 2.62 -10.17 -2.4 0 -1.08 4.61c-0.27,1.13 -0.49,2.14 -0.62,3.26l-0.07 0c-0.05,-1.12 -0.3,-2.16 -0.55,-3.22l-1.11 -4.65 -2.59 0 -1.26 4.72c-0.23,0.92 -0.45,2 -0.55,3.15l-0.07 0c-0.13,-1.26 -0.3,-2.11 -0.53,-3.17l-1.08 -4.7 -2.72 0 2.65 10.17 3.11 0 1.66 -6.8 0.07 0zm8.59 6.8l2.72 0 0 -10.17 -2.72 0 0 10.17zm-0.24 -12.81c0,0.84 0.69,1.53 1.55,1.53 0.92,0 1.61,-0.69 1.61,-1.53 0,-0.94 -0.69,-1.62 -1.61,-1.62 -0.86,0 -1.55,0.68 -1.55,1.62zm8.7 12.9c1.69,0 2.48,-0.37 2.82,-0.63l-0.7 -2.03c-0.39,0.3 -0.95,0.45 -1.38,0.45 -0.67,0 -1.06,-0.36 -1.06,-1.06l0 -4.92 2.53 0 0 -2.07 -2.53 0 0 -2.55 -1.73 0 -0.94 2.39 -1.31 0.54 0 1.69 1.29 0 0 4.84c0,2.47 1.26,3.35 3.01,3.35zm9.48 -10.33c-1.17,0 -2.1,0.5 -2.68,1.1l-0.07 0 0 -4.5 -2.72 0 0 13.64 2.72 0 0 -6.82c0.34,-0.63 1.1,-1.12 1.75,-1.12 0.91,0 1.4,0.54 1.4,1.63l0 6.31 2.72 0 0 -6.86c0,-2.28 -1.14,-3.38 -3.12,-3.38zm5.6 10.24l2.72 0 0 -10.17 -2.72 0 0 10.17zm-0.24 -12.81c0,0.84 0.69,1.53 1.55,1.53 0.92,0 1.61,-0.69 1.61,-1.53 0,-0.94 -0.69,-1.62 -1.61,-1.62 -0.86,0 -1.55,0.68 -1.55,1.62zm14.06 5.78c0,-2.29 -1.14,-3.39 -3.11,-3.39 -1.07,0 -2.13,0.47 -2.74,1.21l-0.07 0 -0.54 -0.96 -2.12 0 0 10.17 2.72 0 0 -6.91c0.3,-0.74 0.95,-1.21 1.74,-1.21 0.92,0 1.4,0.62 1.4,1.66l0 6.46 2.72 0 0 -7.03zm7.05 0.86c0,3.76 1.52,6.35 5.38,6.35 2.18,0 3.46,-0.83 4,-1.47l-1.51 -1.95c-0.38,0.45 -1.08,1.06 -2.25,1.06 -1.89,0 -2.79,-1.56 -2.79,-4.17 0,-2.83 0.86,-4.11 2.55,-4.11 1.34,0 1.93,0.65 2.35,1.16l1.79 -2c-0.34,-0.38 -1.45,-1.48 -3.94,-1.48 -3.68,0 -5.58,2.63 -5.58,6.61zm17.95 -0.44l0 -0.07c0.95,-0.34 1.83,-1.24 1.83,-2.66 0,-2.53 -1.83,-3.27 -4.06,-3.27l-4.52 0 0 12.61 4.17 0c4.2,0 5.02,-2.23 5.02,-3.87 0,-1.78 -1.24,-2.59 -2.44,-2.74zm-0.81 -2.35c0,0.72 -0.52,1.4 -1.86,1.4l-1.37 0 0 -2.78 1.48 0c1.3,0 1.75,0.6 1.75,1.38zm-1.33 6.69l-1.9 0 0 -3.02 1.75 0c1.03,0 1.95,0.41 1.95,1.51 0,0.72 -0.42,1.51 -1.8,1.51zm7.02 2.27l3.96 0c4.64,0 5.92,-3.36 5.92,-6.59 0,-4.02 -1.86,-6.02 -5.96,-6.02l-3.92 0 0 12.61zm2.73 -10.34l0.99 0c2,0 3.33,0.97 3.33,4.01 0,2.42 -0.74,4.06 -3.31,4.06l-1.01 0 0 -8.07z"/>
  <polygon class="fil2" points="1105.42,94.37 1142.53,94.37 1142.53,60.1 1101.75,60.1 "/>
  <path class="fil2" d="M984.9 65.48c0.07,2.47 -0.17,11.05 -0.17,11.05 -1.61,0.03 -12.58,-0.09 -15.8,-0.08 -5.18,0.02 -10.35,0.08 -15.53,0.09 -1.93,0 -3.86,0 -5.79,0l37.29 -11.06zm-97.39 28.89l23.34 -6.92c-1.39,1.98 -2.77,3.96 -4.17,5.93 -0.23,0.33 -0.47,0.66 -0.71,0.99l24.56 0c-0.01,-0.12 -0.02,-0.24 -0.03,-0.36 -0.07,-0.82 -0.07,-1.65 -0.07,-2.47 0,-0.81 0.3,-1.21 1.17,-1.3 1.63,-0.16 3.28,-0.3 4.93,-0.33 3.25,-0.06 6.52,-0.06 9.78,-0.06 4.44,-0.01 8.88,0.02 13.32,0.01 2.27,0 4.52,-0.06 6.79,-0.07 3.27,-0.01 6.53,0.01 9.8,0.01 0.17,0 0.35,-0.01 0.52,-0.02 1.19,-0.03 5.12,-0.02 6.63,-0.01 3.75,0.01 7.49,0.01 11.24,0.02 3.13,0.02 6.27,0.05 9.41,0.07 3.31,0.03 6.62,0.07 9.93,0.09 3.05,0.03 6.1,0.05 9.15,0.07 3.14,0.02 6.28,0.03 9.42,0.08 2.26,0.04 4.53,0.13 6.8,0.22 0.7,0.02 1.23,-0.23 1.68,-0.77 1.42,-1.68 2.87,-3.35 4.32,-5 1.91,-2.17 3.85,-4.31 5.77,-6.48 2.68,-3.04 5.34,-6.11 8.03,-9.15 2.02,-2.3 4.08,-4.57 6.11,-6.87 0.27,-0.31 0.48,-0.67 0.81,-1.14 -0.62,-0.29 -1.21,-0.55 -1.78,-0.81l-22.49 0c0.04,0.46 0.07,0.91 0.09,1.37 0.11,2.27 0.09,4.57 -0.1,6.81 -0.14,1.59 -0.84,2.95 -2.19,3.86 -1.87,1.25 -6.49,-0.68 -7.27,-3.65 -0.14,-0.52 -0.37,-1.01 -0.62,-1.7 -0.61,0.34 -1.09,0.59 -1.55,0.87 -0.36,0.22 -0.67,0.6 -1.06,0.71 -0.73,0.2 -1.51,0.42 -2.25,0.33 -0.82,-0.1 -2.56,-3.2 -2.32,-4.02 0.2,-0.72 0.49,-1.45 0.9,-2.05 0.66,-0.97 1.47,-1.78 2.34,-2.53l-7.15 0c0.24,2.71 0.49,5.42 0.73,8.13 0.19,2.24 0.37,4.48 0.53,6.72 0.08,1.24 -0.05,1.38 -1.28,1.45 -0.9,0.05 -1.82,0.06 -2.73,0.04 -0.99,-0.02 -1.23,-0.27 -1.33,-1.33 -0.22,-2.33 -0.41,-4.66 -0.61,-6.99 -0.24,-2.67 -0.47,-5.34 -0.7,-8.02l-12.11 0c0,0.09 0.01,0.17 0.01,0.26 0.25,3.38 0.47,6.76 0.71,10.14 0.11,1.55 0.25,3.1 0.35,4.66 0.07,1.01 -0.13,1.34 -0.82,1.35 -1.09,0.01 -2.18,-0.05 -3.27,-0.04 -0.66,0 -0.97,-0.38 -1.08,-1 -0.08,-0.45 -0.12,-0.91 -0.16,-1.37 -0.13,-1.78 -0.26,-3.56 -0.39,-5.34 -0.17,-2.38 -0.35,-4.76 -0.52,-7.14l5.1 -1.52 -129.63 0 0 34.27 14.12 0z"/>
  <path class="fil5" d="M323.85 338.54c-0.65,-0.93 -1.3,-1.86 -1.94,-2.8 -4.31,-6.4 -10.4,-10.1 -17.61,-12.07 -0.98,-0.27 -2.02,-0.37 -2.96,-0.73 -7.53,-2.96 -15.53,-4.04 -23.26,-6.15 -5.89,-1.61 -11.84,-3.01 -17.67,-4.84 -9.76,-3.06 -18.42,-8.15 -25.64,-15.63 -4.89,-5.07 -8.64,-10.95 -11.83,-17.23 -0.16,-0.31 -0.29,-0.63 -0.4,-0.96 -1.91,-5.79 -3.86,-11.56 -5.68,-17.38 -0.44,-1.41 -0.49,-2.96 -0.6,-4.45 -0.25,-3.46 -0.59,-6.91 -0.6,-10.37 -0.02,-6.35 1.74,-12.34 4.5,-17.95 3.29,-6.7 7.89,-12.36 13.97,-16.66 2.87,-2.03 5.77,-4.01 9,-6.26 0,0.81 0.09,1.23 -0.01,1.58 -0.23,0.77 -0.56,1.51 -0.85,2.26 -2.09,5.21 -1.61,10.37 0.26,15.52 1.39,3.83 3.52,7.21 6.03,10.37 3.8,4.76 8.16,8.95 12.9,12.72 6.45,5.13 13.43,9.38 20.63,13.29 4.58,2.48 9.19,4.96 13.63,7.71 5.55,3.44 10.38,7.78 14.22,13.19 2.86,4.03 5.37,8.27 7.51,12.74 1.45,3.01 2.6,6.12 3.26,9.43 0.73,3.73 1.65,7.42 2.43,11.14 1.05,5 0.99,10.1 1.26,15.16 0.14,2.74 0.05,5.48 0.06,8.22l-0.61 0.15z"/>
  <path class="fil5" d="M292.44 226.1c0.02,-0.35 0.05,-0.7 0.07,-1.05 0.16,-2.39 1.2,-4.32 2.82,-5.98 0.22,-0.22 0.48,-0.41 0.68,-0.66 1.54,-1.96 3.51,-3.5 5.24,-5.27 1.32,-1.35 2.69,-2.65 3.96,-4.05 2.13,-2.35 3.65,-5.06 4.4,-8.18 0.52,-2.12 0.6,-4.28 0.47,-6.45 -0.01,-0.11 -0.02,-0.22 -0.04,-0.32 -0.4,-1.84 -0.78,-3.69 -1.2,-5.53 -0.11,-0.44 -0.34,-0.86 -0.54,-1.28 -0.47,-0.96 -0.92,-1.94 -1.46,-2.86 -0.99,-1.7 -2.39,-3.02 -4.01,-4.09 -1.92,-1.27 -4.03,-2.07 -6.33,-2.26 -1.08,-0.1 -2.17,-0.17 -3.38,-0.27 0.13,0.22 0.17,0.34 0.25,0.42 0.18,0.17 0.38,0.32 0.58,0.47 1.37,1.07 2.05,2.52 2.36,4.19 0.22,1.24 0.18,2.47 0.01,3.71 -0.27,1.86 -0.78,3.66 -1.46,5.41 -0.92,2.38 -2.12,4.6 -3.43,6.77 -0.83,1.38 -1.68,2.76 -2.43,4.19 -0.94,1.78 -1.55,3.7 -1.74,5.74 -0.13,1.52 -0.13,3.05 -0.01,4.58 0.08,1.03 0.26,2.04 0.61,3.02 0.38,1.11 0.71,2.24 1.09,3.36 0.5,1.5 1.31,2.85 2.03,4.24 0.39,0.75 0.84,1.47 1.27,2.2 0.06,-0.01 0.12,-0.03 0.19,-0.05z"/>
  <path class="fil5" d="M273.12 216.56c-0.8,-1.53 -1.61,-3.05 -2.38,-4.59 -5.28,-10.47 -13.75,-17.2 -24.25,-21.55 -1.42,-0.59 -2.97,-0.94 -4.32,-1.67 -10.77,-5.9 -22.62,-9.05 -33.88,-13.71 -8.57,-3.54 -17.27,-6.79 -25.7,-10.65 -14.14,-6.47 -26.21,-15.8 -35.67,-28.45 -6.4,-8.57 -10.93,-18.16 -14.54,-28.23 -0.18,-0.49 -0.32,-1 -0.42,-1.52 -1.77,-9.09 -3.61,-18.16 -5.24,-27.28 -0.39,-2.2 -0.18,-4.55 -0.06,-6.82 0.28,-5.25 0.43,-10.53 1.07,-15.74 1.19,-9.58 4.98,-18.26 10.2,-26.19 6.24,-9.47 14.25,-17.13 24.24,-22.45 4.71,-2.51 9.46,-4.95 14.75,-7.71 -0.14,1.22 -0.09,1.86 -0.31,2.38 -0.5,1.11 -1.12,2.16 -1.72,3.23 -4.13,7.46 -4.4,15.33 -2.56,23.45 1.37,6.04 3.93,11.55 7.11,16.77 4.83,7.91 10.6,15.05 17.02,21.65 8.73,8.95 18.44,16.69 28.55,23.95 6.44,4.62 12.91,9.23 19.07,14.22 7.71,6.24 14.16,13.71 18.92,22.59 3.55,6.61 6.51,13.5 8.89,20.63 1.61,4.82 2.75,9.73 3.11,14.84 0.39,5.76 1.07,11.5 1.54,17.25 0.64,7.73 -0.43,15.41 -0.99,23.1 -0.31,4.14 -0.98,8.26 -1.48,12.39 -0.32,0.03 -0.63,0.07 -0.95,0.11z"/>
  <path class="fil5" d="M277.8 242.32c2.32,-1.28 4.41,-0.06 6.8,1.16 0.24,-1.06 0.51,-1.96 0.64,-2.88 0.34,-2.44 1.6,-4.25 3.73,-5.42 2.53,-1.38 5.11,-0.48 6.21,2.16 0.4,0.98 0.75,2.02 0.89,3.06 0.62,4.68 1.15,9.36 1.71,14.04 0.03,0.3 0.02,0.61 0.01,0.91 -0.04,2.38 -0.61,2.77 -2.73,1.83 -1.18,-0.53 -2.36,-1.06 -3.54,-1.6 -3.24,-1.5 -6.54,-2.91 -9.71,-4.56 -1.59,-0.83 -2.99,-2.04 -4.38,-3.2 -0.36,-0.31 -0.53,-1.09 -0.46,-1.61 0.17,-1.26 0.52,-2.49 0.83,-3.89z"/>
  <path class="fil5" d="M808.59 184.5l-30.84 1.52c-1.24,0.07 -2.33,-0.8 -2.56,-2.03l-3.55 -19.63c-0.27,-1.5 0.86,-2.89 2.39,-2.92l36.76 -0.78c1.52,-0.03 2.71,1.29 2.52,2.79l-2.38 18.88c-0.16,1.2 -1.14,2.11 -2.34,2.17z"/>
  <path class="fil5" d="M827.84 181.31l-25.76 5.08c-0.32,0.06 -0.59,0.25 -0.75,0.53l-11.3 18.89c-0.48,0.79 0.14,1.79 1.06,1.71l4.66 -0.4c1.8,-4.21 5.93,-7.2 10.81,-7.31 4.33,-0.09 8.17,2.11 10.36,5.49l10.47 -0.9c0.57,-0.05 1.02,-0.51 1.04,-1.09l0.75 -20.85c0.03,-0.73 -0.63,-1.29 -1.34,-1.15z"/>
  <path class="fil5" d="M794.78 212.11c0.14,6.65 5.64,11.93 12.29,11.79 6.65,-0.14 11.93,-5.65 11.79,-12.3 -0.05,-2.33 -0.76,-4.48 -1.94,-6.3l-21.17 1.82c-0.66,1.53 -1.01,3.22 -0.97,4.99z"/>
  <path class="fil5" d="M872.67 187.86l-16.03 8.9c-0.17,0.85 -0.26,1.73 -0.24,2.63 0.14,6.65 5.65,11.93 12.3,11.79 6.65,-0.14 11.93,-5.65 11.79,-12.3 -0.11,-5.07 -3.34,-9.35 -7.82,-11.02z"/>
  <path class="fil5" d="M868.19 187.1c1.58,-0.04 3.08,0.24 4.47,0.76l2.45 -1.36c0.58,-0.32 0.5,-1.19 -0.13,-1.4l-13.57 -4.61c-0.24,-0.08 -0.51,-0.04 -0.71,0.12l-4.12 3.15c-0.13,0.1 -0.22,0.24 -0.27,0.4l-4.04 13.52c-0.19,0.66 0.51,1.23 1.12,0.89l3.25 -1.81c1.08,-5.41 5.8,-9.54 11.55,-9.66z"/>
  <path class="fil5" d="M849.53 198.05l-18.67 5.83c-0.55,0.17 -1.11,-0.25 -1.09,-0.83l0.14 -4.52c0.01,-0.33 0.21,-0.62 0.51,-0.75l21.23 -9.23c0.68,-0.3 1.37,0.35 1.14,1.04l-2.71 7.92c-0.09,0.26 -0.29,0.46 -0.55,0.54z"/>
  <path class="fil5" d="M847.23 168.68l11.16 10.09c0.61,0.55 0.6,1.51 -0.01,2.06l-2.2 1.95c-0.06,0.06 -0.12,0.12 -0.18,0.19l-2.57 3.39c-0.19,0.25 -0.46,0.43 -0.76,0.51l-6.66 1.68c-0.84,0.21 -1.66,-0.39 -1.71,-1.26l-0.89 -15.81c-0.02,-0.36 0.1,-0.72 0.35,-1l1.51 -1.69c0.51,-0.58 1.39,-0.62 1.96,-0.11z"/>
  <path class="fil5" d="M847.92 157.99l1.37 4.84c0.16,0.57 -0.03,1.19 -0.48,1.57l-5.25 4.52c-0.62,0.52 -1.53,0.48 -2.09,-0.1l-3.3 -3.4c-0.62,-0.64 -0.56,-1.67 0.12,-2.23l7.19 -5.97c0.85,-0.7 2.15,-0.3 2.44,0.77z"/>
  <path class="fil5" d="M837.6 160.37c-0.17,0.01 -0.32,0.06 -0.46,0.13l-1.5 -0.66c-0.81,-0.42 -1.8,-0.1 -2.22,0.7l3.38 1.35c0.18,0.27 0.49,0.45 0.84,0.45 0.54,-0.02 0.97,-0.46 0.96,-1.01 -0.01,-0.54 -0.46,-0.97 -1,-0.96z"/>
  <path class="fil5" d="M777.59 216.57c-1.51,0.44 -2.38,1.35 -2.4,2.86 -0.03,1.49 0.9,2.35 2.02,3.02 1.59,0.96 3.36,1.09 5.1,0.66 4.2,-1.04 7.67,-3.41 10.43,-6.93 0.12,-0.16 0.19,-0.36 0.37,-0.71 -4.67,0.62 -8.46,-1.09 -11.94,-3.76 -0.68,-0.52 -1.46,-0.82 -2.29,-0.97 -1.34,-0.26 -2.72,0.42 -3.22,1.54 -0.61,1.38 -0.36,2.41 0.85,3.45 0.29,0.25 0.6,0.47 1.08,0.84z"/>
  <path class="fil5" d="M749.93 192.51c-0.29,0.36 -0.61,0.21 -0.89,0.26 -1.73,0.26 -2.45,0.92 -2.66,2.49 -0.16,1.22 0.77,2.53 2.12,2.98 0.97,0.33 1.98,0.3 2.98,0.23 3.94,-0.25 7.58,0.5 10.67,3.14 0.42,-0.26 0.19,-0.64 0.16,-0.94 -0.43,-4.03 -1.94,-7.52 -4.5,-10.51 -0.96,-1.12 -2.19,-1.87 -3.56,-2.26 -1.49,-0.44 -3.02,-0.45 -4.25,0.83 -1.18,1.23 -0.77,2.55 -0.07,3.78z"/>
  <path class="fil5" d="M768.34 208.34c-3.24,0.24 -6.08,-0.78 -8.64,-2.71 -0.64,-0.48 -1.3,-0.96 -2.1,-1.09 -1.1,-0.18 -2.13,0.01 -2.72,1.17 -0.59,1.17 -0.17,2.11 0.75,2.84 0.16,0.13 0.33,0.26 0.46,0.36 0.05,0.37 -0.22,0.38 -0.38,0.48 -1.45,0.97 -1.65,2.5 -0.46,3.73 1.18,1.23 2.73,1.54 4.29,1.25 3.66,-0.7 6.68,-2.61 8.89,-5.84 -0.03,-0.06 -0.06,-0.12 -0.09,-0.19z"/>
  <path class="fil5" d="M780.36 204.3c-0.1,-3.54 -1.42,-6.38 -4.28,-8.29 -0.8,-0.54 -1.73,-0.63 -2.66,-0.34 -1.05,0.33 -1.57,1.18 -1.23,2.23 0.21,0.65 0.24,0.9 -0.52,0.97 -0.88,0.07 -1.35,0.68 -1.44,1.58 -0.08,0.93 0.44,1.46 1.18,1.78 0.34,0.15 0.74,0.29 1.09,0.26 2.84,-0.28 5.48,0.24 7.89,1.8l-0.03 0.01z"/>
 </g>
</svg>
